<?xml version="1.0" standalone="no"?>
<!DOCTYPE svg PUBLIC "-//W3C//DTD SVG 1.1//EN"
  "http://www.w3.org/Graphics/SVG/1.1/DTD/svg11.dtd">
<svg width="210mm" height="201.99500274658203mm" viewBox="92.625 100.5999984741211 210 201.99500274658203" xmlns="http://www.w3.org/2000/svg" version="1.1">
	<title>svgOutput</title>
	<desc>made with tinkercad</desc>
<path d="M 143.88800048828125 119.51399993896484 L 142.1047821044922 119.57743835449219 L 139.66635131835938 119.7896499633789 L 138.69931030273438 120.04838562011719 L 137.2769012451172 121.15850067138672 L 136.0556182861328 122.27438354492188 L 135.4605255126953 123.9805908203125 L 134.98500061035156 125.56500244140625 L 134.98500061035156 131.07200622558594 L 134.98500061035156 262.1440124511719 L 134.98500061035156 272.9326477050781 L 134.98500061035156 272.9441833496094 L 134.98500061035156 284.09100341796875 L 135.04568481445312 284.41156005859375 L 135.04722595214844 284.41961669921875 L 135.1713104248047 285.07501220703125 L 135.21359252929688 285.2603759765625 L 135.46861267089844 286.3783264160156 L 136.17340087890625 287.50018310546875 L 137.8936309814453 289.0137023925781 L 139.01600646972656 289.718994140625 L 144.85693359375 290.0152587890625 L 147.0800018310547 290.12799072265625 L 147.9598846435547 290.54541015625 L 148.83738708496094 290.96221923828125 L 148.83799743652344 290.9624938964844 L 149.46713256835938 291.78131103515625 L 150.09500122070312 292.5979919433594 L 151.2153778076172 293.1504211425781 L 151.68299865722656 293.3810119628906 L 163.68450927734375 294.6392517089844 L 171.65802001953125 295.59130859375 L 182.34129333496094 296.28509521484375 L 194.39736938476562 296.7630920410156 L 196.60800170898438 296.72723388671875 L 210.44976806640625 296.5028381347656 L 221.17100524902344 296.1549987792969 L 226.043701171875 295.6477355957031 L 247.09449768066406 293.4562072753906 L 247.81700134277344 293.3810119628906 L 249.40499877929688 292.5979919433594 L 250.71600341796875 290.9150085449219 L 255.06399536132812 287.864013671875 L 257.9460144042969 287.09100341796875 L 262.1440124511719 287.09100341796875 L 263.1044006347656 287.09100341796875 L 275.0459899902344 287.09100341796875 L 276.4073486328125 286.89581298828125 L 280.85589599609375 285.7909240722656 L 283.09814453125 284.955078125 L 284.69573974609375 284.7843933105469 L 285.7247009277344 284.4742126464844 L 286.0119934082031 284.25799560546875 L 286.5150146484375 282.9320068359375 L 286.5150146484375 262.1440124511719 L 286.5150146484375 173.78199768066406 L 286.3052062988281 172.83445739746094 L 285.9698791503906 171.58319091796875 L 285.1896667480469 170.56622314453125 L 284.0069885253906 169.45761108398438 L 282.54193115234375 167.41964721679688 L 281.5899353027344 165.7111358642578 L 281.583984375 165.70042419433594 L 281.6064758300781 161.6115264892578 L 281.6224670410156 157.63604736328125 L 282.1139831542969 156.44985961914062 L 282.6763916015625 155.1906280517578 L 284.4346618652344 153.3157501220703 L 285.7718200683594 152.1329345703125 L 286.3047790527344 150.62545776367188 L 286.5150146484375 149.67599487304688 L 286.5150146484375 135.98699951171875 L 286.5350036621094 135.7989959716797 L 286.5350036621094 131.07200622558594 L 286.5350036621094 121.73699951171875 L 285.8202819824219 121.12689208984375 L 284.5945129394531 120.2427749633789 L 283.9833984375 119.90193176269531 L 282.48541259765625 119.53480529785156 L 280.9423522949219 119.27253723144531 L 280.7201843261719 119.10218048095703 L 280.33074951171875 118.80357360839844 L 279.5459899902344 118.27693939208984 L 279.4621276855469 118.22065734863281 L 279.2613220214844 117.47140502929688 L 279.1719055175781 117.21836853027344 L 278.9410095214844 116.56500244140625 L 278.9410095214844 116.16505432128906 L 278.9410095214844 115.25444793701172 L 278.9410095214844 114.68800354003906 L 278.9410095214844 106.0999984741211 L 279.4205322265625 104.74336242675781 L 280.31341552734375 102.97158813476562 L 281.2284851074219 102.26929473876953 L 282.5878601074219 101.78881072998047 L 283.4410095214844 101.5999984741211 L 294.9119873046875 101.5999984741211 L 295.625 101.5999984741211 L 297.2643737792969 101.90972137451172 L 297.593994140625 101.97200012207031 L 298.7186279296875 102.6787109375 L 299.6037292480469 103.14673614501953 L 300.5462951660156 104.5063705444336 L 301.25299072265625 105.63099670410156 L 301.625 107.5999984741211 L 301.625 131.07200622558594 L 301.625 262.1440124511719 L 301.625 295.5950012207031 L 301.31512451171875 297.2359619140625 L 301.25299072265625 297.56500244140625 L 300.5462951660156 298.6891174316406 L 300.0782470703125 299.57373046875 L 298.8609924316406 300.4268798828125 L 297.8788757324219 301.0440368652344 L 297.7363586425781 301.1335754394531 L 296.7508850097656 301.31976318359375 L 295.625 301.5950012207031 L 294.9119873046875 301.5950012207031 L 262.1440124511719 301.5950012207031 L 242.39663696289062 301.5950012207031 L 235.49586486816406 301.5950012207031 L 203.8702850341797 301.5950012207031 L 196.60800170898438 301.5950012207031 L 134.1439971923828 301.5950012207031 L 131.07200622558594 301.5950012207031 L 99.625 301.5950012207031 L 99 301.4076232910156 L 98.04058837890625 301.1199645996094 L 95.93047332763672 300.2270812988281 L 94.8145980834961 299.00579833984375 L 94.45600128173828 298.4353942871094 L 94.1078872680664 297.8816833496094 L 94 297.4087219238281 L 93.81118774414062 296.58099365234375 L 93.625 295.5950012207031 L 93.625 294.9119873046875 L 93.625 262.1440124511719 L 93.625 131.07200622558594 L 93.625 107.5999984741211 L 93.81118774414062 106.61451721191406 L 94 105.78710174560547 L 94.1078872680664 105.31431579589844 L 94.45600128173828 104.76034545898438 L 94.8145980834961 104.18968963623047 L 95.02281951904297 103.9285659790039 L 95.48626708984375 103.34738159179688 L 95.6462631225586 103.14673614501953 L 97.7563705444336 102.25384521484375 L 98.95816802978516 101.6749267578125 L 99 101.67022705078125 L 99.625 101.5999984741211 L 104.54792022705078 101.5999984741211 L 106.43828582763672 101.5999984741211 L 115.26094055175781 101.5999984741211 L 115.4560775756836 101.5999984741211 L 129.01429748535156 101.5999984741211 L 131.07200622558594 101.5999984741211 L 134.1439971923828 101.5999984741211 L 147.45599365234375 101.5999984741211 L 160.6999969482422 101.5999984741211 L 162.11599731445312 102.31400299072266 L 162.5 103.4000015258789 L 162.5 111.67639923095703 L 162.5 114.56500244140625 L 162.28671264648438 115.16839599609375 L 161.950927734375 115.83446502685547 L 161.8898162841797 115.95568084716797 L 161.28570556640625 116.16939544677734 L 160.5 116.56500244140625 L 148.6959991455078 116.56500244140625 L 147.45599365234375 117.00413513183594 L 146.88600158691406 117.20600128173828 L 146.0946807861328 118.06967163085938 L 145.31100463867188 118.92500305175781 L 144.16868591308594 119.39781951904297 L 143.88800048828125 119.51399993896484 M 143.3376007080078 117.30474090576172 L 143.64065551757812 117.07176971435547 L 144.00851440429688 116.75495147705078 L 144.118408203125 115.9202880859375 L 144.13092041015625 115.80936431884766 L 144.20700073242188 115.13500213623047 L 144.02659606933594 114.99128723144531 L 143.64585876464844 114.68800354003906 L 143.58938598632812 114.64300537109375 L 142.9215545654297 114.13052368164062 L 142.2979278564453 114.2551498413086 L 141.67555236816406 114.42198181152344 L 141.44577026367188 114.68800354003906 L 141.3582305908203 114.78934478759766 L 141.20135498046875 114.99378204345703 L 141.09300231933594 115.13500213623047 L 141.32476806640625 116.08155059814453 L 141.4138641357422 116.86683654785156 L 141.73757934570312 117.08275604248047 L 141.94288635253906 117.21968841552734 L 142.1783447265625 117.33323669433594 L 142.3789520263672 117.42997741699219 L 142.81101989746094 117.37353515625 L 143.2949981689453 117.3375015258789 L 143.3376007080078 117.30474090576172 M 281.0478820800781 294.76995849609375 L 281.07958984375 294.9119873046875 L 281.1700134277344 295.3169860839844 L 281.741455078125 295.7547302246094 L 281.781005859375 295.7850036621094 L 282.20843505859375 295.8165283203125 L 282.58953857421875 295.8669738769531 L 283.0820617675781 295.582763671875 L 283.5299987792969 295.3169860839844 L 283.63824462890625 294.9119873046875 L 283.8240051269531 294.2170104980469 L 283.5299987792969 293.5060119628906 L 282.91900634765625 293.0379943847656 L 282.6878967285156 293.02093505859375 L 282.492919921875 293.00653076171875 L 282.1110534667969 292.95599365234375 L 282.091064453125 292.9768371582031 L 281.5166320800781 293.57635498046875 L 280.9206237792969 294.1999816894531 L 280.9010314941406 294.2204895019531 L 281.0478820800781 294.76995849609375 M 281.79071044921875 117.128173828125 L 282.57000732421875 117.45099639892578 L 283.083984375 117.16278839111328 L 283.6430358886719 116.8399658203125 L 283.85382080078125 116.40340423583984 L 284.02099609375 116 L 283.9070129394531 115.13500213623047 L 283.5639953613281 114.68800354003906 L 283.3760070800781 114.44300079345703 L 282.57000732421875 114.10900115966797 L 281.9974365234375 114.2551498413086 L 281.37506103515625 114.42198181152344 L 281.1456298828125 114.68800354003906 L 281.0582275390625 114.78934478759766 L 280.7929992675781 115.13500213623047 L 280.6789855957031 116 L 280.8461608886719 116.40340423583984 L 281.0474548339844 116.82026672363281 L 281.05694580078125 116.8399658203125 L 281.79071044921875 117.128173828125 M 112.90057373046875 117.15399932861328 L 113.18478393554688 117.21693420410156 L 113.46900177001953 117.15399932861328 L 113.7741928100586 116.92023468017578 L 114.09851837158203 116.64045715332031 L 114.2271499633789 116.13545227050781 L 114.2456283569336 115.27631378173828 L 114.09848022460938 114.92045593261719 L 113.7748031616211 114.64073181152344 L 113.46900177001953 114.40599822998047 L 112.33100128173828 114.40599822998047 L 111.72000122070312 114.875 L 111.578857421875 115.37650299072266 L 111.4320068359375 115.92594909667969 L 111.57315063476562 116.33085632324219 L 111.7794418334961 116.76342010498047 L 112.0407943725586 116.96360778808594 L 112.08524322509766 116.9976577758789 L 112.33100128173828 117.15399932861328 L 112.90057373046875 117.15399932861328 M 112.00667572021484 293.3177795410156 L 111.70148468017578 293.5515441894531 L 111.5728530883789 294.0565490722656 L 111.5728530883789 294.9119873046875 L 111.5728530883789 294.9611511230469 L 111.72000122070312 295.3169860839844 L 112.33100128173828 295.7850036621094 L 113.46900177001953 295.7850036621094 L 114.08000183105469 295.3169860839844 L 114.22685241699219 294.96185302734375 L 114.24423217773438 294.9119873046875 L 114.36799621582031 294.55694580078125 L 114.22113800048828 294.00750732421875 L 114.08000183105469 293.5060119628906 L 113.46900177001953 293.0379943847656 L 112.37194061279297 293.0379943847656 L 112.33100128173828 293.0379943847656 L 112.00667572021484 293.3177795410156 z" fill="none" stroke="rgb(255,0,0)" stroke-width="0.001mm" />
</svg>