<?xml version="1.0" standalone="no"?>
<!DOCTYPE svg PUBLIC "-//W3C//DTD SVG 1.1//EN"
  "http://www.w3.org/Graphics/SVG/1.1/DTD/svg11.dtd">
<svg width="222.34999084472656mm" height="256.875mm" viewBox="-299.04998779296875 -300.5 222.34999084472656 256.875" xmlns="http://www.w3.org/2000/svg" version="1.1">
	<title>svgOutput</title>
	<desc>made with tinkercad</desc>
<path d="M -192.5921173095703 -65.43350219726562 L -192.545166015625 -65.53600311279297 L -192.53599548339844 -65.55599975585938 L -192.51199340820312 -65.6592025756836 L -192.38600158691406 -66.20099639892578 L -192.3459930419922 -68.76699829101562 L -192.34483337402344 -69.63200378417969 L -192.34300231933594 -70.99800109863281 L -193.99400329589844 -70.99800109863281 L -193.99667358398438 -69.63200378417969 L -194.0019989013672 -66.90799713134766 L -194.0989990234375 -66.27400207519531 L -194.302001953125 -65.79299926757812 L -194.5406494140625 -65.53600311279297 L -194.61399841308594 -65.45700073242188 L -195.0399932861328 -65.26399993896484 L -195.66099548339844 -65.22100067138672 L -196.08700561523438 -65.33699798583984 L -196.3429718017578 -65.53600311279297 L -196.406005859375 -65.58499908447266 L -196.60800170898438 -65.94195556640625 L -196.625 -65.97200012207031 L -196.74600219726562 -66.50499725341797 L -196.76626586914062 -68.06285095214844 L -196.76878356933594 -68.25245666503906 L -196.76881408691406 -68.258056640625 L -196.7779998779297 -70.83382415771484 L -196.7779998779297 -70.99800109863281 L -196.77857971191406 -70.99800109863281 L -196.80445861816406 -70.99800109863281 L -196.80526733398438 -70.99800109863281 L -197.7659912109375 -70.99800109863281 L -198.4239959716797 -70.99800109863281 L -198.42440795898438 -69.15178680419922 L -198.4250030517578 -66.5459976196289 L -198.38299560546875 -66.09300231933594 L -198.2415313720703 -65.53600311279297 L -198.20799255371094 -65.40399932861328 L -197.9080047607422 -64.81800079345703 L -197.48599243164062 -64.34300231933594 L -196.94700622558594 -63.986000061035156 L -196.60800170898438 -63.872554779052734 L -196.18499755859375 -63.73099899291992 L -195.302001953125 -63.66899871826172 L -194.4980010986328 -63.77799987792969 L -193.8040008544922 -64.04000091552734 L -193.22999572753906 -64.4489974975586 L -192.79299926757812 -64.99500274658203 L -192.5921173095703 -65.43350219726562 M -205.0760040283203 -130.81900024414062 L -205.271484375 -131.07200622558594 L -205.61300659179688 -131.51400756835938 L -205.98599243164062 -132.3090057373047 L -206.17599487304688 -133.16600036621094 L -206.1750030517578 -134.04400634765625 L -205.9810028076172 -134.9010009765625 L -205.6060028076172 -135.69500732421875 L -205.06700134277344 -136.38699340820312 L -204.38999938964844 -136.94700622558594 L -203.6060028076172 -137.34300231933594 L -202.75599670410156 -137.55999755859375 L -196.60800170898438 -138.42422485351562 L -189.26800537109375 -139.45599365234375 L -189.8179168701172 -143.37098693847656 L -190.39170837402344 -147.45599365234375 L -190.98599243164062 -151.68699645996094 L -196.60800170898438 -150.89622497558594 L -202.41799926757812 -150.07899475097656 L -203.1060028076172 -150.04200744628906 L -203.78900146484375 -150.12399291992188 L -204.44900512695312 -150.3209991455078 L -205.06300354003906 -150.62899780273438 L -208.14100646972656 -152.63400268554688 L -211.1009979248047 -154.80599975585938 L -213.93499755859375 -157.14100646972656 L -216.63499450683594 -159.6300048828125 L -219.19200134277344 -162.26499938964844 L -220.5580596923828 -163.83999633789062 L -221.4065399169922 -164.81825256347656 L -221.59800720214844 -165.03900146484375 L -223.84500122070312 -167.9429931640625 L -225.927001953125 -170.96800231933594 L -227.83700561523438 -174.10400390625 L -229.37600708007812 -176.98118591308594 L -229.56900024414062 -177.3419952392578 L -231.11700439453125 -180.6719970703125 L -232.4770050048828 -184.08299255371094 L -233.64599609375 -187.56399536132812 L -234.61700439453125 -191.10499572753906 L -235.38999938964844 -194.69500732421875 L -235.6916961669922 -196.60800170898438 L -235.96200561523438 -198.32200622558594 L -236.3300018310547 -201.9759979248047 L -236.49400329589844 -205.64300537109375 L -236.45399475097656 -209.3159942626953 L -236.20700073242188 -212.97900390625 L -235.5570068359375 -216.61599731445312 L -235.08999633789062 -220.2790069580078 L -234.80799865722656 -223.96299743652344 L -234.71099853515625 -227.65499877929688 L -234.75201416015625 -229.37600708007812 L -234.7989959716797 -231.34800720214844 L -235.07400512695312 -235.03199768066406 L -235.5330047607422 -238.69700622558594 L -236.17599487304688 -242.3350067138672 L -236.9608917236328 -245.75999450683594 L -237.00100708007812 -245.93499755859375 L -238.00599670410156 -249.49099731445312 L -238.19900512695312 -250.406005859375 L -238.21392822265625 -251.22776794433594 L -238.21600341796875 -251.3419952392578 L -238.05999755859375 -252.26400756835938 L -237.73399353027344 -253.14100646972656 L -237.25100708007812 -253.9429931640625 L -237.24293518066406 -253.95199584960938 L -236.6269989013672 -254.63999938964844 L -235.88400268554688 -255.20899963378906 L -235.0469970703125 -255.6300048828125 L -234.14700317382812 -255.88600158691406 L -233.21600341796875 -255.9709930419922 L -232.28399658203125 -255.88099670410156 L -231.37899780273438 -255.6699981689453 L -230.49400329589844 -255.38699340820312 L -229.6320037841797 -255.03700256347656 L -229.37600708007812 -254.89825439453125 L -228.6320037841797 -254.4949951171875 L -227.718994140625 -253.81700134277344 L -226.91099548339844 -253.01600646972656 L -226.2259979248047 -252.10800170898438 L -225.11399841308594 -250.39599609375 L -224.81748962402344 -249.8298797607422 L -224.6840057373047 -249.5749969482422 L -224.41200256347656 -248.68800354003906 L -224.30799865722656 -247.76600646972656 L -224.3769989013672 -246.84100341796875 L -224.9409942626953 -242.92100524902344 L -225.31399536132812 -238.97799682617188 L -225.4949951171875 -235.02200317382812 L -225.48599243164062 -231.06100463867188 L -225.39952087402344 -229.37600708007812 L -225.2830047607422 -227.1060028076172 L -224.88900756835938 -223.16600036621094 L -224.30299377441406 -219.24899291992188 L -223.52999877929688 -215.36399841308594 L -222.5679931640625 -211.52200317382812 L -221.42100524902344 -207.73199462890625 L -220.09300231933594 -204.00100708007812 L -218.58399963378906 -200.33900451660156 L -216.8990020751953 -196.7550048828125 L -216.82102966308594 -196.60800170898438 L -215.04299926757812 -193.25599670410156 L -213.01800537109375 -189.8520050048828 L -210.83200073242188 -186.5500030517578 L -208.48800659179688 -183.35800170898438 L -208.24600219726562 -182.95399475097656 L -208.10499572753906 -182.50399780273438 L -208.09963989257812 -182.42271423339844 L -208.07400512695312 -182.03399658203125 L -208.1529998779297 -181.57000732421875 L -208.33700561523438 -181.13699340820312 L -208.61900329589844 -180.75900268554688 L -208.98199462890625 -180.45799255371094 L -209.34234619140625 -180.2239990234375 L -216.8990020751953 -175.31700134277344 L -213.44000244140625 -169.99099731445312 L -204.26100158691406 -175.9510040283203 L -203.8560028076172 -176.1529998779297 L -203.41400146484375 -176.25900268554688 L -202.96099853515625 -176.26199340820312 L -202.57998657226562 -176.17771911621094 L -202.51800537109375 -176.16400146484375 L -202.10899353027344 -175.96800231933594 L -201.7550048828125 -175.6840057373047 L -199.0679931640625 -173.10299682617188 L -196.60800170898438 -170.9492950439453 L -196.26499938964844 -170.6490020751953 L -193.35499572753906 -168.32400512695312 L -190.33999633789062 -166.13499450683594 L -187.22900390625 -164.08399963378906 L -186.81900024414062 -163.83999633789062 L -184.0279998779297 -162.1790008544922 L -180.7429962158203 -160.42100524902344 L -177.3820037841797 -158.81500244140625 L -173.9499969482422 -157.36399841308594 L -171.6114501953125 -156.4996337890625 L -170.3489990234375 -156.0330047607422 L -169.8090057373047 -155.8509979248047 L -167.83599853515625 -155.14100646972656 L -165.93800354003906 -154.24899291992188 L -164.1320037841797 -153.1840057373047 L -163.83999633789062 -152.9726104736328 L -162.43299865722656 -151.95399475097656 L -160.85499572753906 -150.57200622558594 L -159.41400146484375 -149.0489959716797 L -158.1681365966797 -147.45599365234375 L -158.1219940185547 -147.39700317382812 L -156.99000549316406 -145.6320037841797 L -156.02699279785156 -143.7689971923828 L -155.24200439453125 -141.82400512695312 L -154.64300537109375 -139.81399536132812 L -154.53358459472656 -139.26400756835938 L -154.23399353027344 -137.75799560546875 L -154.0189971923828 -135.6719970703125 L -154 -133.5749969482422 L -154.14166259765625 -131.89273071289062 L -154.17599487304688 -131.48500061035156 L -154.25022888183594 -131.07200622558594 L -154.5469970703125 -129.42100524902344 L -155.10899353027344 -127.4010009765625 L -155.85699462890625 -125.44100189208984 L -156.78500366210938 -123.55999755859375 L -157.88400268554688 -121.7750015258789 L -159.14599609375 -120.0989990234375 L -160.55799865722656 -118.55000305175781 L -162.10899353027344 -117.13899993896484 L -163.78500366210938 -115.87799835205078 L -163.83999633789062 -115.84418487548828 L -165.5709991455078 -114.77999877929688 L -165.75758361816406 -114.68800354003906 L -167.4530029296875 -113.85199737548828 L -169.41200256347656 -113.10600280761719 L -171.4320068359375 -112.54499816894531 L -173.4969940185547 -112.17500305175781 L -175.58700561523438 -112 L -177.6840057373047 -112.02100372314453 L -179.77000427246094 -112.23699951171875 L -180.2239990234375 -112.3275375366211 L -181.8260040283203 -112.64700317382812 L -183.83599853515625 -113.24800109863281 L -184.6219940185547 -113.55000305175781 L -185.38900756835938 -113.89900207519531 L -185.48805236816406 -113.95207214355469 L -186.4489288330078 -114.46705627441406 L -186.83612060546875 -114.68800354003906 L -188.26841735839844 -115.50531768798828 L -188.37599182128906 -115.56717681884766 L -188.38319396972656 -115.5713119506836 L -188.40699768066406 -115.58499908447266 L -190.06900024414062 -116.75199890136719 L -191.59585571289062 -118.04805755615234 L -191.61700439453125 -118.06600189208984 L -193.0399932861328 -119.51599884033203 L -193.1116485595703 -119.58883666992188 L -194.17385864257812 -120.63815307617188 L -194.5001678466797 -120.92366027832031 L -196.60800170898438 -122.76727294921875 L -198.093994140625 -124.06700134277344 L -201.64199829101562 -127.38400268554688 L -205.0760040283203 -130.81900024414062 M -196.16000366210938 -225.5290069580078 L -196.60800170898438 -225.9500274658203 L -197.68800354003906 -226.96499633789062 L -199.0749969482422 -228.53799438476562 L -199.68472290039062 -229.37600708007812 L -200.3090057373047 -230.23399353027344 L -201.37899780273438 -232.03799438476562 L -202.2760009765625 -233.93299865722656 L -202.99200439453125 -235.9040069580078 L -203.52099609375 -237.9340057373047 L -203.85800170898438 -240.0030059814453 L -204 -242.09500122070312 L -203.9459991455078 -244.19200134277344 L -203.7584686279297 -245.75999450683594 L -203.69700622558594 -246.2740020751953 L -203.25399780273438 -248.32400512695312 L -202.6219940185547 -250.322998046875 L -201.80599975585938 -252.2550048828125 L -200.81300354003906 -254.10299682617188 L -199.6529998779297 -255.8489990234375 L -199.55426025390625 -255.9709930419922 L -198.33299255371094 -257.4800109863281 L -196.8679962158203 -258.9779968261719 L -196.60800170898438 -259.1985168457031 L -195.26800537109375 -260.3349914550781 L -193.5489959716797 -261.5369873046875 L -192.4798583984375 -262.1440124511719 L -191.7259979248047 -262.5719909667969 L -189.81300354003906 -263.4330139160156 L -187.82899475097656 -264.1109924316406 L -185.7899932861328 -264.60101318359375 L -183.71400451660156 -264.89898681640625 L -181.61900329589844 -265 L -179.52499389648438 -264.906005859375 L -177.44700622558594 -264.61700439453125 L -175.406005859375 -264.135009765625 L -173.41900634765625 -263.4649963378906 L -172.6439971923828 -263.135009765625 L -171.88999938964844 -262.760009765625 L -171.79283142089844 -262.70355224609375 L -170.84947204589844 -262.1553955078125 L -170.83102416992188 -262.1440124511719 L -169.0677490234375 -261.0544738769531 L -168.9320068359375 -260.9700012207031 L -167.31199645996094 -259.7449951171875 L -165.82443237304688 -258.3902282714844 L -165.81100463867188 -258.37799072265625 L -164.43899536132812 -256.8800048828125 L -164.3699493408203 -256.8047180175781 L -163.83999633789062 -256.24285888671875 L -163.58360290527344 -255.9709930419922 L -163.3455047607422 -255.7185516357422 L -163.02935791015625 -255.42178344726562 L -159.5469970703125 -252.15499877929688 L -156.11599731445312 -248.71600341796875 L -154 -246.44534301757812 L -152.80499267578125 -245.16299438476562 L -152.29200744628906 -244.4499969482422 L -151.947998046875 -243.64199829101562 L -151.78799438476562 -242.7790069580078 L -151.81900024414062 -241.90199279785156 L -152.04299926757812 -241.052001953125 L -152.44500732421875 -240.27200317382812 L -153.00799560546875 -239.5989990234375 L -153.7050018310547 -239.06300354003906 L -154 -238.92625427246094 L -154.50100708007812 -238.69400024414062 L -155.35800170898438 -238.5070037841797 L -163.83999633789062 -237.6160430908203 L -164.29730224609375 -237.5679931640625 L -168.90499877929688 -237.08399963378906 L -168.4918670654297 -233.15304565429688 L -168.0949249267578 -229.37600708007812 L -167.61399841308594 -224.8000030517578 L -163.83999633789062 -225.1970977783203 L -156.13299560546875 -226.00799560546875 L -155.44400024414062 -226.02000427246094 L -154.76499938964844 -225.9149932861328 L -154.11300659179688 -225.69500732421875 L -154 -225.63345336914062 L -153.50900268554688 -225.36599731445312 L -150.50399780273438 -223.2550048828125 L -147.62100219726562 -220.9810028076172 L -144.8699951171875 -218.5489959716797 L -142.25799560546875 -215.9669952392578 L -139.7949981689453 -213.24400329589844 L -139.5914306640625 -212.99200439453125 L -137.67193603515625 -210.6159210205078 L -137.48699951171875 -210.38699340820312 L -135.34300231933594 -207.40699768066406 L -133.3679962158203 -204.31100463867188 L -131.56900024414062 -201.11000061035156 L -131.07200622558594 -200.09756469726562 L -129.9510040283203 -197.81399536132812 L -129.4403533935547 -196.60800170898438 L -128.5189971923828 -194.4320068359375 L -127.27899932861328 -190.9759979248047 L -126.23300170898438 -187.45599365234375 L -125.38600158691406 -183.88299560546875 L -124.73799896240234 -180.26800537109375 L -124.29399871826172 -176.62399291992188 L -124.0530014038086 -172.95899963378906 L -124.01699829101562 -169.28799438476562 L -124.18599700927734 -165.61900329589844 L -124.3681869506836 -163.83999633789062 L -124.55999755859375 -161.9669952392578 L -125.33699798583984 -158.35499572753906 L -125.93199920654297 -154.7100067138672 L -126.34200286865234 -151.03799438476562 L -126.56700134277344 -147.3520050048828 L -126.60800170898438 -143.6580047607422 L -126.55979919433594 -142.43951416015625 L -126.46199798583984 -139.9669952392578 L -126.13099670410156 -136.28799438476562 L -125.61499786376953 -132.6300048828125 L -125.31474304199219 -131.07200622558594 L -124.91600036621094 -129.0030059814453 L -124.03700256347656 -125.41500091552734 L -123.8759994506836 -124.49299621582031 L -123.88911437988281 -123.67465209960938 L -123.89099884033203 -123.55699920654297 L -124.0790023803711 -122.64099884033203 L -124.43499755859375 -121.7760009765625 L -124.94599914550781 -120.99099731445312 L -125.59400177001953 -120.31600189208984 L -126.35700225830078 -119.77400207519531 L -127.20800018310547 -119.38300323486328 L -128.11599731445312 -119.15799713134766 L -129.0500030517578 -119.1050033569336 L -129.97799682617188 -119.22799682617188 L -130.875 -119.47100067138672 L -131.07200622558594 -119.54147338867188 L -131.75 -119.78399658203125 L -132.5989990234375 -120.16400146484375 L -133.57899475097656 -120.73999786376953 L -134.46800231933594 -121.44999694824219 L -135.2480010986328 -122.27899932861328 L -135.9010009765625 -123.20999908447266 L -136.95199584960938 -124.95999908447266 L -137.35400390625 -125.79499816894531 L -137.59500122070312 -126.69100189208984 L -137.66600036621094 -127.61599731445312 L -137.56500244140625 -128.53799438476562 L -137.1092987060547 -131.07200622558594 L -136.86399841308594 -132.43600463867188 L -136.35400390625 -136.36399841308594 L -136.03500366210938 -140.31100463867188 L -135.906005859375 -144.27000427246094 L -135.9709930419922 -148.22999572753906 L -136.2270050048828 -152.1820068359375 L -136.6750030517578 -156.11700439453125 L -137.31300354003906 -160.0260009765625 L -138.1273956298828 -163.83999633789062 L -138.13999938964844 -163.8990020751953 L -139.1540069580078 -167.7259979248047 L -140.3509979248047 -171.5019989013672 L -141.73199462890625 -175.21400451660156 L -143.29100036621094 -178.85499572753906 L -143.9566650390625 -180.2239990234375 L -145.0229949951172 -182.41700744628906 L -146.92799377441406 -185.88900756835938 L -148.9969940185547 -189.26499938964844 L -151.22799682617188 -192.53700256347656 L -151.45599365234375 -192.9499969482422 L -151.58099365234375 -193.4040069580078 L -151.5837860107422 -193.48587036132812 L -151.5970001220703 -193.875 L -151.50100708007812 -194.33599853515625 L -151.302001953125 -194.76199340820312 L -151.0070037841797 -195.1300048828125 L -150.63400268554688 -195.41799926757812 L -148.6534423828125 -196.60800170898438 L -147.45599365234375 -197.3274688720703 L -142.54200744628906 -200.27999877929688 L -145.81300354003906 -205.7239990234375 L -147.45599365234375 -204.73672485351562 L -154 -200.80447387695312 L -155.19400024414062 -200.08700561523438 L -155.6060028076172 -199.8990020751953 L -156.05099487304688 -199.8090057373047 L -156.1705322265625 -199.81216430664062 L -156.50399780273438 -199.8209991455078 L -156.8873291015625 -199.92031860351562 L -156.94400024414062 -199.93499755859375 L -157.34500122070312 -200.14500427246094 L -157.69000244140625 -200.4409942626953 L -160.28500366210938 -203.11399841308594 L -163 -205.66600036621094 L -163.83999633789062 -206.38600158691406 L -165.8280029296875 -208.08999633789062 L -168.76400756835938 -210.38400268554688 L -171.802001953125 -212.54200744628906 L -174.9340057373047 -214.5570068359375 L -178.156005859375 -216.4290008544922 L -181.45899963378906 -218.1510009765625 L -184.83799743652344 -219.7209930419922 L -187.02337646484375 -220.61656188964844 L -188.39100646972656 -221.177001953125 L -188.9239959716797 -221.3769989013672 L -190.87100219726562 -222.156005859375 L -192.73699951171875 -223.11300659179688 L -194.5050048828125 -224.24099731445312 L -196.16000366210938 -225.5290069580078 M -173.3385467529297 -142.8842010498047 L -174.3979949951172 -142.91000366210938 L -174.4049530029297 -142.9095458984375 L -174.8560028076172 -142.8800048828125 L -172.03199768066406 -141.52005004882812 L -167.34719848632812 -139.26400756835938 L -166.9219970703125 -139.05923461914062 L -166.91952514648438 -139.05804443359375 L -165.86338806152344 -138.5494384765625 L -163.83999633789062 -137.57504272460938 L -163.32713317871094 -137.32806396484375 L -163.32699584960938 -137.3280029296875 L -163.32180786132812 -137.5066680908203 L -163.26931762695312 -139.26400756835938 L -163.2689666748047 -139.27597045898438 L -163.26837158203125 -139.29574584960938 L -163.2686004638672 -139.32992553710938 L -163.26400756835938 -140.031005859375 L -163.32400512695312 -140.11000061035156 L -163.83999633789062 -140.33187866210938 L -164.53799438476562 -140.6320037841797 L -167.03700256347656 -141.59100341796875 L -169.21600341796875 -142.2530059814453 L -171.20278930664062 -142.67111206054688 L -171.20700073242188 -142.6719970703125 L -172.00665283203125 -142.76780700683594 L -172.03199768066406 -142.77085876464844 L -172.12579345703125 -142.78213500976562 L -173.2064208984375 -142.87979125976562 L -173.21925354003906 -142.88136291503906 L -173.3385467529297 -142.8842010498047 M -158.3675079345703 -64.21072387695312 L -158.30999755859375 -64.16300201416016 L -157.83399963378906 -63.91999816894531 L -156.9980010986328 -63.694000244140625 L -156.09100341796875 -63.64799880981445 L -155.6479949951172 -63.72847366333008 L -154.96800231933594 -63.85200119018555 L -154.00900268554688 -64.33300018310547 L -153.27000427246094 -65.05899810791016 L -153.00062561035156 -65.53600311279297 L -152.86000061035156 -65.78500366210938 L -152.6219940185547 -66.61900329589844 L -152.5659942626953 -67.37200164794922 L -152.57745361328125 -67.58399963378906 L -152.59654235839844 -67.93704223632812 L -152.59800720214844 -67.96399688720703 L -152.78900146484375 -68.79199981689453 L -153.13499450683594 -69.51799774169922 L -153.22752380371094 -69.63200378417969 L -153.62600708007812 -70.12300109863281 L -154.2519989013672 -70.59400177001953 L -154.70899963378906 -70.81300354003906 L -155.32200622558594 -70.99800109863281 L -155.6479949951172 -71.04143524169922 L -156.0050048828125 -71.08899688720703 L -156.75 -71.0790023803711 L -157.4010009765625 -70.95500183105469 L -157.96800231933594 -70.73600006103516 L -158.53399658203125 -70.34600067138672 L -158.11195373535156 -69.63200378417969 L -158.04354858398438 -69.51626586914062 L -157.88653564453125 -69.25064086914062 L -157.8040008544922 -69.11100006103516 L -157.18600463867188 -69.41200256347656 L -156.65199279785156 -69.53500366210938 L -156.1320037841797 -69.54199981689453 L -155.6479949951172 -69.44252014160156 L -155.62600708007812 -69.43800354003906 L -155.18600463867188 -69.22000122070312 L -154.8300018310547 -68.90899658203125 L -154.56399536132812 -68.51499938964844 L -154.39300537109375 -68.04499816894531 L -154.3287353515625 -67.58399963378906 L -154.3179931640625 -67.50700378417969 L -154.406005859375 -66.69499969482422 L -154.73800659179688 -66.01499938964844 L -155.23899841308594 -65.54199981689453 L -155.2530975341797 -65.53600311279297 L -155.6479949951172 -65.36795806884766 L -155.89700317382812 -65.26200103759766 L -156.41600036621094 -65.19200134277344 L -156.94900512695312 -65.23200225830078 L -157.5050048828125 -65.4010009765625 L -157.74765014648438 -65.53600311279297 L -158.06399536132812 -65.71199798583984 L -158.15371704101562 -65.53600311279297 L -158.25857543945312 -65.33027648925781 L -158.47030639648438 -64.91492462158203 L -158.69200134277344 -64.4800033569336 L -158.3675079345703 -64.21072387695312 M -210.94200134277344 -66.31999969482422 L -210.94200134277344 -65.53600311279297 L -210.94200134277344 -63.797000885009766 L -209.29600524902344 -63.792999267578125 L -209.2938232421875 -65.53600311279297 L -209.29286193847656 -66.311767578125 L -209.28700256347656 -71.00199890136719 L -212.20599365234375 -71.00900268554688 L -212.99200439453125 -70.83377075195312 L -213.13900756835938 -70.8010025024414 L -213.80499267578125 -70.37799835205078 L -214.25799560546875 -69.6719970703125 L -214.40699768066406 -68.72200012207031 L -214.26499938964844 -67.83399963378906 L -213.83200073242188 -67.11299896240234 L -213.2689971923828 -66.67900085449219 L -213.19700622558594 -66.63899993896484 L -214.01266479492188 -65.53600311279297 L -215.29200744628906 -63.805999755859375 L -213.2949981689453 -63.80099868774414 L -212.99200439453125 -64.23716735839844 L -212.0897216796875 -65.53600311279297 L -211.54299926757812 -66.322998046875 L -210.94200134277344 -66.31999969482422 M -128.90943908691406 -50.81040954589844 L -131.07200622558594 -51.12129211425781 L -138.2209930419922 -52.14899826049805 L -147.45599365234375 -53.23310852050781 L -148.11099243164062 -53.310001373291016 L -158.0290069580078 -54.2140007019043 L -163.83999633789062 -54.59177017211914 L -167.96600341796875 -54.86000061035156 L -177.91700744628906 -55.24800109863281 L -180.2239990234375 -55.27788543701172 L -187.875 -55.37699890136719 L -196.60800170898438 -55.26387023925781 L -197.83299255371094 -55.24800109863281 L -207.78399658203125 -54.86000061035156 L -212.99200439453125 -54.52143096923828 L -217.7209930419922 -54.2140007019043 L -220.10597229003906 -53.99661636352539 L -227.63900756835938 -53.310001373291016 L -229.37600708007812 -53.1060905456543 L -237.5290069580078 -52.14899826049805 L -247.38600158691406 -50.731998443603516 L -257.2030029296875 -49.058998107910156 L -262.1440124511719 -48.08455276489258 L -266.9739990234375 -47.13199996948242 L -276.6910095214844 -44.95100021362305 L -277.6080017089844 -44.770999908447266 L -278.5360107421875 -44.6619987487793 L -279.4700012207031 -44.625 L -279.6859436035156 -44.625 L -286.04998779296875 -44.625 L -287.75799560546875 -44.74700164794922 L -289.4309997558594 -45.111000061035156 L -291.0350036621094 -45.709999084472656 L -292.5379943847656 -46.529998779296875 L -293.9079895019531 -47.555999755859375 L -295.1189880371094 -48.766998291015625 L -296.1449890136719 -50.13800048828125 L -296.96600341796875 -51.63999938964844 L -297.5639953613281 -53.24399948120117 L -297.9280090332031 -54.91699981689453 L -298.04998779296875 -56.625 L -298.04998779296875 -65.53600311279297 L -298.04998779296875 -86.32499694824219 L -297.98199462890625 -86.84200286865234 L -297.7820129394531 -87.32499694824219 L -297.4639892578125 -87.73899841308594 L -297.04998779296875 -88.05699920654297 L -296.5679931640625 -88.25700378417969 L -296.04998779296875 -88.32499694824219 L -294.9119873046875 -88.32499694824219 L -290.04998779296875 -88.32499694824219 L -289.5320129394531 -88.25700378417969 L -289.04998779296875 -88.05699920654297 L -288.635986328125 -87.73899841308594 L -288.3179931640625 -87.32499694824219 L -288.1180114746094 -86.84200286865234 L -288.04998779296875 -86.32499694824219 L -288.04998779296875 -78.625 L -287.0372314453125 -78.625 L -284.71551513671875 -78.625 L -282.7127685546875 -78.625 L -281.70001220703125 -78.625 L -281.70001220703125 -86.32499694824219 L -281.6319885253906 -86.84200286865234 L -281.4320068359375 -87.32499694824219 L -281.114013671875 -87.73899841308594 L -280.70001220703125 -88.05699920654297 L -280.2179870605469 -88.25700378417969 L -279.70001220703125 -88.32499694824219 L -278.52801513671875 -88.32499694824219 L -273.3473815917969 -88.32499694824219 L -272.1650085449219 -88.32499694824219 L -263.6719970703125 -86.09500122070312 L -262.1440124511719 -85.7428207397461 L -255.11599731445312 -84.12300109863281 L -246.50399780273438 -82.41100311279297 L -237.843994140625 -80.95899963378906 L -229.37600708007812 -79.80059814453125 L -229.14500427246094 -79.76899719238281 L -220.41400146484375 -78.84300231933594 L -212.99200439453125 -78.2818603515625 L -211.6580047607422 -78.18099975585938 L -202.88699340820312 -77.78299713134766 L -196.60800170898438 -77.6878890991211 L -194.10699462890625 -77.6500015258789 L -185.3280029296875 -77.78299713134766 L -180.2239990234375 -78.01457977294922 L -176.55599975585938 -78.18099975585938 L -167.80099487304688 -78.84300231933594 L -163.83999633789062 -79.26309967041016 L -159.07000732421875 -79.76899719238281 L -150.3699951171875 -80.95899963378906 L -147.45599365234375 -81.44763946533203 L -141.71099853515625 -82.41100311279297 L -133.0989990234375 -84.12300109863281 L -131.07200622558594 -84.5901870727539 L -124.54299926757812 -86.09500122070312 L -116.05000305175781 -88.32499694824219 L -106.05000305175781 -88.32499694824219 L -105.53199768066406 -88.25700378417969 L -105.05000305175781 -88.05699920654297 L -104.63600158691406 -87.73899841308594 L -104.31800079345703 -87.32499694824219 L -104.11799621582031 -86.84200286865234 L -104.05000305175781 -86.32499694824219 L -104.05000305175781 -78.625 L -103.0372314453125 -78.625 L -100.71551513671875 -78.625 L -98.30400085449219 -78.625 L -97.69999694824219 -78.625 L -97.69999694824219 -86.32499694824219 L -97.63200378417969 -86.84200286865234 L -97.43199920654297 -87.32499694824219 L -97.11399841308594 -87.73899841308594 L -96.69999694824219 -88.05699920654297 L -96.21800231933594 -88.25700378417969 L -95.69999694824219 -88.32499694824219 L -79.69999694824219 -88.32499694824219 L -79.18199920654297 -88.25700378417969 L -78.69999694824219 -88.05699920654297 L -78.28600311279297 -87.73899841308594 L -77.96800231933594 -87.32499694824219 L -77.76799774169922 -86.84200286865234 L -77.69999694824219 -86.32499694824219 L -77.69999694824219 -78.625 L -77.69999694824219 -65.53600311279297 L -77.69999694824219 -56.625 L -77.8219985961914 -54.91699981689453 L -78.18599700927734 -53.24399948120117 L -78.78399658203125 -51.63999938964844 L -79.6050033569336 -50.13800048828125 L -80.63099670410156 -48.766998291015625 L -81.84200286865234 -47.555999755859375 L -83.21199798583984 -46.529998779296875 L -84.71499633789062 -45.709999084472656 L -86.31900024414062 -45.111000061035156 L -87.99199676513672 -44.74700164794922 L -89.69999694824219 -44.625 L -96.27999877929688 -44.625 L -97.21399688720703 -44.6619987487793 L -98.14199829101562 -44.770999908447266 L -98.30400085449219 -44.802799224853516 L -99.05899810791016 -44.95100021362305 L -108.7760009765625 -47.13199996948242 L -118.5469970703125 -49.058998107910156 L -128.36399841308594 -50.731998443603516 L -128.90943908691406 -50.81040954589844 M -181.16786193847656 -234.4769287109375 L -180.2239990234375 -234.75050354003906 L -179.6044158935547 -234.9300994873047 L -179.47000122070312 -234.968994140625 L -179.46897888183594 -234.9693603515625 L -178.88699340820312 -235.17300415039062 L -180.2239990234375 -235.8778533935547 L -183.42991638183594 -237.5679931640625 L -184.93600463867188 -238.36199951171875 L -184.93792724609375 -238.36083984375 L -186.25518798828125 -237.5679931640625 L -187.05599975585938 -237.08599853515625 L -181.83099365234375 -234.33700561523438 L -181.77951049804688 -234.34786987304688 L -181.2571563720703 -234.4510498046875 L -181.16786193847656 -234.4769287109375 M -163.8326873779297 -132.99595642089844 L -163.79400634765625 -133.20599365234375 L -163.83999633789062 -133.2282257080078 L -166.4429931640625 -134.48599243164062 L -166.44749450683594 -134.4693145751953 L -166.59857177734375 -133.9469451904297 L -166.6295166015625 -133.8441925048828 L -166.912353515625 -132.9072723388672 L -166.92832946777344 -132.86270141601562 L -167.0959930419922 -132.4029998779297 L -167.0676727294922 -132.38925170898438 L -167.05067443847656 -132.38099670410156 L -167.01377868652344 -132.3630828857422 L -164.3543701171875 -131.07200622558594 L -164.31857299804688 -131.0546112060547 L -164.3070068359375 -131.0489959716797 L -164.3009033203125 -131.07200622558594 L -164.07669067382812 -131.91775512695312 L -164.06227111816406 -131.9691619873047 L -164.04039001464844 -132.06515502929688 L -163.83999633789062 -132.9591827392578 L -163.83700561523438 -132.97251892089844 L -163.8367919921875 -132.9735107421875 L -163.8326873779297 -132.99595642089844 M -186.01400756835938 -65.7490005493164 L -186.33595275878906 -65.53600311279297 L -186.5399932861328 -65.4010009765625 L -187.19500732421875 -65.2249984741211 L -187.64100646972656 -65.21399688720703 L -188.17799377441406 -65.33399963378906 L -188.41600036621094 -65.44964599609375 L -188.5937042236328 -65.53600311279297 L -188.60400390625 -65.54100036621094 L -188.63699340820312 -65.56700134277344 L -188.63699340820312 -66.35099792480469 L -188.41600036621094 -66.34970092773438 L -187.10400390625 -66.34200286865234 L -187.10400390625 -67.89700317382812 L -188.41600036621094 -67.89700317382812 L -188.63699340820312 -67.89700317382812 L -190.16629028320312 -67.89700317382812 L -190.1840057373047 -67.89700317382812 L -190.1840057373047 -65.53600311279297 L -190.1840057373047 -64.68000030517578 L -190.1230010986328 -64.62200164794922 L -189.37600708007812 -64.12200164794922 L -188.6280059814453 -63.83300018310547 L -188.41600036621094 -63.7946662902832 L -187.7209930419922 -63.66899871826172 L -187.20799255371094 -63.66600036621094 L -186.06399536132812 -63.85200119018555 L -185.5823516845703 -64.0727310180664 L -185.11700439453125 -64.28600311279297 L -184.7604522705078 -64.57030487060547 L -184.6580047607422 -64.6520004272461 L -184.2779998779297 -65.09600067138672 L -184.16073608398438 -65.29983520507812 L -184.02487182617188 -65.53600311279297 L -183.97999572753906 -65.61399841308594 L -183.77099609375 -66.1969985961914 L -183.7035369873047 -66.63603210449219 L -183.62899780273438 -67.12100219726562 L -183.6739959716797 -68.06500244140625 L -183.8979949951172 -68.9000015258789 L -184.28231811523438 -69.63200378417969 L -184.28599548339844 -69.63899993896484 L -184.77200317382812 -70.1989974975586 L -185.36700439453125 -70.63600158691406 L -185.80499267578125 -70.8479995727539 L -186.2894744873047 -70.98999786376953 L -186.4429931640625 -71.03500366210938 L -187.19900512695312 -71.11399841308594 L -188.38299560546875 -70.98999786376953 L -188.41600036621094 -70.97554779052734 L -189.36500549316406 -70.55999755859375 L -189.6320037841797 -70.36000061035156 L -189.25563049316406 -69.63200378417969 L -188.94700622558594 -69.03500366210938 L -188.90199279785156 -69.0770034790039 L -188.63699340820312 -69.23600006103516 L -188.41600036621094 -69.36859893798828 L -188.38699340820312 -69.38600158691406 L -187.71400451660156 -69.55500030517578 L -186.75999450683594 -69.47200012207031 L -186.08299255371094 -69.12300109863281 L -185.83700561523438 -68.87699890136719 L -185.48599243164062 -68.1969985961914 L -185.43670654296875 -67.89700317382812 L -185.38099670410156 -67.55799865722656 L -185.41900634765625 -66.89700317382812 L -185.60809326171875 -66.33322143554688 L -185.63499450683594 -66.25299835205078 L -186.01400756835938 -65.7490005493164 M -108.91500091552734 -142.2259979248047 L -108.45099639892578 -142.6999969482422 L -107.29199981689453 -143.45599365234375 L -106.8030014038086 -143.98399353027344 L -106.4540023803711 -144.61300659179688 L -106.26399993896484 -145.30799865722656 L -104.87799835205078 -155.93699645996094 L -103.83799743652344 -166.60499572753906 L -103.14299774169922 -177.302001953125 L -102.7959976196289 -188.01499938964844 L -102.7959976196289 -196.60800170898438 L -102.7959976196289 -198.73399353027344 L -103.14299774169922 -209.447998046875 L -103.83799743652344 -220.1439971923828 L -104.87799835205078 -230.81300354003906 L -106.26399993896484 -241.44200134277344 L -106.4540023803711 -242.13600158691406 L -106.8030014038086 -242.76600646972656 L -107.29199981689453 -243.29400634765625 L -108.45099639892578 -244.0500030517578 L -108.91500091552734 -244.5240020751953 L -109.26399993896484 -245.08799743652344 L -109.44927215576172 -245.62332153320312 L -109.48100280761719 -245.71499633789062 L -109.55400085449219 -246.375 L -109.55400085449219 -247.73199462890625 L -109.55400085449219 -253.4591522216797 L -109.55400085449219 -262.1440124511719 L -109.55400085449219 -278.52801513671875 L -109.55400085449219 -280.239013671875 L -114.68800354003906 -280.239013671875 L -131.07200622558594 -280.239013671875 L -204 -280.239013671875 L -245.33399963378906 -280.239013671875 L -245.33399963378906 -262.1440124511719 L -245.33399963378906 -131.07200622558594 L -245.33399963378906 -106.51000213623047 L -238.21600341796875 -106.51000213623047 L -131.07200622558594 -106.51000213623047 L -127.9000015258789 -106.51000213623047 L -127.9000015258789 -106.61000061035156 L -114.68800354003906 -106.61000061035156 L -109.55400085449219 -106.61000061035156 L -109.55400085449219 -113.95991516113281 L -109.55400085449219 -114.68800354003906 L -109.55400085449219 -119.1050033569336 L -109.55400085449219 -131.07200622558594 L -109.55400085449219 -140.375 L -109.48100280761719 -141.03399658203125 L -109.44879913330078 -141.12718200683594 L -109.26399993896484 -141.66200256347656 L -108.91500091552734 -142.2259979248047 M -184.943603515625 -234.212646484375 L -183.88600158691406 -234.14999389648438 L -183.8811492919922 -234.150146484375 L -183.42799377441406 -234.16400146484375 L -188.41600036621094 -236.78482055664062 L -189.90658569335938 -237.5679931640625 L -191.22792053222656 -238.26226806640625 L -191.228759765625 -238.26271057128906 L -192.2625732421875 -238.80589294433594 L -194.75592041015625 -240.115966796875 L -194.75599670410156 -240.11599731445312 L -194.7674102783203 -239.9375762939453 L -194.8811492919922 -238.17245483398438 L -194.882568359375 -238.15032958984375 L -194.88351440429688 -238.11614990234375 L -194.90660095214844 -237.5679931640625 L -194.91299438476562 -237.41600036621094 L -194.8560028076172 -237.3350067138672 L -193.66099548339844 -236.77099609375 L -191.1959991455078 -235.72500610351562 L -189.04200744628906 -234.98800659179688 L -188.41600036621094 -234.83340454101562 L -187.54205322265625 -234.61756896972656 L -187.0736541748047 -234.50189208984375 L -187.0659942626953 -234.5 L -186.2709503173828 -234.37655639648438 L -186.15245056152344 -234.35804748535156 L -185.07550048828125 -234.22169494628906 L -185.062744140625 -234.2196502685547 L -184.943603515625 -234.212646484375 M -174.33120727539062 -251.99234008789062 L -178.1053466796875 -253.95199584960938 L -180.2239990234375 -255.05206298828125 L -181.99378967285156 -255.9709930419922 L -183.60000610351562 -256.80499267578125 L -183.75244140625 -256.7021789550781 L -184.8361358642578 -255.9709930419922 L -185.627197265625 -255.43727111816406 L -185.73594665527344 -255.36184692382812 L -186.953857421875 -254.50967407226562 L -186.95700073242188 -254.5070037841797 L -185.89828491210938 -253.95199584960938 L -184.32000732421875 -253.1246337890625 L -180.2239990234375 -250.97744750976562 L -173.2694854736328 -247.33177185058594 L -172.36077880859375 -246.85540771484375 L -172.36000061035156 -246.85499572753906 L -172.322998046875 -250.80999755859375 L -172.3219757080078 -250.81700134277344 L -172.31092834472656 -250.91004943847656 L -172.3125762939453 -250.91470336914062 L -172.3218231201172 -250.93641662597656 L -172.32533264160156 -250.94468688964844 L -172.33099365234375 -250.95799255371094 L -173.44387817382812 -251.53195190429688 L -174.33120727539062 -251.99234008789062 M -98.64399719238281 -296.1029968261719 L -98.22695922851562 -294.9119873046875 L -98.19999694824219 -294.8349914550781 L -98.05000305175781 -293.5 L -98.05000305175781 -262.1440124511719 L -98.05000305175781 -211.4392852783203 L -98.05000305175781 -196.60800170898438 L -98.05000305175781 -131.07200622558594 L -98.05000305175781 -98.30400085449219 L -98.05000305175781 -97.5 L -98.19999694824219 -96.16500091552734 L -98.64399719238281 -94.89700317382812 L -99.35900115966797 -93.75900268554688 L -100.30899810791016 -92.80899810791016 L -101.4469985961914 -92.09400177001953 L -102.71499633789062 -91.6510009765625 L -104.05000305175781 -91.5 L -131.07200622558594 -91.5 L -245.33399963378906 -91.5 L -262.1440124511719 -91.5 L -292.04998779296875 -91.5 L -293.385009765625 -91.6510009765625 L -294.65301513671875 -92.09400177001953 L -295.7909851074219 -92.80899810791016 L -296.7409973144531 -93.75900268554688 L -297.45599365234375 -94.89700317382812 L -297.8999938964844 -96.16500091552734 L -298.04998779296875 -97.5 L -298.04998779296875 -98.30400085449219 L -298.04998779296875 -131.07200622558594 L -298.04998779296875 -262.1440124511719 L -298.04998779296875 -293.5 L -297.8999938964844 -294.8349914550781 L -297.873046875 -294.9119873046875 L -297.45599365234375 -296.1029968261719 L -296.7409973144531 -297.2409973144531 L -295.7909851074219 -298.1910095214844 L -294.65301513671875 -298.906005859375 L -293.385009765625 -299.3489990234375 L -292.04998779296875 -299.5 L -262.1440124511719 -299.5 L -245.33399963378906 -299.5 L -131.07200622558594 -299.5 L -104.05000305175781 -299.5 L -102.71499633789062 -299.3489990234375 L -101.4469985961914 -298.906005859375 L -100.30899810791016 -298.1910095214844 L -99.35900115966797 -297.2409973144531 L -98.64399719238281 -296.1029968261719 M -178.65000915527344 -141.98153686523438 L -178.7830047607422 -141.93800354003906 L -178.78404235839844 -141.93759155273438 L -179.35899353027344 -141.71400451660156 L -174.2902374267578 -139.26400756835938 L -173.20199584960938 -138.73800659179688 L -173.19949340820312 -138.73963928222656 L -172.393310546875 -139.26400756835938 L -172.03199768066406 -139.49900817871094 L -171.1280059814453 -140.08700561523438 L -172.03199768066406 -140.52285766601562 L -176.4459991455078 -142.6510009765625 L -176.4970245361328 -142.63839721679688 L -177.0147705078125 -142.51771545410156 L -177.10311889648438 -142.48875427246094 L -178.65000915527344 -141.98153686523438 M -167.31365966796875 -134.7498016357422 L -167.27728271484375 -134.87405395507812 L -167.27499389648438 -134.88499450683594 L -167.8611602783203 -135.16799926757812 L -170.4364013671875 -136.4113311767578 L -170.44400024414062 -136.4149932861328 L -170.44200134277344 -136.31900024414062 L -170.51170349121094 -135.16799926757812 L -170.51400756835938 -135.1300048828125 L -170.7530059814453 -134.15699768066406 L -167.93600463867188 -132.79702758789062 L -167.90899658203125 -132.78399658203125 L -167.81639099121094 -133.0326690673828 L -167.76600646972656 -133.16799926757812 L -167.31365966796875 -134.7498016357422 M -179.04400634765625 -68.1760025024414 L -180.2239990234375 -68.1760025024414 L -181.3560028076172 -68.1760025024414 L -181.36099243164062 -66.63300323486328 L -180.2239990234375 -66.63153076171875 L -179.04400634765625 -66.62999725341797 L -179.04400634765625 -65.53600311279297 L -179.04400634765625 -65.3270034790039 L -180.2239990234375 -65.3270034790039 L -181.77499389648438 -65.3270034790039 L -181.77499389648438 -63.90316390991211 L -181.77499389648438 -63.779998779296875 L -180.2239990234375 -63.779998779296875 L -177.39300537109375 -63.779998779296875 L -177.39300537109375 -63.793556213378906 L -177.39300537109375 -65.3270034790039 L -177.39300537109375 -65.53600311279297 L -177.39300537109375 -66.62786102294922 L -177.39300537109375 -68.1760025024414 L -177.39300537109375 -69.44400024414062 L -177.39300537109375 -69.63200378417969 L -177.39300537109375 -70.81185150146484 L -177.39300537109375 -70.83537292480469 L -177.39300537109375 -70.98999786376953 L -180.2239990234375 -70.98999786376953 L -181.67100524902344 -70.98999786376953 L -181.67100524902344 -69.63630676269531 L -181.67100524902344 -69.63200378417969 L -181.67100524902344 -69.44400024414062 L -180.2239990234375 -69.44400024414062 L -179.04400634765625 -69.44400024414062 L -179.04400634765625 -68.1760025024414 M -167.55723571777344 -131.32371520996094 L -167.68780517578125 -131.07200622558594 L -167.93600463867188 -130.59356689453125 L -168.35964965820312 -129.77691650390625 L -168.3712158203125 -129.75628662109375 L -168.44400024414062 -129.63099670410156 L -167.93600463867188 -129.3865509033203 L -165.4929962158203 -128.21099853515625 L -165.2899932861328 -128.5850067138672 L -164.8284454345703 -129.6315460205078 L -164.7737274169922 -129.75808715820312 L -164.59500122070312 -130.19200134277344 L -166.4217987060547 -131.07200622558594 L -167.25323486328125 -131.47251892089844 L -167.43899536132812 -131.56199645996094 L -167.4896697998047 -131.45513916015625 L -167.55723571777344 -131.32371520996094 M -171.91799926757812 -132.02499389648438 L -171.91822814941406 -132.02476501464844 L -172.03199768066406 -131.90589904785156 L -172.38800048828125 -131.53399658203125 L -172.37399291992188 -131.5260009765625 L -172.03199768066406 -131.3612060546875 L -171.43179321289062 -131.07200622558594 L -169.26100158691406 -130.0260009765625 L -169.13299560546875 -130.22500610351562 L -168.69357299804688 -131.07200622558594 L -168.30499267578125 -131.8209991455078 L -168.2480010986328 -131.95199584960938 L -170.8050537109375 -133.18768310546875 L -170.976806640625 -133.27069091796875 L -171.0796661376953 -133.3203887939453 L -171.08299255371094 -133.32200622558594 L -171.51046752929688 -132.5794677734375 L -171.5484161376953 -132.51419067382812 L -171.89019775390625 -132.0618438720703 L -171.91799926757812 -132.02499389648438 M -171.2899932861328 -66.2959976196289 L -171.29270935058594 -65.53600311279297 L -171.2989959716797 -63.77299880981445 L -169.6479949951172 -63.77299880981445 L -169.6455535888672 -65.53600311279297 L -169.63987731933594 -69.63200378417969 L -169.63800048828125 -70.9809799194336 L -169.63800048828125 -70.98200225830078 L -169.80186462402344 -70.98255157470703 L -171.2445526123047 -70.99636840820312 L -172.03199768066406 -70.97575378417969 L -172.72225952148438 -70.95767974853516 L -172.80799865722656 -70.95500183105469 L -173.6699981689453 -70.69599914550781 L -174.28500366210938 -70.21900177001953 L -174.59510803222656 -69.63200378417969 L -174.6490020751953 -69.52999877929688 L -174.7570037841797 -68.63200378417969 L -174.71299743652344 -68.1729965209961 L -174.55299377441406 -67.6510009765625 L -174.2760009765625 -67.197998046875 L -173.95799255371094 -66.88099670410156 L -173.5570068359375 -66.61100006103516 L -174.03541564941406 -65.96240234375 L -174.34994506835938 -65.53600311279297 L -174.5041046142578 -65.3270034790039 L -175.64300537109375 -63.78300094604492 L -175.145751953125 -63.779998779296875 L -173.6540069580078 -63.770999908447266 L -173.64100646972656 -63.78799819946289 L -172.42660522460938 -65.53600311279297 L -172.03199768066406 -66.10399627685547 L -171.89999389648438 -66.29399871826172 L -171.2899932861328 -66.2959976196289 M -167.3456573486328 -68.44974517822266 L -167.46099853515625 -67.81400299072266 L -167.4720001220703 -67.09500122070312 L -167.3679962158203 -66.40899658203125 L -167.0989990234375 -65.6709976196289 L -167.01873779296875 -65.53600311279297 L -166.79400634765625 -65.15799713134766 L -166.4040069580078 -64.70899963378906 L -165.447998046875 -64.04000091552734 L -164.79200744628906 -63.79600143432617 L -164.6643524169922 -63.77299880981445 L -164.06500244140625 -63.665000915527344 L -163.83999633789062 -63.66218566894531 L -163.4016876220703 -63.656707763671875 L -163.34400939941406 -63.656166076660156 L -163.34295654296875 -63.656158447265625 L -163.27020263671875 -63.668678283691406 L -162.39500427246094 -63.81700134277344 L -161.61199951171875 -64.14099884033203 L -160.94500732421875 -64.62000274658203 L -160.41799926757812 -65.23999786376953 L -160.27301025390625 -65.53600311279297 L -160.0330047607422 -66.0260009765625 L -159.83900451660156 -66.93900299072266 L -159.82899475097656 -67.64700317382812 L -160.0399932861328 -68.69499969482422 L -160.52000427246094 -69.60900115966797 L -160.5405731201172 -69.63200378417969 L -160.6139373779297 -69.71402740478516 L -160.98599243164062 -70.12999725341797 L -161.5489959716797 -70.54900360107422 L -162.19400024414062 -70.85700225830078 L -162.90499877929688 -71.04299926757812 L -163.55999755859375 -71.0999984741211 L -163.83999633789062 -71.08129119873047 L -164.41299438476562 -71.04299926757812 L -165.16700744628906 -70.84700012207031 L -165.83799743652344 -70.52100372314453 L -166.41299438476562 -70.0770034790039 L -166.7821044921875 -69.63200378417969 L -166.875 -69.5199966430664 L -167.05372619628906 -69.20677185058594 L -167.07167053222656 -69.17527770996094 L -167.09002685546875 -69.12669372558594 L -167.33599853515625 -68.50299835205078 L -167.3456573486328 -68.44974517822266 M -185.98500061035156 -245.11500549316406 L -185.4980010986328 -245.58999633789062 L -185.51199340820312 -245.59800720214844 L -185.82008361816406 -245.75999450683594 L -188.41600036621094 -247.12501525878906 L -188.57000732421875 -247.20599365234375 L -188.7050018310547 -247.01100158691406 L -189.4108428955078 -245.75999450683594 L -189.58799743652344 -245.4459991455078 L -189.64999389648438 -245.3159942626953 L -188.41600036621094 -244.66578674316406 L -187.13668823242188 -243.99168395996094 L -186.96693420410156 -243.90223693847656 L -186.866455078125 -243.8492889404297 L -186.86399841308594 -243.84800720214844 L -186.41073608398438 -244.5748748779297 L -186.37059020996094 -244.63880920410156 L -186.01405334472656 -245.0791778564453 L -185.98500061035156 -245.11500549316406 M -188.44766235351562 -248.87051391601562 L -188.41600036621094 -248.9081268310547 L -188.33758544921875 -249.0012969970703 L -187.61495971679688 -249.8560028076172 L -187.38499450683594 -250.1280059814453 L -188.41600036621094 -250.66970825195312 L -189.58999633789062 -251.28656005859375 L -190.2760009765625 -251.64700317382812 L -190.7239990234375 -251.18299865722656 L -191.19845581054688 -250.61181640625 L -191.26907348632812 -250.5267791748047 L -191.75550842285156 -249.91506958007812 L -191.76699829101562 -249.8990020751953 L -191.68527221679688 -249.8560028076172 L -188.89834594726562 -248.3896026611328 L -188.86817932128906 -248.37371826171875 L -188.86300659179688 -248.37100219726562 L -188.85670471191406 -248.37855529785156 L -188.78944396972656 -248.45779418945312 L -188.59414672851562 -248.69363403320312 L -188.44766235351562 -248.87051391601562 M -190.68161010742188 -242.5527801513672 L -190.72232055664062 -242.42987060546875 L -190.72500610351562 -242.41900634765625 L -189.2914276123047 -241.66400146484375 L -188.41600036621094 -241.2029571533203 L -187.61892700195312 -240.78317260742188 L -187.61099243164062 -240.7790069580078 L -187.61000061035156 -240.87600708007812 L -187.53817749023438 -241.62258911132812 L -187.53419494628906 -241.66400146484375 L -187.49600219726562 -242.06100463867188 L -187.2239990234375 -243.0260009765625 L -188.41600036621094 -243.653564453125 L -190.01800537109375 -244.4969940185547 L -190.11880493164062 -244.25210571289062 L -190.1739959716797 -244.1179962158203 L -190.68161010742188 -242.5527801513672 M -187.5387725830078 -247.67474365234375 L -187.30540466308594 -247.55191040039062 L -186.41494750976562 -247.08352661132812 L -185.55833435058594 -246.63294982910156 L -184.7010040283203 -246.1820068359375 L -184.56300354003906 -246.26100158691406 L -183.76426696777344 -246.63226318359375 L -183.69253540039062 -246.66494750976562 L -182.853271484375 -246.88143920898438 L -182.78500366210938 -246.8990020751953 L -182.0970001220703 -246.96499633789062 L -181.33200073242188 -246.94400024414062 L -186.55299377441406 -249.6909942626953 L -186.57559204101562 -249.66754150390625 L -186.7967071533203 -249.44459533691406 L -186.84812927246094 -249.38455200195312 L -187.81008911132812 -248.26168823242188 L -187.89300537109375 -248.1649932861328 L -188.05499267578125 -247.9499969482422 L -187.56948852539062 -247.69113159179688 L -187.56106567382812 -247.6864776611328 L -187.5387725830078 -247.67474365234375 M -205.1820068359375 -65.30500030517578 L -204.8000030517578 -65.30473327636719 L -202.33399963378906 -65.3030014038086 L -201.74000549316406 -63.79399871826172 L -200.07899475097656 -63.79899978637695 L -200.6741180419922 -65.23326873779297 L -200.79974365234375 -65.53600311279297 L -203.06900024414062 -71.00499725341797 L -204.5449981689453 -71.0009994506836 L -204.8000030517578 -70.38865661621094 L -206.50355529785156 -66.29784393310547 L -206.82081604003906 -65.53600311279297 L -207.53500366210938 -63.82099914550781 L -207.5449981689453 -63.79399871826172 L -205.77999877929688 -63.79399871826172 L -205.1820068359375 -65.30500030517578 M -183.86683654785156 -251.88694763183594 L -184.31455993652344 -251.58753967285156 L -184.32000732421875 -251.58334350585938 L -184.3603515625 -251.55218505859375 L -185.4016571044922 -250.74826049804688 L -185.49000549316406 -250.67999267578125 L -185.86900329589844 -250.35000610351562 L -185.86900329589844 -250.34300231933594 L -184.9435577392578 -249.8560028076172 L -180.2239990234375 -247.37242126464844 L -179.44229125976562 -246.9610595703125 L -178.381103515625 -246.4027099609375 L -177.15939331054688 -245.75999450683594 L -172.39199829101562 -243.2519989013672 L -172.37026977539062 -245.75999450683594 L -172.36900329589844 -245.906005859375 L -172.41700744628906 -245.98199462890625 L -172.9199981689453 -246.25 L -180.2239990234375 -250.04534912109375 L -183.82400512695312 -251.91600036621094 L -183.86683654785156 -251.88694763183594 M -187.785400390625 -253.87271118164062 L -188.2108917236328 -253.53709411621094 L -188.21286010742188 -253.53553771972656 L -188.41600036621094 -253.35401916503906 L -189.48512268066406 -252.39869689941406 L -189.58999633789062 -252.30499267578125 L -189.58999633789062 -252.30099487304688 L -188.41600036621094 -251.68267822265625 L -186.8059844970703 -250.834716796875 L -186.72300720214844 -250.79100036621094 L -186.72198486328125 -250.7918701171875 L -185.72500610351562 -251.64599609375 L -184.73899841308594 -252.38600158691406 L -187.6649932861328 -253.90699768066406 L -187.7449951171875 -253.90499877929688 L -187.785400390625 -253.87271118164062 M -168.93399047851562 -128.8642120361328 L -168.99847412109375 -128.78221130371094 L -169.3255157470703 -128.35751342773438 L -169.4310302734375 -128.2229461669922 L -170.343994140625 -127.06400299072266 L -170.16122436523438 -126.97599792480469 L -168.06399536132812 -125.96622467041016 L -167.4010009765625 -125.64700317382812 L -166.97000122070312 -126.1259994506836 L -166.5158233642578 -126.71284484863281 L -166.44818115234375 -126.80032348632812 L -166.3182830810547 -126.97599792480469 L -165.98294067382812 -127.4295425415039 L -165.9720001220703 -127.44599914550781 L -167.93600463867188 -128.39344787597656 L -168.8943328857422 -128.8557586669922 L -168.92201232910156 -128.86911010742188 L -168.92799377441406 -128.8719940185547 L -168.9330596923828 -128.86541748046875 L -168.93399047851562 -128.8642120361328 M -171.9499969482422 -125.48899841308594 L -172.03199768066406 -125.4229736328125 L -172.91000366210938 -124.71600341796875 L -172.03199768066406 -124.29793548583984 L -169.9320068359375 -123.2979965209961 L -169.8520050048828 -123.302001953125 L -169.8127899169922 -123.33562469482422 L -169.3972930908203 -123.68754577636719 L -169.3542938232422 -123.72875213623047 L -168.1655731201172 -124.86767578125 L -168.06399536132812 -124.96499633789062 L -168.06399536132812 -124.97000122070312 L -170.8961639404297 -126.33755493164062 L -170.98199462890625 -126.37899780273438 L -170.98284912109375 -126.37821197509766 L -171.9499969482422 -125.48899841308594 M -173.7982635498047 -125.18354797363281 L -173.36158752441406 -125.49861907958984 L -173.3141632080078 -125.53795623779297 L -172.30398559570312 -126.37566375732422 L -172.21800231933594 -126.4469985961914 L -172.03199768066406 -126.62083435058594 L -171.8509979248047 -126.79000091552734 L -171.8509979248047 -126.7969970703125 L -172.03199768066406 -126.88431549072266 L -172.22206115722656 -126.97599792480469 L -178.39193725585938 -129.9523162841797 L -178.5304718017578 -130.01913452148438 L -179.47203063964844 -130.4732666015625 L -180.2239990234375 -130.8358917236328 L -180.71359252929688 -131.07200622558594 L -185.5679931640625 -133.41299438476562 L -185.50625610351562 -131.07200622558594 L -185.5048370361328 -131.01812744140625 L -185.4980010986328 -130.75900268554688 L -185.447998046875 -130.68499755859375 L -184.93499755859375 -130.43499755859375 L -180.2239990234375 -128.19223022460938 L -177.6692657470703 -126.97599792480469 L -173.83999633789062 -125.15299987792969 L -173.83517456054688 -125.15653228759766 L -173.7982635498047 -125.18354797363281 M -183.32394409179688 -124.74553680419922 L -180.2239990234375 -123.27082061767578 L -179.40248107910156 -122.87999725341797 L -173.89300537109375 -120.25900268554688 L -173.7442626953125 -120.36711120605469 L -171.91555786132812 -121.69648742675781 L -171.8095703125 -121.77570343017578 L -170.62115478515625 -122.67024230957031 L -170.6179962158203 -122.6729965209961 L -171.04881286621094 -122.87999725341797 L -172.03199768066406 -123.3523941040039 L -179.57363891601562 -126.97599792480469 L -180.2239990234375 -127.28848266601562 L -184.5610809326172 -129.3723602294922 L -185.4729766845703 -129.81051635742188 L -185.4739990234375 -129.81100463867188 L -185.3730010986328 -125.85700225830078 L -185.37379455566406 -125.84991455078125 L -185.38116455078125 -125.75594329833984 L -185.3792724609375 -125.75138092041016 L -185.3697967529297 -125.73157501220703 L -185.36514282226562 -125.72184753417969 L -185.35899353027344 -125.70899963378906 L -184.22677612304688 -125.17466735839844 L -183.32394409179688 -124.74553680419922 M -191.01722717285156 -241.11500549316406 L -191.20700073242188 -239.8280029296875 L -191.2182159423828 -239.7023162841797 L -191.24661254882812 -239.3839569091797 L -191.25 -239.34584045410156 L -191.24908447265625 -239.29885864257812 L -191.24899291992188 -239.2949981689453 L -188.41600036621094 -237.80079650878906 L -187.98599243164062 -237.57400512695312 L -185.86700439453125 -238.85000610351562 L -188.41600036621094 -240.1920623779297 L -190.94200134277344 -241.52200317382812 L -190.99635314941406 -241.24838256835938 L -191.00344848632812 -241.21185302734375 L -191.01722717285156 -241.11500549316406 M -163.6507568359375 -134.12916564941406 L -163.63800048828125 -134.1230010986328 L -163.5624542236328 -134.7586669921875 L -163.5600128173828 -134.7760772705078 L -163.5430145263672 -134.93426513671875 L -163.39100646972656 -136.35299682617188 L -163.83999633789062 -136.56951904296875 L -165.97900390625 -137.6009979248047 L -166.24899291992188 -135.38600158691406 L -165.79832458496094 -135.16799926757812 L -163.83999633789062 -134.22071838378906 L -163.6507568359375 -134.12916564941406 M -194.3193817138672 -243.29981994628906 L -194.33299255371094 -243.3070068359375 L -194.43064880371094 -242.67501831054688 L -194.43373107910156 -242.65777587890625 L -194.45616149902344 -242.50021362304688 L -194.5749969482422 -241.66400146484375 L -194.65699768066406 -241.08700561523438 L -192.11399841308594 -239.75 L -191.8127899169922 -241.66400146484375 L -191.76699829101562 -241.9550018310547 L -192.51199340820312 -242.3475341796875 L -194.3193817138672 -243.29981994628906 M -216.83999633789062 -63.80987548828125 L -216.8376007080078 -65.53600311279297 L -216.83743286132812 -65.6519546508789 L -216.8335418701172 -68.45446014404297 L -216.83143615722656 -69.97782135009766 L -216.8300018310547 -71.01100158691406 L -217.2325897216797 -71.01468658447266 L -217.28164672851562 -71.0152359008789 L -217.3996124267578 -71.0162124633789 L -218.94912719726562 -71.029052734375 L -219.06565856933594 -71.0303955078125 L -219.0736541748047 -71.03009033203125 L -219.1416473388672 -71.02748107910156 L -219.8979949951172 -70.99800109863281 L -221.16400146484375 -70.67400360107422 L -221.1840057373047 -70.66194152832031 L -222.01300048828125 -70.16200256347656 L -222.64300537109375 -69.43800354003906 L -222.8979949951172 -68.93199920654297 L -223.11700439453125 -68.09600067138672 L -223.13400268554688 -66.98799896240234 L -222.8249969482422 -65.85700225830078 L -222.6038360595703 -65.53600311279297 L -222.18699645996094 -64.93099975585938 L -221.26699829101562 -64.26000213623047 L -220.47500610351562 -63.95899963378906 L -219.6436004638672 -63.81689453125 L -219.57400512695312 -63.80500030517578 L -218.38742065429688 -63.790260314941406 L -218.27694702148438 -63.78907775878906 L -216.94480895996094 -63.80289840698242 L -216.83999633789062 -63.80400085449219 L -216.83999633789062 -63.80987548828125 M -193.81678771972656 -245.4965362548828 L -193.83302307128906 -245.4456024169922 L -193.85821533203125 -245.35047912597656 L -194.094970703125 -244.44949340820312 L -194.099853515625 -244.4271240234375 L -194.14500427246094 -244.21800231933594 L -192.51199340820312 -243.35757446289062 L -191.62022399902344 -242.8876953125 L -191.54299926757812 -242.8470001220703 L -191.5378875732422 -242.86354064941406 L -191.36744689941406 -243.38035583496094 L -191.3329620361328 -243.48193359375 L -191.01788330078125 -244.40872192382812 L -191.00033569335938 -244.45266723632812 L -190.81700134277344 -244.90499877929688 L -190.84478759765625 -244.9197235107422 L -190.86441040039062 -244.9301300048828 L -190.89346313476562 -244.9455108642578 L -191.26536560058594 -245.14260864257812 L -192.43043518066406 -245.75999450683594 L -193.5448760986328 -246.35057067871094 L -193.5570068359375 -246.35699462890625 L -193.73724365234375 -245.75999450683594 L -193.81678771972656 -245.4965362548828 M -166.87669372558594 -137.62246704101562 L -166.859130859375 -137.93605041503906 L -166.85699462890625 -137.97415161132812 L -166.85975646972656 -138.02206420898438 L -166.86000061035156 -138.0260009765625 L -169.42161560058594 -139.26400756835938 L -170.18099975585938 -139.63099670410156 L -170.1815185546875 -139.6306610107422 L -170.74539184570312 -139.26400756835938 L -172.03199768066406 -138.42735290527344 L -172.25399780273438 -138.2830047607422 L -172.03199768066406 -138.17578125 L -167.08999633789062 -135.78900146484375 L -167.04486083984375 -136.064453125 L -167.03903198242188 -136.1011505126953 L -167.0286407470703 -136.19854736328125 L -166.88400268554688 -137.49200439453125 L -166.87669372558594 -137.62246704101562 M -182.86044311523438 -140.06752014160156 L -182.92100524902344 -140.03500366210938 L -180.2239990234375 -138.73048400878906 L -176.20599365234375 -136.78700256347656 L -174.07899475097656 -138.16799926757812 L -174.08900451660156 -138.1739959716797 L -176.34814453125 -139.26400756835938 L -180.2239990234375 -141.134033203125 L -180.48300170898438 -141.25900268554688 L -180.66400146484375 -141.17799377441406 L -181.9989013671875 -140.5248260498047 L -182.114990234375 -140.46788024902344 L -182.11607360839844 -140.46734619140625 L -182.86044311523438 -140.06752014160156 M -106.29499816894531 -111.83599853515625 L -106.49600219726562 -111.57334899902344 L -106.53299713134766 -111.5250015258789 L -106.68299865722656 -111.16300201416016 L -106.73400115966797 -110.7750015258789 L -106.68299865722656 -110.38700103759766 L -106.53299713134766 -110.0250015258789 L -106.49600219726562 -109.976806640625 L -106.29499816894531 -109.71499633789062 L -105.98400115966797 -109.47599792480469 L -105.62200164794922 -109.32599639892578 L -105.23400115966797 -109.2750015258789 L -104.84600067138672 -109.32599639892578 L -104.48400115966797 -109.47599792480469 L -104.1729965209961 -109.71499633789062 L -103.93499755859375 -110.0250015258789 L -103.78500366210938 -110.38700103759766 L -103.758056640625 -110.59200286865234 L -103.73400115966797 -110.7750015258789 L -103.78500366210938 -111.16300201416016 L -103.93499755859375 -111.5250015258789 L -104.1729965209961 -111.83599853515625 L -104.48400115966797 -112.0739974975586 L -104.84600067138672 -112.2239990234375 L -105.23400115966797 -112.2750015258789 L -105.62200164794922 -112.2239990234375 L -105.98400115966797 -112.0739974975586 L -106.29499816894531 -111.83599853515625 M -189.4617462158203 -247.48623657226562 L -189.449462890625 -247.5064697265625 L -189.3730010986328 -247.62899780273438 L -192.2729949951172 -249.1510009765625 L -192.48899841308594 -248.78399658203125 L -192.98648071289062 -247.7540283203125 L -193.0456085205078 -247.62954711914062 L -193.24000549316406 -247.2030029296875 L -190.5282745361328 -245.77777099609375 L -190.49447631835938 -245.75999450683594 L -190.44500732421875 -245.73399353027344 L -190.4314422607422 -245.75999450683594 L -190.3897247314453 -245.83995056152344 L -190.31759643554688 -245.9689178466797 L -189.4617462158203 -247.48623657226562 M -169.9040069580078 -129.04400634765625 L -169.76393127441406 -129.2440948486328 L -169.75 -129.26400756835938 L -169.7508544921875 -129.26441955566406 L -170.24472045898438 -129.50537109375 L -170.2520751953125 -129.5091552734375 L -170.2532958984375 -129.50978088378906 L -170.51353454589844 -129.63528442382812 L -172.03199768066406 -130.3678741455078 L -172.29380798339844 -130.4941864013672 L -173.16400146484375 -130.91400146484375 L -173.2989959716797 -130.8300018310547 L -174.0839080810547 -130.43109130859375 L -174.1544647216797 -130.39598083496094 L -174.98635864257812 -130.1509246826172 L -175.0540008544922 -130.13099670410156 L -175.73800659179688 -130.04100036621094 L -176.50399780273438 -130.03500366210938 L -172.03199768066406 -127.87810516357422 L -171.19000244140625 -127.47200012207031 L -171.16827392578125 -127.49625396728516 L -170.95545959472656 -127.72657012939453 L -170.90316772460938 -127.79207611083984 L -169.9835205078125 -128.94447326660156 L -169.9040069580078 -129.04400634765625 M -282.22698974609375 -110.33499908447266 L -282.193115234375 -110.59200286865234 L -282.16900634765625 -110.7750015258789 L -282.22698974609375 -111.21499633789062 L -282.3970031738281 -111.625 L -282.6669921875 -111.97699737548828 L -283.0190124511719 -112.24700164794922 L -283.4289855957031 -112.41699981689453 L -283.8689880371094 -112.4749984741211 L -284.3089904785156 -112.41699981689453 L -284.718994140625 -112.24700164794922 L -285.0710144042969 -111.97699737548828 L -285.3420104980469 -111.625 L -285.510986328125 -111.21499633789062 L -285.5690002441406 -110.7750015258789 L -285.5448913574219 -110.59200286865234 L -285.510986328125 -110.33499908447266 L -285.3420104980469 -109.92500305175781 L -285.0710144042969 -109.572998046875 L -284.718994140625 -109.3030014038086 L -284.3089904785156 -109.13300323486328 L -283.8689880371094 -109.07499694824219 L -283.4289855957031 -109.13300323486328 L -283.0190124511719 -109.3030014038086 L -282.6669921875 -109.572998046875 L -282.3970031738281 -109.92500305175781 L -282.22698974609375 -110.33499908447266 M -282.4200134277344 -279.8370056152344 L -282.3689880371094 -280.2250061035156 L -282.4200134277344 -280.6130065917969 L -282.57000732421875 -280.9750061035156 L -282.6239929199219 -281.0450439453125 L -282.8089904785156 -281.2850036621094 L -283.1189880371094 -281.52398681640625 L -283.4809875488281 -281.67401123046875 L -283.8689880371094 -281.7250061035156 L -284.25799560546875 -281.67401123046875 L -284.6189880371094 -281.52398681640625 L -284.92999267578125 -281.2850036621094 L -285.1679992675781 -280.9750061035156 L -285.3179931640625 -280.6130065917969 L -285.3228759765625 -280.57598876953125 L -285.3689880371094 -280.2250061035156 L -285.3179931640625 -279.8370056152344 L -285.1679992675781 -279.4750061035156 L -284.92999267578125 -279.16400146484375 L -284.6189880371094 -278.9259948730469 L -284.25799560546875 -278.7760009765625 L -283.8689880371094 -278.7250061035156 L -283.4809875488281 -278.7760009765625 L -283.1189880371094 -278.9259948730469 L -282.8089904785156 -279.16400146484375 L -282.6239929199219 -279.40472412109375 L -282.57000732421875 -279.4750061035156 L -282.4200134277344 -279.8370056152344 M -104.1729965209961 -279.16400146484375 L -103.93499755859375 -279.4750061035156 L -103.78500366210938 -279.8370056152344 L -103.73400115966797 -280.2250061035156 L -103.78013610839844 -280.57598876953125 L -103.78500366210938 -280.6130065917969 L -103.93499755859375 -280.9750061035156 L -104.1729965209961 -281.2850036621094 L -104.48400115966797 -281.52398681640625 L -104.84600067138672 -281.67401123046875 L -105.23400115966797 -281.7250061035156 L -105.62200164794922 -281.67401123046875 L -105.98400115966797 -281.52398681640625 L -106.29499816894531 -281.2850036621094 L -106.49600219726562 -281.023193359375 L -106.53299713134766 -280.9750061035156 L -106.68299865722656 -280.6130065917969 L -106.73400115966797 -280.2250061035156 L -106.68299865722656 -279.8370056152344 L -106.53299713134766 -279.4750061035156 L -106.49600219726562 -279.4266662597656 L -106.29499816894531 -279.16400146484375 L -105.98400115966797 -278.9259948730469 L -105.62200164794922 -278.7760009765625 L -105.23400115966797 -278.7250061035156 L -104.84600067138672 -278.7760009765625 L -104.48400115966797 -278.9259948730469 L -104.1729965209961 -279.16400146484375 M -176.0878448486328 -236.32249450683594 L -175.32965087890625 -236.696533203125 L -175.26800537109375 -236.7270050048828 L -176.86251831054688 -237.5679931640625 L -180.2239990234375 -239.34095764160156 L -181.86599731445312 -240.20700073242188 L -184.03900146484375 -238.9010009765625 L -184.02999877929688 -238.8939971923828 L -181.51036071777344 -237.5679931640625 L -180.2239990234375 -236.8910369873047 L -177.7480010986328 -235.58799743652344 L -177.56399536132812 -235.66200256347656 L -176.2069854736328 -236.26910400390625 L -176.0878448486328 -236.32249450683594 M -283.8689880371094 -247.2989959716797 L -281.1189880371094 -248.88699340820312 L -281.1189880371094 -252.06199645996094 L -283.8689880371094 -253.64999389648438 L -286.6189880371094 -252.06199645996094 L -286.6189880371094 -248.88699340820312 L -283.8689880371094 -247.2989959716797 M -182.29800415039062 -132.83099365234375 L -180.2239990234375 -134.181884765625 L -180.1009979248047 -134.26199340820312 L -180.2239990234375 -134.32130432128906 L -185.656005859375 -136.94000244140625 L -185.593994140625 -134.4219970703125 L -182.29800415039062 -132.83099365234375 M -172.4039306640625 -241.87594604492188 L -172.39999389648438 -242.24200439453125 L -172.4007568359375 -242.24240112304688 L -175.63900756835938 -243.947998046875 L -177.88499450683594 -242.593994140625 L -172.427001953125 -239.7239990234375 L -172.4039306640625 -241.87594604492188 z" fill="none" stroke="rgb(255,0,0)" stroke-width="0.001mm" />
</svg>