<?xml version="1.0" standalone="no"?>
<!DOCTYPE svg PUBLIC "-//W3C//DTD SVG 1.1//EN"
  "http://www.w3.org/Graphics/SVG/1.1/DTD/svg11.dtd">
<svg width="210.00000762939453mm" height="201.99999237060547mm" viewBox="93.4229965209961 -303.4519958496094 210.00000762939453 201.99999237060547" xmlns="http://www.w3.org/2000/svg" version="1.1">
	<title>svgOutput</title>
	<desc>made with tinkercad</desc>
<path d="M 176.5760040283203 -273.4880065917969 L 176.63108825683594 -273.5627136230469 L 176.63111877441406 -273.5627746582031 L 176.81202697753906 -273.80810546875 L 178.66200256347656 -276.3169860839844 L 176.67300415039062 -276.3290100097656 L 176.65899658203125 -276.31201171875 L 174.91799926757812 -273.80499267578125 L 174.30799865722656 -273.8039855957031 L 174.3179931640625 -276.32598876953125 L 172.66700744628906 -276.32598876953125 L 172.662353515625 -273.8013000488281 L 172.65866088867188 -271.7959899902344 L 172.65699768066406 -270.59466552734375 L 172.65699768066406 -270.33599853515625 L 172.65699768066406 -269.1180114746094 L 174.41299438476562 -269.10101318359375 L 175.82699584960938 -269.1449890136719 L 176.68899536132812 -269.40301513671875 L 177.30299377441406 -269.8810119628906 L 177.54403686523438 -270.33599853515625 L 177.66799926757812 -270.57000732421875 L 177.7760009765625 -271.4679870605469 L 177.74099731445312 -271.8388366699219 L 177.73367309570312 -271.91534423828125 L 177.59866333007812 -272.3611755371094 L 177.57200622558594 -272.447998046875 L 177.35533142089844 -272.8021545410156 L 177.30450439453125 -272.88232421875 L 177.28199768066406 -272.91400146484375 L 177.02532958984375 -273.1698303222656 L 176.9770050048828 -273.2179870605469 L 176.5760040283203 -273.4880065917969 M 188.39999389648438 -272.5419921875 L 188.40000915527344 -272.5420837402344 L 188.41600036621094 -272.8264465332031 L 188.42999267578125 -273.0753479003906 L 188.43634033203125 -273.18548583984375 L 188.6179962158203 -273.7396545410156 L 188.6540069580078 -273.84698486328125 L 189.0330047607422 -274.35101318359375 L 189.15577697753906 -274.4320068359375 L 189.5590057373047 -274.697998046875 L 189.6681671142578 -274.7273254394531 L 190.2256622314453 -274.8748474121094 L 190.3000030517578 -274.8766784667969 L 190.66000366210938 -274.885009765625 L 191.19700622558594 -274.7650146484375 L 191.6230010986328 -274.5589904785156 L 191.656005859375 -274.5329895019531 L 191.656005859375 -274.4320068359375 L 191.656005859375 -273.74798583984375 L 190.1230010986328 -273.75799560546875 L 190.1230010986328 -272.3840026855469 L 190.1230010986328 -272.2030029296875 L 192.51199340820312 -272.2030029296875 L 193.2030029296875 -272.2030029296875 L 193.2030029296875 -274.4320068359375 L 193.2030029296875 -275.4200134277344 L 193.19366455078125 -275.4286804199219 L 193.14450073242188 -275.4744873046875 L 193.143798828125 -275.4749755859375 L 193.0191650390625 -275.558837890625 L 192.51199340820312 -275.8994140625 L 192.39500427246094 -275.9779968261719 L 191.64599609375 -276.2669982910156 L 191.50833129882812 -276.2918395996094 L 190.72666931152344 -276.4284973144531 L 190.7009735107422 -276.4307556152344 L 190.6981658935547 -276.4309997558594 L 190.29733276367188 -276.43267822265625 L 190.2270050048828 -276.4330139160156 L 189.08299255371094 -276.24700927734375 L 188.41600036621094 -275.9420166015625 L 188.13600158691406 -275.8139953613281 L 187.677001953125 -275.447998046875 L 187.2969970703125 -275.00299072265625 L 187.05616760253906 -274.58551025390625 L 187.00650024414062 -274.49932861328125 L 186.98204040527344 -274.4320068359375 L 186.8248291015625 -273.99932861328125 L 186.7899932861328 -273.9020080566406 L 186.6750030517578 -273.1570129394531 L 186.65133666992188 -273.003173828125 L 186.6855010986328 -272.19232177734375 L 186.6929931640625 -272.0350036621094 L 186.73016357421875 -271.8956604003906 L 186.92666625976562 -271.1804504394531 L 186.9268341064453 -271.1798400878906 L 186.99166870117188 -271.0566711425781 L 187.30499267578125 -270.4599914550781 L 187.41261291503906 -270.33599853515625 L 187.79100036621094 -269.8999938964844 L 188.38499450683594 -269.4639892578125 L 188.45166015625 -269.4316711425781 L 188.8058319091797 -269.260009765625 L 188.91867065429688 -269.2256774902344 L 189.46200561523438 -269.0639953613281 L 190.21800231933594 -268.9849853515625 L 191.40199279785156 -269.1090087890625 L 192.38400268554688 -269.53900146484375 L 192.6510009765625 -269.739990234375 L 192.3426513671875 -270.33599853515625 L 192.3067169189453 -270.4054260253906 L 192.06004333496094 -270.8822326660156 L 192.05706787109375 -270.88800048828125 L 191.97149658203125 -271.0533752441406 L 191.96600341796875 -271.0639953613281 L 191.92100524902344 -271.02301025390625 L 191.5051727294922 -270.77301025390625 L 191.42218017578125 -270.7230529785156 L 191.41932678222656 -270.7213439941406 L 191.30715942382812 -270.69317626953125 L 190.73300170898438 -270.54400634765625 L 189.7790069580078 -270.62799072265625 L 189.1020050048828 -270.97698974609375 L 188.8560028076172 -271.22198486328125 L 188.83055114746094 -271.2711486816406 L 188.8076629638672 -271.3153381347656 L 188.5326690673828 -271.84698486328125 L 188.5208282470703 -271.8764953613281 L 188.50250244140625 -271.9123229980469 L 188.4552001953125 -272.2030029296875 L 188.4257354736328 -272.3840026855469 L 188.41600036621094 -272.4438171386719 L 188.41583251953125 -272.44482421875 L 188.39999389648438 -272.5419921875 M 121.7040023803711 -269.322998046875 L 121.87447357177734 -270.33599853515625 L 122.05000305175781 -271.3789978027344 L 121.94094848632812 -271.44512939453125 L 117.6520004272461 -274.0459899902344 L 117.64600372314453 -274.0429992675781 L 117.53800201416016 -273.5220031738281 L 117.47083282470703 -273.1623229980469 L 117.100830078125 -271.1756591796875 L 117.09200286865234 -271.1239929199219 L 117.0270004272461 -270.6606750488281 L 117.0094985961914 -270.5224914550781 L 116.98912811279297 -270.33599853515625 L 116.97699737548828 -270.2250061035156 L 117.04199981689453 -270.114013671875 L 117.63600158691406 -269.7409973144531 L 121.2750015258789 -267.510009765625 L 121.50299835205078 -267.37701416015625 L 121.7040023803711 -269.322998046875 M 182.06300354003906 -273.4700012207031 L 182.06300354003906 -274.4320068359375 L 182.06300354003906 -274.7720031738281 L 184.79400634765625 -274.7720031738281 L 184.79400634765625 -276.3190002441406 L 180.41099548339844 -276.3190002441406 L 180.41099548339844 -274.7720031738281 L 180.41099548339844 -274.4320068359375 L 180.41099548339844 -273.47283935546875 L 180.41099548339844 -270.33599853515625 L 180.41099548339844 -269.1090087890625 L 184.68899536132812 -269.1090087890625 L 184.68899536132812 -270.33599853515625 L 184.68899536132812 -270.656005859375 L 184.3708953857422 -270.656005859375 L 184.32000732421875 -270.656005859375 L 182.06300354003906 -270.656005859375 L 182.06300354003906 -271.9230041503906 L 184.32000732421875 -271.9230041503906 L 184.375 -271.9230041503906 L 184.3800048828125 -273.46600341796875 L 184.32000732421875 -273.4660949707031 L 182.06300354003906 -273.4700012207031 M 157.2907257080078 -269.4951171875 L 157.7270050048828 -269.2869873046875 L 158.34100341796875 -269.10198974609375 L 158.44467163085938 -269.0881652832031 L 158.99447631835938 -269.0149841308594 L 158.99549865722656 -269.01483154296875 L 159.0521697998047 -269.0131530761719 L 159.08416748046875 -269.0121765136719 L 159.66583251953125 -269.0196533203125 L 159.76800537109375 -269.02099609375 L 160.4199981689453 -269.1449890136719 L 160.98699951171875 -269.3630065917969 L 161.40367126464844 -269.6405029296875 L 161.49032592773438 -269.6983337402344 L 161.5453338623047 -269.7458190917969 L 161.55299377441406 -269.75299072265625 L 161.2086639404297 -270.33599853515625 L 160.90548706054688 -270.8493347167969 L 160.82630920410156 -270.9833984375 L 160.82525634765625 -270.98516845703125 L 160.822998046875 -270.989013671875 L 160.73216247558594 -270.9398193359375 L 160.62916564941406 -270.8896789550781 L 160.2050018310547 -270.68798828125 L 159.74400329589844 -270.5818176269531 L 159.67100524902344 -270.56500244140625 L 159.1510009765625 -270.5580139160156 L 158.64500427246094 -270.6619873046875 L 158.2050018310547 -270.8800048828125 L 157.91749572753906 -271.1308288574219 L 157.85816955566406 -271.18267822265625 L 157.62733459472656 -271.51849365234375 L 157.58299255371094 -271.5840148925781 L 157.41099548339844 -272.0539855957031 L 157.33700561523438 -272.5929870605469 L 157.4250030517578 -273.40399169921875 L 157.75599670410156 -274.0849914550781 L 158.12506103515625 -274.4320068359375 L 158.25799560546875 -274.5570068359375 L 158.91600036621094 -274.8380126953125 L 159.4340057373047 -274.9070129394531 L 159.51516723632812 -274.9010009765625 L 159.74400329589844 -274.88372802734375 L 159.9459991455078 -274.8684997558594 L 159.98849487304688 -274.8593444824219 L 160.01266479492188 -274.8536682128906 L 160.44766235351562 -274.7211608886719 L 160.5240020751953 -274.697998046875 L 160.5243377685547 -274.69781494140625 L 160.92733764648438 -274.4754943847656 L 161.0059356689453 -274.4320068359375 L 161.01466369628906 -274.4271545410156 L 161.07716369628906 -274.3905029296875 L 161.08299255371094 -274.3869934082031 L 161.10594177246094 -274.4320068359375 L 161.71099853515625 -275.6189880371094 L 161.6820068359375 -275.6510009765625 L 161.39700317382812 -275.8818359375 L 161.33816528320312 -275.9293212890625 L 160.93150329589844 -276.13848876953125 L 160.8520050048828 -276.1789855957031 L 160.73733520507812 -276.2099914550781 L 160.08399963378906 -276.38665771484375 L 160.08349609375 -276.3867492675781 L 160.04600524902344 -276.3940124511719 L 160.00267028808594 -276.4056701660156 L 159.979248046875 -276.4068908691406 L 159.74400329589844 -276.4190979003906 L 159.24766540527344 -276.44482421875 L 159.11000061035156 -276.4519958496094 L 157.98699951171875 -276.24700927734375 L 157.02699279785156 -275.7659912109375 L 156.38223266601562 -275.1325988769531 L 156.28900146484375 -275.0409851074219 L 155.95184326171875 -274.4431457519531 L 155.94554138183594 -274.4320068359375 L 155.87899780273438 -274.3139953613281 L 155.83934020996094 -274.1751708984375 L 155.83636474609375 -274.16455078125 L 155.8283233642578 -274.1358337402344 L 155.6479949951172 -273.491943359375 L 155.6393280029297 -273.46099853515625 L 155.6300048828125 -273.33551025390625 L 155.5850067138672 -272.7279968261719 L 155.61573791503906 -272.1593017578125 L 155.61700439453125 -272.135986328125 L 155.6479949951172 -272.0047607421875 L 155.7845001220703 -271.42681884765625 L 155.8163299560547 -271.2886657714844 L 155.87399291992188 -271.1678466796875 L 156.1540069580078 -270.5820007324219 L 156.35340881347656 -270.33599853515625 L 156.54983520507812 -270.0936584472656 L 156.6316680908203 -269.9928283691406 L 156.73583984375 -269.9141540527344 L 157.27000427246094 -269.5050048828125 L 157.2907257080078 -269.4951171875 M 199.79617309570312 -271.22198486328125 L 199.79617309570312 -271.216064453125 L 199.7965850830078 -270.33599853515625 L 199.7969970703125 -269.4494934082031 L 199.7969970703125 -269.10198974609375 L 199.7971649169922 -269.10198974609375 L 201.4429931640625 -269.10198974609375 L 201.44366455078125 -269.3083190917969 L 201.4438934326172 -270.33599853515625 L 201.4445037841797 -273.0183410644531 L 201.44400024414062 -273.5539855957031 L 201.40199279785156 -274.0069885253906 L 201.29405212402344 -274.4320068359375 L 201.2270050048828 -274.6960144042969 L 201.177001953125 -274.7936706542969 L 200.9157257080078 -275.2929382324219 L 200.9153289794922 -275.2936706542969 L 200.84500122070312 -275.3728332519531 L 200.70399475097656 -275.5321350097656 L 200.5050048828125 -275.7569885253906 L 199.96600341796875 -276.114013671875 L 199.20399475097656 -276.3689880371094 L 198.32000732421875 -276.4309997558594 L 197.63333129882812 -276.3326721191406 L 197.49949645996094 -276.31451416015625 L 197.49525451660156 -276.3128967285156 L 197.3836669921875 -276.2706604003906 L 196.82200622558594 -276.0589904785156 L 196.60800170898438 -275.9066162109375 L 196.24899291992188 -275.6510009765625 L 196.17599487304688 -275.5598449707031 L 195.80548095703125 -275.0902404785156 L 195.80516052246094 -275.08984375 L 195.7624969482422 -274.9964904785156 L 195.55499267578125 -274.54400634765625 L 195.52877807617188 -274.4320068359375 L 195.4040069580078 -273.89898681640625 L 195.36399841308594 -271.3330078125 L 195.3631134033203 -270.33599853515625 L 195.3623809814453 -269.5237731933594 L 195.36199951171875 -269.10198974609375 L 196.60800170898438 -269.10198974609375 L 197.01300048828125 -269.10198974609375 L 197.01510620117188 -270.33599853515625 L 197.02000427246094 -273.1919860839844 L 197.1179962158203 -273.82598876953125 L 197.32000732421875 -274.3070068359375 L 197.43653869628906 -274.4320068359375 L 197.57249450683594 -274.57781982421875 L 197.62319946289062 -274.632080078125 L 197.62466430664062 -274.6336669921875 L 197.69566345214844 -274.6659851074219 L 198.0590057373047 -274.83599853515625 L 198.67999267578125 -274.87799072265625 L 199.10499572753906 -274.76300048828125 L 199.4250030517578 -274.5150146484375 L 199.4718475341797 -274.4320068359375 L 199.6439971923828 -274.12701416015625 L 199.76499938964844 -273.5950012207031 L 199.79083251953125 -271.6233215332031 L 199.79617309570312 -271.22198486328125 M 302.27301025390625 -297.7869873046875 L 302.4230041503906 -296.4519958496094 L 302.4230041503906 -294.9119873046875 L 302.4230041503906 -262.1440124511719 L 302.4230041503906 -131.07200622558594 L 302.4230041503906 -108.4520034790039 L 302.27301025390625 -107.11699676513672 L 301.8290100097656 -105.8489990234375 L 301.114013671875 -104.71099853515625 L 300.16400146484375 -103.76100158691406 L 299.0260009765625 -103.0459976196289 L 297.75799560546875 -102.60199737548828 L 296.4230041503906 -102.4520034790039 L 294.9119873046875 -102.4520034790039 L 286.7200012207031 -102.4520034790039 L 278.52801513671875 -102.4520034790039 L 262.1440124511719 -102.4520034790039 L 131.07200622558594 -102.4520034790039 L 116.02899932861328 -102.4520034790039 L 114.68800354003906 -102.4520034790039 L 106.49600219726562 -102.4520034790039 L 100.4229965209961 -102.4520034790039 L 99.08799743652344 -102.60199737548828 L 98.30400085449219 -102.87652587890625 L 97.81999969482422 -103.0459976196289 L 96.68199920654297 -103.76100158691406 L 95.73200225830078 -104.71099853515625 L 95.01699829101562 -105.8489990234375 L 94.572998046875 -107.11699676513672 L 94.4229965209961 -108.4520034790039 L 94.4229965209961 -131.07200622558594 L 94.4229965209961 -262.1440124511719 L 94.4229965209961 -294.9119873046875 L 94.4229965209961 -296.4519958496094 L 94.572998046875 -297.7869873046875 L 95.01699829101562 -299.05499267578125 L 95.73200225830078 -300.1929931640625 L 96.68199920654297 -301.14300537109375 L 97.81999969482422 -301.8580017089844 L 99.08799743652344 -302.302001953125 L 100.4229965209961 -302.4519958496094 L 131.07200622558594 -302.4519958496094 L 163.83999633789062 -302.4519958496094 L 196.60800170898438 -302.4519958496094 L 229.37600708007812 -302.4519958496094 L 262.1440124511719 -302.4519958496094 L 296.4230041503906 -302.4519958496094 L 297.75799560546875 -302.302001953125 L 299.0260009765625 -301.8580017089844 L 300.16400146484375 -301.14300537109375 L 301.114013671875 -300.1929931640625 L 301.8290100097656 -299.05499267578125 L 302.27301025390625 -297.7869873046875 M 125.00599670410156 -282.7786560058594 L 125.265380859375 -282.6239929199219 L 126.66883850097656 -281.7871398925781 L 126.71099853515625 -281.7619934082031 L 127.21700286865234 -282.43499755859375 L 127.37691497802734 -282.6239929199219 L 128.68499755859375 -284.1700134277344 L 128.91799926757812 -284.4320068359375 L 125.14218139648438 -286.7200012207031 L 124.9260025024414 -286.85101318359375 L 124.78673553466797 -286.7200012207031 L 124.5719985961914 -286.51800537109375 L 123.20800018310547 -285.1109924316406 L 122.87999725341797 -284.7382507324219 L 122.49700164794922 -284.3030090332031 L 122.84733581542969 -284.0893249511719 L 122.87999725341797 -284.0694274902344 L 124.64945983886719 -282.99127197265625 L 124.65399932861328 -282.9884948730469 L 125.00599670410156 -282.7786560058594 M 124.37550354003906 -277.9348449707031 L 124.61599731445312 -278.357177734375 L 124.7132797241211 -278.52801513671875 L 125.78099822998047 -280.40301513671875 L 125.88700103759766 -280.5780029296875 L 125.841552734375 -280.6055908203125 L 125.72765350341797 -280.6747741699219 L 122.87999725341797 -282.40411376953125 L 121.60399627685547 -283.1789855957031 L 121.48999786376953 -283.0379943847656 L 121.11659240722656 -282.4680480957031 L 120.06700134277344 -280.8659973144531 L 119.74500274658203 -280.2720031738281 L 119.84197998046875 -280.2129821777344 L 122.6103744506836 -278.52801513671875 L 122.87999725341797 -278.3638916015625 L 123.82433319091797 -277.78912353515625 L 124.18550109863281 -277.5693054199219 L 124.18599700927734 -277.5690002441406 L 124.18628692626953 -277.5695495605469 L 124.21133422851562 -277.6189880371094 L 124.37547302246094 -277.9347839355469 L 124.37550354003906 -277.9348449707031 M 216.21600341796875 -273.4599914550781 L 216.2233428955078 -273.4699401855469 L 216.40785217285156 -273.7195129394531 L 216.44033813476562 -273.7634582519531 L 218.31100463867188 -276.29400634765625 L 216.31300354003906 -276.2980041503906 L 214.56100463867188 -273.7760009765625 L 213.96099853515625 -273.7799987792969 L 213.96099853515625 -276.302001953125 L 212.99200439453125 -276.304931640625 L 212.64419555664062 -276.3059997558594 L 212.31500244140625 -276.3070068359375 L 212.31500244140625 -276.3059997558594 L 212.3075408935547 -270.33599853515625 L 212.30599975585938 -269.09698486328125 L 212.99200439453125 -269.0955810546875 L 215.22500610351562 -269.09100341796875 L 215.45794677734375 -269.1429443359375 L 216.1580047607422 -269.29901123046875 L 216.82400512695312 -269.72198486328125 L 217.2179718017578 -270.33599853515625 L 217.27699279785156 -270.4280090332031 L 217.42599487304688 -271.37799072265625 L 217.28399658203125 -272.2659912109375 L 216.85000610351562 -272.9859924316406 L 216.28799438476562 -273.4200134277344 L 216.21600341796875 -273.4599914550781 M 132.99282836914062 -252.03466796875 L 133.5261688232422 -251.70216369628906 L 133.58900451660156 -251.66299438476562 L 133.5945587158203 -251.66378784179688 L 133.5972900390625 -251.6641845703125 L 133.62863159179688 -251.6686553955078 L 133.67999267578125 -251.67599487304688 L 133.7969970703125 -251.77200317382812 L 137.348876953125 -253.95199584960938 L 139.14599609375 -255.05499267578125 L 131.07200622558594 -259.9719543457031 L 127.50537109375 -262.1440124511719 L 122.87999725341797 -264.9607849121094 L 121.34969329833984 -265.8927307128906 L 116.80400085449219 -268.6610107421875 L 116.80166625976562 -268.64715576171875 L 116.78585052490234 -268.5148010253906 L 116.78583526611328 -268.5146789550781 L 116.75849914550781 -268.1026611328125 L 116.6259994506836 -266.1059875488281 L 116.42105102539062 -262.2159729003906 L 116.4209976196289 -262.2149963378906 L 116.53669738769531 -262.1440124511719 L 122.0009994506836 -258.79083251953125 L 124.12699890136719 -257.48583984375 L 131.07200622558594 -253.216552734375 L 132.32032775878906 -252.4491729736328 L 132.9855499267578 -252.03915405273438 L 132.99282836914062 -252.03466796875 M 123.59333038330078 -276.2631530761719 L 123.59390258789062 -276.26812744140625 L 123.59400177001953 -276.2690124511719 L 122.87999725341797 -276.7021484375 L 119.87024688720703 -278.52801513671875 L 119.13999938964844 -278.97100830078125 L 119.06199645996094 -278.8330078125 L 118.95513916015625 -278.52801513671875 L 118.24600219726562 -276.5039978027344 L 117.98100280761719 -275.5150146484375 L 122.41008758544922 -272.8225402832031 L 122.41100311279297 -272.8219909667969 L 122.44599914550781 -272.9280090332031 L 122.87999725341797 -274.2022399902344 L 122.958251953125 -274.4320068359375 L 123.28016662597656 -275.3771667480469 L 123.45233154296875 -275.8826599121094 L 123.45234680175781 -275.8827209472656 L 123.47083282470703 -275.92816162109375 L 123.58480072021484 -276.21905517578125 L 123.58972930908203 -276.2316589355469 L 123.58999633789062 -276.2323303222656 L 123.59333038330078 -276.2631530761719 M 205.35299682617188 -274.7969970703125 L 204.8000030517578 -276.20184326171875 L 204.75900268554688 -276.3059997558594 L 203.09800720214844 -276.3009948730469 L 203.87350463867188 -274.4320068359375 L 204.8000030517578 -272.1991271972656 L 205.5730743408203 -270.33599853515625 L 206.08509826660156 -269.10198974609375 L 206.08799743652344 -269.0950012207031 L 207.56399536132812 -269.0979919433594 L 207.56565856933594 -269.10198974609375 L 208.0403289794922 -270.2418212890625 L 208.07952880859375 -270.33599853515625 L 210.5403289794922 -276.2485046386719 L 210.56399536132812 -276.3059997558594 L 208.7989959716797 -276.3059997558594 L 208.2010040283203 -274.79400634765625 L 205.35299682617188 -274.7969970703125 M 130.2136688232422 -285.6960144042969 L 131.07200622558594 -286.4153747558594 L 131.43545532226562 -286.7200012207031 L 132.128662109375 -287.3009948730469 L 132.50100708007812 -287.6130065917969 L 132.66400146484375 -287.7409973144531 L 132.65805053710938 -287.7445983886719 L 131.07200622558594 -288.7075500488281 L 128.76699829101562 -290.10699462890625 L 128.5153350830078 -289.90948486328125 L 128.42066955566406 -289.8338317871094 L 126.60733032226562 -288.35382080078125 L 126.28900146484375 -288.093994140625 L 126.01100158691406 -287.85198974609375 L 127.8801040649414 -286.7200012207031 L 129.87713623046875 -285.5105285644531 L 129.94834899902344 -285.4674072265625 L 129.94900512695312 -285.4670104980469 L 130.16065979003906 -285.65032958984375 L 130.2136688232422 -285.6960144042969 M 130.7584991455078 -276.0306701660156 L 131.07200622558594 -276.64825439453125 L 131.2310028076172 -276.96148681640625 L 131.31399536132812 -277.125 L 131.3800048828125 -277.24700927734375 L 131.37689208984375 -277.2488708496094 L 131.2089385986328 -277.3507385253906 L 131.07200622558594 -277.4337463378906 L 129.2674102783203 -278.52801513671875 L 127.10700225830078 -279.8380126953125 L 126.9800033569336 -279.64801025390625 L 126.3450927734375 -278.52801513671875 L 125.572998046875 -277.1659851074219 L 125.41699981689453 -276.822998046875 L 126.97599792480469 -275.8772888183594 L 129.35858154296875 -274.4320068359375 L 130.10699462890625 -273.9779968261719 L 130.12242126464844 -273.9695739746094 L 130.12899780273438 -273.96600341796875 L 130.15199279785156 -274.0920104980469 L 130.23414611816406 -274.4320068359375 L 130.375 -275.0150146484375 L 130.4258270263672 -275.1546630859375 L 130.69583129882812 -275.8963317871094 L 130.73583984375 -275.982177734375 L 130.7584991455078 -276.0306701660156 M 139.02999877929688 -285.54083251953125 L 139.26400756835938 -285.3990173339844 L 146.04583740234375 -281.2891540527344 L 147.36599731445312 -280.489013671875 L 147.00999450683594 -281.12298583984375 L 145.6510009765625 -283.1090087890625 L 143.93299865722656 -285.16400146484375 L 142.38380432128906 -286.7200012207031 L 141.6540069580078 -287.4530029296875 L 138.89100646972656 -289.7829895019531 L 138.85231018066406 -289.8111267089844 L 135.45399475097656 -292.281005859375 L 133.70899963378906 -293.4460144042969 L 133.55099487304688 -293.4570007324219 L 132.97000122070312 -293.0849914550781 L 131.38999938964844 -292.0083312988281 L 131.07200622558594 -291.7916259765625 L 131.06666564941406 -291.7879943847656 L 130.17832946777344 -291.15716552734375 L 130.00799560546875 -291.0360107421875 L 131.07200622558594 -290.38787841796875 L 133.81704711914062 -288.7157897949219 L 133.8667755126953 -288.6855163574219 L 135.3855743408203 -287.7603759765625 L 137.09353637695312 -286.7200012207031 L 137.45716857910156 -286.4985046386719 L 139.02999877929688 -285.54083251953125 M 134.93296813964844 -280.779296875 L 134.6167449951172 -280.9711608886719 L 131.07200622558594 -283.12176513671875 L 130.1699981689453 -283.66900634765625 L 130.03334045410156 -283.5331726074219 L 130.0051727294922 -283.5051574707031 L 129.24752807617188 -282.6239929199219 L 128.58934020996094 -281.8584899902344 L 128.3070068359375 -281.5299987792969 L 127.9209976196289 -281.00799560546875 L 131.07200622558594 -279.0975341796875 L 132.01138305664062 -278.52801513671875 L 132.20599365234375 -278.4100036621094 L 132.31707763671875 -278.52801513671875 L 133.29600524902344 -279.5679931640625 L 134.81500244140625 -280.6919860839844 L 134.94500732421875 -280.7720031738281 L 134.93296813964844 -280.779296875 M 282.760009765625 -289.7200012207031 L 282.6239929199219 -289.66363525390625 L 282.39801025390625 -289.57000732421875 L 282.0880126953125 -289.3320007324219 L 281.8489990234375 -289.02099609375 L 281.6990051269531 -288.6600036621094 L 281.64801025390625 -288.27099609375 L 281.6990051269531 -287.88299560546875 L 281.8489990234375 -287.52099609375 L 282.0880126953125 -287.21099853515625 L 282.39801025390625 -286.97198486328125 L 282.6239929199219 -286.87835693359375 L 282.760009765625 -286.8219909667969 L 283.14801025390625 -286.77099609375 L 283.5360107421875 -286.8219909667969 L 283.89801025390625 -286.97198486328125 L 284.2090148925781 -287.21099853515625 L 284.4469909667969 -287.52099609375 L 284.59698486328125 -287.88299560546875 L 284.64801025390625 -288.27099609375 L 284.59698486328125 -288.6600036621094 L 284.4469909667969 -289.02099609375 L 284.2090148925781 -289.3320007324219 L 283.89801025390625 -289.57000732421875 L 283.5360107421875 -289.7200012207031 L 283.14801025390625 -289.77099609375 L 282.760009765625 -289.7200012207031 M 163.12533569335938 -274.2250061035156 L 163.0630340576172 -274.09814453125 L 163.06100463867188 -274.093994140625 L 163.02883911132812 -273.9416809082031 L 162.85800170898438 -273.1600036621094 L 162.8470001220703 -272.4530029296875 L 163.0590057373047 -271.40399169921875 L 163.53900146484375 -270.4909973144531 L 163.67764282226562 -270.33599853515625 L 163.83999633789062 -270.15447998046875 L 164.0050048828125 -269.9700012207031 L 164.45916748046875 -269.6308288574219 L 164.55299377441406 -269.5608215332031 L 165.10549926757812 -269.2941589355469 L 165.21299743652344 -269.2430114746094 L 165.9239959716797 -269.0570068359375 L 166.02349853515625 -269.04833984375 L 166.5501708984375 -269.0026550292969 L 166.5518341064453 -269.00250244140625 L 166.61349487304688 -269.0041809082031 L 166.64816284179688 -269.0050048828125 L 167.31483459472656 -269.0491638183594 L 167.4320068359375 -269.0570068359375 L 168.18600463867188 -269.25299072265625 L 168.29783630371094 -269.3071594238281 L 168.87197875976562 -269.58966064453125 L 168.8719940185547 -269.58966064453125 L 168.96766662597656 -269.663818359375 L 169.43099975585938 -270.02301025390625 L 169.691650390625 -270.33599853515625 L 169.8939971923828 -270.5790100097656 L 169.92849731445312 -270.63983154296875 L 170.11183166503906 -270.9631652832031 L 170.15415954589844 -271.07183837890625 L 170.35499572753906 -271.59600830078125 L 170.45582580566406 -272.1526794433594 L 170.47666931152344 -272.2674865722656 L 170.47666931152344 -272.2677001953125 L 170.48916625976562 -272.885009765625 L 170.49099731445312 -273.0050048828125 L 170.40682983398438 -273.5591735839844 L 170.3893280029297 -273.6734924316406 L 170.1626739501953 -274.3059997558594 L 170.1179962158203 -274.4289855957031 L 170.1162109375 -274.4320068359375 L 169.81300354003906 -274.9410095214844 L 169.42300415039062 -275.3909912109375 L 168.4669952392578 -276.0589904785156 L 167.81100463867188 -276.3030090332031 L 167.68983459472656 -276.32501220703125 L 167.06695556640625 -276.4349060058594 L 167.06649780273438 -276.43499755859375 L 166.95616149902344 -276.4371643066406 L 166.4219970703125 -276.447998046875 L 166.263671875 -276.4321594238281 L 166.21859741210938 -276.4264221191406 L 166.21533203125 -276.4259948730469 L 165.5328369140625 -276.3043212890625 L 165.41299438476562 -276.2829895019531 L 164.63099670410156 -275.9580078125 L 164.51983642578125 -275.8783264160156 L 163.9498291015625 -275.4633483886719 L 163.83999633789062 -275.3341064453125 L 163.4374237060547 -274.8605041503906 L 163.43699645996094 -274.8599853515625 L 163.2269287109375 -274.4320068359375 L 163.12533569335938 -274.2250061035156 M 112.197998046875 -288.27099609375 L 112.2490005493164 -287.88299560546875 L 112.39900207519531 -287.52099609375 L 112.63700103759766 -287.21099853515625 L 112.947998046875 -286.97198486328125 L 113.30999755859375 -286.8219909667969 L 113.697998046875 -286.77099609375 L 114.08599853515625 -286.8219909667969 L 114.447998046875 -286.97198486328125 L 114.68800354003906 -287.15643310546875 L 114.75900268554688 -287.21099853515625 L 114.99700164794922 -287.52099609375 L 115.14700317382812 -287.88299560546875 L 115.197998046875 -288.27099609375 L 115.14700317382812 -288.6600036621094 L 114.99700164794922 -289.02099609375 L 114.75900268554688 -289.3320007324219 L 114.68800354003906 -289.3863220214844 L 114.447998046875 -289.57000732421875 L 114.08599853515625 -289.7200012207031 L 113.697998046875 -289.77099609375 L 113.30999755859375 -289.7200012207031 L 112.947998046875 -289.57000732421875 L 112.63700103759766 -289.3320007324219 L 112.39900207519531 -289.02099609375 L 112.29387664794922 -288.76800537109375 L 112.2490005493164 -288.6600036621094 L 112.197998046875 -288.27099609375 M 146.8709716796875 -262.1440124511719 L 140.42799377441406 -266.0559997558594 L 140.42141723632812 -262.1440124511719 L 140.42100524902344 -261.89300537109375 L 145.3782958984375 -258.8874816894531 L 145.38900756835938 -258.8810119628906 L 147.45599365234375 -260.15374755859375 L 148.79299926757812 -260.97698974609375 L 147.45599365234375 -261.7887878417969 L 146.8709716796875 -262.1440124511719 M 131.51283264160156 -267.475830078125 L 131.07200622558594 -268.16064453125 L 131.03700256347656 -268.2149963378906 L 131.02587890625 -268.23828125 L 130.56500244140625 -269.2030029296875 L 130.2279510498047 -270.33599853515625 L 130.13900756835938 -270.635009765625 L 129.97900390625 -272.1440124511719 L 129.9739990234375 -272.3970031738281 L 129.85569763183594 -272.4687805175781 L 129.77207946777344 -272.5195007324219 L 126.62005615234375 -274.4320068359375 L 124.99500274658203 -275.4179992675781 L 124.82599639892578 -275.5140075683594 L 124.66699981689453 -275.1189880371094 L 124.43871307373047 -274.4320068359375 L 123.95700073242188 -272.9823303222656 L 123.81366729736328 -272.54998779296875 L 123.70532989501953 -272.1266784667969 L 123.68499755859375 -272.0469970703125 L 126.50589752197266 -270.33599853515625 L 131.07200622558594 -267.5664367675781 L 131.6909942626953 -267.1910095214844 L 131.621826171875 -267.30517578125 L 131.51283264160156 -267.475830078125 M 112.947998046875 -108.33699798583984 L 113.30999755859375 -108.18699645996094 L 113.697998046875 -108.13600158691406 L 114.08599853515625 -108.18699645996094 L 114.447998046875 -108.33699798583984 L 114.68800354003906 -108.52066802978516 L 114.75900268554688 -108.57499694824219 L 114.99700164794922 -108.88600158691406 L 115.14700317382812 -109.24800109863281 L 115.197998046875 -109.63600158691406 L 115.14700317382812 -110.02400207519531 L 114.99700164794922 -110.38600158691406 L 114.75900268554688 -110.6969985961914 L 114.68800354003906 -110.75133514404297 L 114.447998046875 -110.93499755859375 L 114.08599853515625 -111.08499908447266 L 113.697998046875 -111.13600158691406 L 113.30999755859375 -111.08499908447266 L 112.947998046875 -110.93499755859375 L 112.63700103759766 -110.6969985961914 L 112.55664825439453 -110.59200286865234 L 112.39900207519531 -110.38600158691406 L 112.2490005493164 -110.02400207519531 L 112.197998046875 -109.63600158691406 L 112.2490005493164 -109.24800109863281 L 112.39900207519531 -108.88600158691406 L 112.63700103759766 -108.57499694824219 L 112.947998046875 -108.33699798583984 M 225.03199768066406 -269.93798828125 L 225.37832641601562 -270.33599853515625 L 225.66200256347656 -270.6619873046875 L 225.91700744628906 -271.1679992675781 L 226.13499450683594 -272.00299072265625 L 226.15199279785156 -273.11199951171875 L 225.843994140625 -274.2430114746094 L 225.20599365234375 -275.16900634765625 L 224.28599548339844 -275.8389892578125 L 223.494873046875 -276.1406555175781 L 223.49400329589844 -276.1409912109375 L 222.7656707763672 -276.2651672363281 L 222.61532592773438 -276.29083251953125 L 221.63783264160156 -276.3091735839844 L 221.44700622558594 -276.31201171875 L 221.1840057373047 -276.3093566894531 L 219.85899353027344 -276.2959899902344 L 219.85545349121094 -273.7406921386719 L 219.85072326660156 -270.33599853515625 L 219.85043334960938 -270.1221923828125 L 219.8489990234375 -269.0889892578125 L 220.5828094482422 -269.0799865722656 L 220.6631622314453 -269.0790100097656 L 221.02783203125 -269.07550048828125 L 221.9911651611328 -269.06634521484375 L 222.7703399658203 -269.0963439941406 L 222.91700744628906 -269.10198974609375 L 224.18299865722656 -269.42498779296875 L 225.03199768066406 -269.93798828125 M 150.38099670410156 -269.1300048828125 L 150.23548889160156 -270.33599853515625 L 150.12100219726562 -271.2850036621094 L 150.07200622558594 -271.59600830078125 L 147.45599365234375 -273.1829833984375 L 140.43699645996094 -277.4410095214844 L 140.42100524902344 -277.4490051269531 L 140.42100524902344 -273.42401123046875 L 145.52183532714844 -270.33599853515625 L 147.45599365234375 -269.1650695800781 L 150.5500030517578 -267.2919921875 L 150.531494140625 -267.51251220703125 L 150.4340057373047 -268.68499755859375 L 150.43104553222656 -268.7098083496094 L 150.38099670410156 -269.1300048828125 M 148.43499755859375 -278.17401123046875 L 147.8517303466797 -278.52801513671875 L 147.45599365234375 -278.7681579589844 L 140.4239959716797 -283.0360107421875 L 140.4219970703125 -279.1099853515625 L 141.3826446533203 -278.52801513671875 L 147.45599365234375 -274.8485412597656 L 149.7050018310547 -273.4859924316406 L 149.5070037841797 -274.4460144042969 L 148.74600219726562 -277.31298828125 L 148.43499755859375 -278.17401123046875 M 282.0880126953125 -110.6969985961914 L 282.0072937011719 -110.59200286865234 L 281.8489990234375 -110.38600158691406 L 281.6990051269531 -110.02400207519531 L 281.64801025390625 -109.63600158691406 L 281.6990051269531 -109.24800109863281 L 281.8489990234375 -108.88600158691406 L 282.0880126953125 -108.57499694824219 L 282.39801025390625 -108.33699798583984 L 282.6239929199219 -108.24335479736328 L 282.760009765625 -108.18699645996094 L 283.14801025390625 -108.13600158691406 L 283.5360107421875 -108.18699645996094 L 283.89801025390625 -108.33699798583984 L 284.2090148925781 -108.57499694824219 L 284.4469909667969 -108.88600158691406 L 284.59698486328125 -109.24800109863281 L 284.64801025390625 -109.63600158691406 L 284.59698486328125 -110.02400207519531 L 284.4469909667969 -110.38600158691406 L 284.28936767578125 -110.59200286865234 L 284.2090148925781 -110.6969985961914 L 283.89801025390625 -110.93499755859375 L 283.5360107421875 -111.08499908447266 L 283.14801025390625 -111.13600158691406 L 282.760009765625 -111.08499908447266 L 282.39801025390625 -110.93499755859375 L 282.0880126953125 -110.6969985961914 M 123.20899963378906 -269.7950134277344 L 122.93499755859375 -267.4440002441406 L 122.89099884033203 -266.5169982910156 L 130.0133514404297 -262.1440124511719 L 131.07200622558594 -261.4940185546875 L 139.51199340820312 -256.31201171875 L 140.28799438476562 -255.8459930419922 L 140.43099975585938 -255.84300231933594 L 141.0030059814453 -256.18701171875 L 143.08883666992188 -257.4686584472656 L 143.5921630859375 -257.77850341796875 L 144.0229949951172 -258.0459899902344 L 137.2692108154297 -262.1440124511719 L 132.88699340820312 -264.8030090332031 L 131.07200622558594 -265.90423583984375 L 123.76774597167969 -270.33599853515625 L 123.35900115966797 -270.5840148925781 L 123.3489990234375 -270.5780029296875 L 123.30573272705078 -270.33599853515625 L 123.20899963378906 -269.7950134277344 M 280.8169860839844 -246.89100646972656 L 262.1440124511719 -246.89100646972656 L 196.60800170898438 -246.89100646972656 L 163.83999633789062 -246.89100646972656 L 147.45599365234375 -246.89100646972656 L 141.3620147705078 -246.89100646972656 L 141.33810424804688 -246.89100646972656 L 141.2445068359375 -246.89100646972656 L 131.07200622558594 -246.89100646972656 L 116.02899932861328 -246.89100646972656 L 116.02899932861328 -131.07200622558594 L 116.02899932861328 -122.4520034790039 L 131.07200622558594 -122.4520034790039 L 262.1440124511719 -122.4520034790039 L 278.52801513671875 -122.4520034790039 L 280.8169860839844 -122.4520034790039 L 280.8169860839844 -131.07200622558594 L 280.8169860839844 -246.89100646972656 M 133.68179321289062 -286.7200012207031 L 133.30099487304688 -286.4429931640625 L 131.6909942626953 -285.1340026855469 L 131.21200561523438 -284.6969909667969 L 135.61248779296875 -282.0290222167969 L 138.9969940185547 -279.97698974609375 L 138.99899291992188 -283.90301513671875 L 134.3485870361328 -286.7200012207031 L 133.99200439453125 -286.9360046386719 L 133.92100524902344 -286.8940124511719 L 133.68179321289062 -286.7200012207031 z" fill="none" stroke="rgb(255,0,0)" stroke-width="0.001mm" />
</svg>