<?xml version="1.0" standalone="no"?>
<!DOCTYPE svg PUBLIC "-//W3C//DTD SVG 1.1//EN"
  "http://www.w3.org/Graphics/SVG/1.1/DTD/svg11.dtd">
<svg width="210.79800415039062mm" height="606.0469970703125mm" viewBox="92.625 -303.4519958496094 210.79800415039062 606.0469970703125" xmlns="http://www.w3.org/2000/svg" version="1.1">
	<title>svgOutput</title>
	<desc>made with tinkercad</desc>
<path d="M 160.5240020751953 -73.08599853515625 L 160.5243377685547 -73.0858154296875 L 160.92733764648438 -72.8635025024414 L 161.01466369628906 -72.81517028808594 L 161.07716369628906 -72.77850341796875 L 161.08299255371094 -72.7750015258789 L 161.56878662109375 -73.72799682617188 L 161.71099853515625 -74.00700378417969 L 161.6820068359375 -74.03900146484375 L 161.39700317382812 -74.26983642578125 L 161.33816528320312 -74.31733703613281 L 160.93150329589844 -74.52649688720703 L 160.8520050048828 -74.56700134277344 L 160.73733520507812 -74.5979995727539 L 160.08399963378906 -74.77466583251953 L 160.08349609375 -74.77476501464844 L 160.04600524902344 -74.78199768066406 L 160.00267028808594 -74.79366302490234 L 159.979248046875 -74.79488372802734 L 159.24766540527344 -74.83283233642578 L 159.11000061035156 -74.83999633789062 L 157.98699951171875 -74.63500213623047 L 157.02699279785156 -74.15399932861328 L 156.59336853027344 -73.72799682617188 L 156.38223266601562 -73.52059173583984 L 156.28900146484375 -73.42900085449219 L 155.95184326171875 -72.83116149902344 L 155.87899780273438 -72.7020034790039 L 155.83934020996094 -72.56316375732422 L 155.83636474609375 -72.55255889892578 L 155.8283233642578 -72.52383422851562 L 155.6479949951172 -71.87994384765625 L 155.6393280029297 -71.8489990234375 L 155.6300048828125 -71.72350311279297 L 155.5850067138672 -71.11599731445312 L 155.61573791503906 -70.54730224609375 L 155.61700439453125 -70.52400207519531 L 155.6479949951172 -70.39275360107422 L 155.7845001220703 -69.81483459472656 L 155.8163299560547 -69.67666625976562 L 155.837646484375 -69.63200378417969 L 155.87399291992188 -69.55583190917969 L 156.1540069580078 -68.97000122070312 L 156.54983520507812 -68.4816665649414 L 156.6316680908203 -68.3808364868164 L 156.73583984375 -68.30216979980469 L 156.76116943359375 -68.28276062011719 L 157.27000427246094 -67.89299774169922 L 157.2907257080078 -67.88311767578125 L 157.7270050048828 -67.67500305175781 L 158.34100341796875 -67.48999786376953 L 158.44467163085938 -67.47616577148438 L 158.99447631835938 -67.40296936035156 L 158.99549865722656 -67.40283203125 L 159.0521697998047 -67.40116882324219 L 159.08416748046875 -67.4001693725586 L 159.66583251953125 -67.40766906738281 L 159.74400329589844 -67.40868377685547 L 159.76800537109375 -67.40899658203125 L 160.4199981689453 -67.53299713134766 L 160.98699951171875 -67.7509994506836 L 161.40367126464844 -68.02850341796875 L 161.49032592773438 -68.08633422851562 L 161.5453338623047 -68.13383483886719 L 161.55299377441406 -68.14099884033203 L 160.90548706054688 -69.23735046386719 L 160.82630920410156 -69.37139892578125 L 160.82525634765625 -69.37317657470703 L 160.822998046875 -69.37699890136719 L 160.73216247558594 -69.32783508300781 L 160.62916564941406 -69.27766418457031 L 160.2050018310547 -69.07599639892578 L 159.74400329589844 -68.96981811523438 L 159.67100524902344 -68.9530029296875 L 159.1510009765625 -68.94599914550781 L 158.64500427246094 -69.05000305175781 L 158.2050018310547 -69.26799774169922 L 157.91749572753906 -69.51883697509766 L 157.85816955566406 -69.57066345214844 L 157.81600952148438 -69.63200378417969 L 157.62733459472656 -69.90650177001953 L 157.58299255371094 -69.97200012207031 L 157.41099548339844 -70.44200134277344 L 157.33700561523438 -70.98100280761719 L 157.4250030517578 -71.79199981689453 L 157.75599670410156 -72.4729995727539 L 158.25799560546875 -72.94499969482422 L 158.91600036621094 -73.22599792480469 L 159.4340057373047 -73.29499816894531 L 159.51516723632812 -73.28900146484375 L 159.74400329589844 -73.27173614501953 L 159.9459991455078 -73.25650024414062 L 159.98849487304688 -73.24732971191406 L 160.01266479492188 -73.24166870117188 L 160.44766235351562 -73.10916900634766 L 160.5240020751953 -73.08599853515625 M 174.30799865722656 -72.19200134277344 L 174.3140869140625 -73.72799682617188 L 174.3179931640625 -74.71399688720703 L 172.66700744628906 -74.71399688720703 L 172.66519165039062 -73.72799682617188 L 172.662353515625 -72.18930053710938 L 172.65866088867188 -70.18399810791016 L 172.65789794921875 -69.63200378417969 L 172.65699768066406 -68.982666015625 L 172.65699768066406 -67.50599670410156 L 174.41299438476562 -67.48899841308594 L 175.82699584960938 -67.53299713134766 L 176.68899536132812 -67.79100036621094 L 177.30299377441406 -68.26899719238281 L 177.66799926757812 -68.95800018310547 L 177.74905395507812 -69.63200378417969 L 177.7760009765625 -69.85600280761719 L 177.74099731445312 -70.2268295288086 L 177.73367309570312 -70.30333709716797 L 177.59866333007812 -70.7491683959961 L 177.57200622558594 -70.83599853515625 L 177.35533142089844 -71.19017028808594 L 177.30450439453125 -71.27033233642578 L 177.28199768066406 -71.302001953125 L 177.02532958984375 -71.55783081054688 L 176.9770050048828 -71.60600280761719 L 176.5760040283203 -71.8759994506836 L 176.63108825683594 -71.95071411132812 L 176.63111877441406 -71.95075988769531 L 176.81202697753906 -72.19610595703125 L 177.94158935546875 -73.72799682617188 L 178.66200256347656 -74.70500183105469 L 176.67300415039062 -74.71700286865234 L 176.65899658203125 -74.69999694824219 L 175.98399353027344 -73.72799682617188 L 174.91799926757812 -72.19300079345703 L 174.30799865722656 -72.19200134277344 M 98.95816802978516 101.6749267578125 L 99 101.67022705078125 L 99.625 101.5999984741211 L 104.54792022705078 101.5999984741211 L 106.43828582763672 101.5999984741211 L 115.26094055175781 101.5999984741211 L 115.4560775756836 101.5999984741211 L 129.01429748535156 101.5999984741211 L 131.07200622558594 101.5999984741211 L 134.1439971923828 101.5999984741211 L 147.45599365234375 101.5999984741211 L 160.6999969482422 101.5999984741211 L 162.11599731445312 102.31400299072266 L 162.5 103.4000015258789 L 162.5 111.67639923095703 L 162.5 114.56500244140625 L 162.28671264648438 115.16839599609375 L 161.950927734375 115.83446502685547 L 161.8898162841797 115.95568084716797 L 161.28570556640625 116.16939544677734 L 160.5 116.56500244140625 L 148.6959991455078 116.56500244140625 L 147.45599365234375 117.00413513183594 L 146.88600158691406 117.20600128173828 L 146.0946807861328 118.06967163085938 L 145.31100463867188 118.92500305175781 L 144.16868591308594 119.39781951904297 L 143.88800048828125 119.51399993896484 L 142.1047821044922 119.57743835449219 L 139.66635131835938 119.7896499633789 L 138.69931030273438 120.04838562011719 L 137.2769012451172 121.15850067138672 L 136.0556182861328 122.27438354492188 L 135.4605255126953 123.9805908203125 L 134.98500061035156 125.56500244140625 L 134.98500061035156 131.07200622558594 L 134.98500061035156 262.1440124511719 L 134.98500061035156 272.9326477050781 L 134.98500061035156 272.9441833496094 L 134.98500061035156 284.09100341796875 L 135.04568481445312 284.41156005859375 L 135.04722595214844 284.41961669921875 L 135.1713104248047 285.07501220703125 L 135.21359252929688 285.2603759765625 L 135.46861267089844 286.3783264160156 L 136.17340087890625 287.50018310546875 L 137.8936309814453 289.0137023925781 L 139.01600646972656 289.718994140625 L 144.85693359375 290.0152587890625 L 147.0800018310547 290.12799072265625 L 147.9598846435547 290.54541015625 L 148.83738708496094 290.96221923828125 L 148.83799743652344 290.9624938964844 L 149.46713256835938 291.78131103515625 L 150.09500122070312 292.5979919433594 L 151.2153778076172 293.1504211425781 L 151.68299865722656 293.3810119628906 L 163.68450927734375 294.6392517089844 L 171.65802001953125 295.59130859375 L 182.34129333496094 296.28509521484375 L 194.39736938476562 296.7630920410156 L 196.60800170898438 296.72723388671875 L 210.44976806640625 296.5028381347656 L 221.17100524902344 296.1549987792969 L 226.043701171875 295.6477355957031 L 247.09449768066406 293.4562072753906 L 247.81700134277344 293.3810119628906 L 249.40499877929688 292.5979919433594 L 250.71600341796875 290.9150085449219 L 255.06399536132812 287.864013671875 L 257.9460144042969 287.09100341796875 L 262.1440124511719 287.09100341796875 L 263.1044006347656 287.09100341796875 L 275.0459899902344 287.09100341796875 L 276.4073486328125 286.89581298828125 L 280.85589599609375 285.7909240722656 L 283.09814453125 284.955078125 L 284.69573974609375 284.7843933105469 L 285.7247009277344 284.4742126464844 L 286.0119934082031 284.25799560546875 L 286.5150146484375 282.9320068359375 L 286.5150146484375 262.1440124511719 L 286.5150146484375 173.78199768066406 L 286.3052062988281 172.83445739746094 L 285.9698791503906 171.58319091796875 L 285.1896667480469 170.56622314453125 L 284.0069885253906 169.45761108398438 L 282.54193115234375 167.41964721679688 L 281.5899353027344 165.7111358642578 L 281.583984375 165.70042419433594 L 281.6064758300781 161.6115264892578 L 281.6224670410156 157.63604736328125 L 282.1139831542969 156.44985961914062 L 282.6763916015625 155.1906280517578 L 284.4346618652344 153.3157501220703 L 285.7718200683594 152.1329345703125 L 286.3047790527344 150.62545776367188 L 286.5150146484375 149.67599487304688 L 286.5150146484375 135.98699951171875 L 286.5350036621094 135.7989959716797 L 286.5350036621094 131.07200622558594 L 286.5350036621094 121.73699951171875 L 285.8202819824219 121.12689208984375 L 284.5945129394531 120.2427749633789 L 283.9833984375 119.90193176269531 L 282.48541259765625 119.53480529785156 L 280.9423522949219 119.27253723144531 L 280.7201843261719 119.10218048095703 L 280.33074951171875 118.80357360839844 L 279.5459899902344 118.27693939208984 L 279.4621276855469 118.22065734863281 L 279.2613220214844 117.47140502929688 L 279.1719055175781 117.21836853027344 L 278.9410095214844 116.56500244140625 L 278.9410095214844 116.16505432128906 L 278.9410095214844 115.25444793701172 L 278.9410095214844 114.68800354003906 L 278.9410095214844 106.0999984741211 L 279.4205322265625 104.74336242675781 L 280.31341552734375 102.97158813476562 L 281.2284851074219 102.26929473876953 L 282.5878601074219 101.78881072998047 L 283.4410095214844 101.5999984741211 L 294.9119873046875 101.5999984741211 L 295.625 101.5999984741211 L 297.2643737792969 101.90972137451172 L 297.593994140625 101.97200012207031 L 298.7186279296875 102.6787109375 L 299.6037292480469 103.14673614501953 L 300.5462951660156 104.5063705444336 L 301.25299072265625 105.63099670410156 L 301.625 107.5999984741211 L 301.625 131.07200622558594 L 301.625 262.1440124511719 L 301.625 295.5950012207031 L 301.31512451171875 297.2359619140625 L 301.25299072265625 297.56500244140625 L 300.5462951660156 298.6891174316406 L 300.0782470703125 299.57373046875 L 298.8609924316406 300.4268798828125 L 297.8788757324219 301.0440368652344 L 297.7363586425781 301.1335754394531 L 296.7508850097656 301.31976318359375 L 295.625 301.5950012207031 L 294.9119873046875 301.5950012207031 L 262.1440124511719 301.5950012207031 L 242.39663696289062 301.5950012207031 L 235.49586486816406 301.5950012207031 L 203.8702850341797 301.5950012207031 L 196.60800170898438 301.5950012207031 L 134.1439971923828 301.5950012207031 L 131.07200622558594 301.5950012207031 L 99.625 301.5950012207031 L 99 301.4076232910156 L 98.04058837890625 301.1199645996094 L 95.93047332763672 300.2270812988281 L 94.8145980834961 299.00579833984375 L 94.45600128173828 298.4353942871094 L 94.4229965209961 298.3829040527344 L 94.1078872680664 297.8816833496094 L 94 297.4087219238281 L 93.81118774414062 296.58099365234375 L 93.625 295.5950012207031 L 93.625 294.9119873046875 L 93.625 262.1440124511719 L 93.625 131.07200622558594 L 93.625 107.5999984741211 L 93.81118774414062 106.61451721191406 L 94 105.78710174560547 L 94.1078872680664 105.31431579589844 L 94.4229965209961 104.81285858154297 L 94.45600128173828 104.76034545898438 L 94.8145980834961 104.18968963623047 L 95.02281951904297 103.9285659790039 L 95.48626708984375 103.34738159179688 L 95.6462631225586 103.14673614501953 L 97.7563705444336 102.25384521484375 L 98.95816802978516 101.6749267578125 M 197.62466430664062 -73.02166748046875 L 197.69566345214844 -73.05400085449219 L 198.0590057373047 -73.2239990234375 L 198.67999267578125 -73.26599884033203 L 199.10499572753906 -73.1510009765625 L 199.4250030517578 -72.90299987792969 L 199.6439971923828 -72.51499938964844 L 199.76499938964844 -71.98300170898438 L 199.79083251953125 -70.0113296508789 L 199.79586791992188 -69.63200378417969 L 199.79617309570312 -69.61000061035156 L 199.79617309570312 -69.60406494140625 L 199.7969970703125 -67.8375015258789 L 199.7969970703125 -67.48999786376953 L 199.7971649169922 -67.48999786376953 L 201.4429931640625 -67.48999786376953 L 201.44366455078125 -67.69633483886719 L 201.44410705566406 -69.63200378417969 L 201.4445037841797 -71.40633392333984 L 201.44400024414062 -71.94200134277344 L 201.40199279785156 -72.3949966430664 L 201.2270050048828 -73.08399963378906 L 201.177001953125 -73.1816635131836 L 200.9157257080078 -73.68092346191406 L 200.9153289794922 -73.6816635131836 L 200.87417602539062 -73.72799682617188 L 200.84500122070312 -73.76083374023438 L 200.5050048828125 -74.1449966430664 L 199.96600341796875 -74.50199890136719 L 199.3922576904297 -74.69400024414062 L 199.27085876464844 -74.73462677001953 L 199.20399475097656 -74.75700378417969 L 198.32000732421875 -74.81900024414062 L 197.76278686523438 -74.73920440673828 L 197.63333129882812 -74.72066497802734 L 197.49949645996094 -74.70249938964844 L 197.49525451660156 -74.70088958740234 L 197.47703552246094 -74.69400024414062 L 197.3836669921875 -74.6586685180664 L 196.82200622558594 -74.4469985961914 L 196.60800170898438 -74.29462432861328 L 196.24899291992188 -74.03900146484375 L 196.17599487304688 -73.94783020019531 L 196.00254821777344 -73.72799682617188 L 195.80548095703125 -73.47823333740234 L 195.80516052246094 -73.47783660888672 L 195.7624969482422 -73.3844985961914 L 195.55499267578125 -72.93199920654297 L 195.4040069580078 -72.28700256347656 L 195.36399841308594 -69.72100067138672 L 195.36392211914062 -69.63200378417969 L 195.36293029785156 -68.52433013916016 L 195.3623809814453 -67.9117660522461 L 195.36199951171875 -67.48999786376953 L 196.60800170898438 -67.48999786376953 L 197.01300048828125 -67.48999786376953 L 197.01666259765625 -69.63200378417969 L 197.02000427246094 -71.58000183105469 L 197.1179962158203 -72.21399688720703 L 197.32000732421875 -72.69499969482422 L 197.57249450683594 -72.96583557128906 L 197.62319946289062 -73.02008819580078 L 197.62466430664062 -73.02166748046875 M 190.29733276367188 -74.82066345214844 L 190.2270050048828 -74.82099914550781 L 189.08299255371094 -74.63500213623047 L 188.13600158691406 -74.2020034790039 L 187.677001953125 -73.83599853515625 L 187.58477783203125 -73.72799682617188 L 187.2969970703125 -73.39099884033203 L 187.05616760253906 -72.97350311279297 L 187.00650024414062 -72.88733673095703 L 186.8248291015625 -72.38733673095703 L 186.7899932861328 -72.29000091552734 L 186.6750030517578 -71.54499816894531 L 186.65133666992188 -71.39116668701172 L 186.6855010986328 -70.58032989501953 L 186.6929931640625 -70.4229965209961 L 186.73016357421875 -70.2836685180664 L 186.90921020507812 -69.63200378417969 L 186.92666625976562 -69.56844329833984 L 186.9268341064453 -69.56783294677734 L 186.99166870117188 -69.44466400146484 L 187.30499267578125 -68.8479995727539 L 187.79100036621094 -68.28800201416016 L 188.38499450683594 -67.85199737548828 L 188.41600036621094 -67.83696746826172 L 188.45166015625 -67.81966400146484 L 188.8058319091797 -67.64800262451172 L 188.91867065429688 -67.6136703491211 L 189.46200561523438 -67.4520034790039 L 190.21800231933594 -67.37300109863281 L 191.40199279785156 -67.49700164794922 L 192.38400268554688 -67.927001953125 L 192.6510009765625 -68.12799835205078 L 192.3067169189453 -68.7934341430664 L 192.06004333496094 -69.27022552490234 L 192.05706787109375 -69.27598571777344 L 191.97149658203125 -69.44136047363281 L 191.96600341796875 -69.4520034790039 L 191.92100524902344 -69.41100311279297 L 191.5051727294922 -69.16100311279297 L 191.42218017578125 -69.11104583740234 L 191.41932678222656 -69.10933685302734 L 191.30715942382812 -69.08116912841797 L 190.73300170898438 -68.93199920654297 L 189.7790069580078 -69.01599884033203 L 189.1020050048828 -69.36499786376953 L 188.8560028076172 -69.61000061035156 L 188.8446044921875 -69.63200378417969 L 188.83055114746094 -69.6591567993164 L 188.8076629638672 -69.70333099365234 L 188.5326690673828 -70.23500061035156 L 188.5208282470703 -70.2645034790039 L 188.50250244140625 -70.30033111572266 L 188.4552001953125 -70.59100341796875 L 188.41600036621094 -70.8318099975586 L 188.41583251953125 -70.83283233642578 L 188.39999389648438 -70.93000030517578 L 188.40000915527344 -70.93008422851562 L 188.41600036621094 -71.21444702148438 L 188.42999267578125 -71.46333312988281 L 188.43634033203125 -71.57350158691406 L 188.6179962158203 -72.12767028808594 L 188.6540069580078 -72.23500061035156 L 189.0330047607422 -72.73899841308594 L 189.5590057373047 -73.08599853515625 L 189.6681671142578 -73.1153335571289 L 190.1230010986328 -73.23567199707031 L 190.2256622314453 -73.26283264160156 L 190.3000030517578 -73.26466369628906 L 190.66000366210938 -73.27300262451172 L 191.19700622558594 -73.15299987792969 L 191.6230010986328 -72.9469985961914 L 191.656005859375 -72.9209976196289 L 191.656005859375 -72.13600158691406 L 190.1230010986328 -72.14600372314453 L 190.1230010986328 -70.59100341796875 L 191.656005859375 -70.59100341796875 L 192.51199340820312 -70.59100341796875 L 193.2030029296875 -70.59100341796875 L 193.2030029296875 -73.72799682617188 L 193.2030029296875 -73.80799865722656 L 193.19366455078125 -73.81666564941406 L 193.14450073242188 -73.86250305175781 L 193.143798828125 -73.86296844482422 L 193.0191650390625 -73.94683074951172 L 192.39500427246094 -74.36599731445312 L 191.64599609375 -74.65499877929688 L 191.50833129882812 -74.6798324584961 L 190.72666931152344 -74.81649780273438 L 190.7009735107422 -74.81875610351562 L 190.6981658935547 -74.81900024414062 L 190.29733276367188 -74.82066345214844 M 188.8076629638672 -271.3153381347656 L 188.5326690673828 -271.84698486328125 L 188.5208282470703 -271.8764953613281 L 188.50250244140625 -271.9123229980469 L 188.4552001953125 -272.2030029296875 L 188.4257354736328 -272.3840026855469 L 188.41600036621094 -272.4438171386719 L 188.41583251953125 -272.44482421875 L 188.39999389648438 -272.5419921875 L 188.40000915527344 -272.5420837402344 L 188.41600036621094 -272.8264465332031 L 188.42999267578125 -273.0753479003906 L 188.43634033203125 -273.18548583984375 L 188.6179962158203 -273.7396545410156 L 188.6540069580078 -273.84698486328125 L 189.0330047607422 -274.35101318359375 L 189.15577697753906 -274.4320068359375 L 189.5590057373047 -274.697998046875 L 189.6681671142578 -274.7273254394531 L 190.2256622314453 -274.8748474121094 L 190.3000030517578 -274.8766784667969 L 190.66000366210938 -274.885009765625 L 191.19700622558594 -274.7650146484375 L 191.6230010986328 -274.5589904785156 L 191.656005859375 -274.5329895019531 L 191.656005859375 -274.4320068359375 L 191.656005859375 -273.74798583984375 L 190.1230010986328 -273.75799560546875 L 190.1230010986328 -272.3840026855469 L 190.1230010986328 -272.2030029296875 L 192.51199340820312 -272.2030029296875 L 193.2030029296875 -272.2030029296875 L 193.2030029296875 -274.4320068359375 L 193.2030029296875 -275.4200134277344 L 193.19366455078125 -275.4286804199219 L 193.14450073242188 -275.4744873046875 L 193.143798828125 -275.4749755859375 L 193.0191650390625 -275.558837890625 L 192.51199340820312 -275.8994140625 L 192.39500427246094 -275.9779968261719 L 191.64599609375 -276.2669982910156 L 191.50833129882812 -276.2918395996094 L 190.72666931152344 -276.4284973144531 L 190.7009735107422 -276.4307556152344 L 190.6981658935547 -276.4309997558594 L 190.29733276367188 -276.43267822265625 L 190.2270050048828 -276.4330139160156 L 189.08299255371094 -276.24700927734375 L 188.41600036621094 -275.9420166015625 L 188.13600158691406 -275.8139953613281 L 187.677001953125 -275.447998046875 L 187.2969970703125 -275.00299072265625 L 187.05616760253906 -274.58551025390625 L 187.00650024414062 -274.49932861328125 L 186.98204040527344 -274.4320068359375 L 186.8248291015625 -273.99932861328125 L 186.7899932861328 -273.9020080566406 L 186.6750030517578 -273.1570129394531 L 186.65133666992188 -273.003173828125 L 186.6855010986328 -272.19232177734375 L 186.6929931640625 -272.0350036621094 L 186.73016357421875 -271.8956604003906 L 186.92666625976562 -271.1804504394531 L 186.9268341064453 -271.1798400878906 L 186.99166870117188 -271.0566711425781 L 187.30499267578125 -270.4599914550781 L 187.41261291503906 -270.33599853515625 L 187.79100036621094 -269.8999938964844 L 188.38499450683594 -269.4639892578125 L 188.45166015625 -269.4316711425781 L 188.8058319091797 -269.260009765625 L 188.91867065429688 -269.2256774902344 L 189.46200561523438 -269.0639953613281 L 190.21800231933594 -268.9849853515625 L 191.40199279785156 -269.1090087890625 L 192.38400268554688 -269.53900146484375 L 192.6510009765625 -269.739990234375 L 192.3426513671875 -270.33599853515625 L 192.3067169189453 -270.4054260253906 L 192.06004333496094 -270.8822326660156 L 192.05706787109375 -270.88800048828125 L 191.97149658203125 -271.0533752441406 L 191.96600341796875 -271.0639953613281 L 191.92100524902344 -271.02301025390625 L 191.5051727294922 -270.77301025390625 L 191.42218017578125 -270.7230529785156 L 191.41932678222656 -270.7213439941406 L 191.30715942382812 -270.69317626953125 L 190.73300170898438 -270.54400634765625 L 189.7790069580078 -270.62799072265625 L 189.1020050048828 -270.97698974609375 L 188.8560028076172 -271.22198486328125 L 188.83055114746094 -271.2711486816406 L 188.8076629638672 -271.3153381347656 M 213.96099853515625 -72.16799926757812 L 213.96099853515625 -73.72799682617188 L 213.96099853515625 -74.69000244140625 L 212.99200439453125 -74.69293975830078 L 212.64419555664062 -74.69400024414062 L 212.31500244140625 -74.69499969482422 L 212.31500244140625 -74.69400024414062 L 212.3137969970703 -73.72799682617188 L 212.30599975585938 -67.48500061035156 L 212.99200439453125 -67.48358917236328 L 215.22500610351562 -67.47899627685547 L 215.45794677734375 -67.53092956542969 L 216.1580047607422 -67.68699645996094 L 216.82400512695312 -68.11000061035156 L 217.27699279785156 -68.81600189208984 L 217.42599487304688 -69.76599884033203 L 217.28399658203125 -70.65399932861328 L 216.85000610351562 -71.3740005493164 L 216.28799438476562 -71.80799865722656 L 216.21600341796875 -71.8479995727539 L 216.2233428955078 -71.8579330444336 L 216.40785217285156 -72.1075210571289 L 216.44033813476562 -72.15147399902344 L 217.60577392578125 -73.72799682617188 L 218.31100463867188 -74.68199920654297 L 216.31300354003906 -74.68599700927734 L 215.64749145507812 -73.72799682617188 L 214.56100463867188 -72.16400146484375 L 213.96099853515625 -72.16799926757812 M 182.06300354003906 -274.7720031738281 L 184.79400634765625 -274.7720031738281 L 184.79400634765625 -276.3190002441406 L 180.41099548339844 -276.3190002441406 L 180.41099548339844 -274.7720031738281 L 180.41099548339844 -274.4320068359375 L 180.41099548339844 -273.47283935546875 L 180.41099548339844 -270.33599853515625 L 180.41099548339844 -269.1090087890625 L 184.68899536132812 -269.1090087890625 L 184.68899536132812 -270.33599853515625 L 184.68899536132812 -270.656005859375 L 184.3708953857422 -270.656005859375 L 184.32000732421875 -270.656005859375 L 182.06300354003906 -270.656005859375 L 182.06300354003906 -271.9230041503906 L 184.32000732421875 -271.9230041503906 L 184.375 -271.9230041503906 L 184.3800048828125 -273.46600341796875 L 184.32000732421875 -273.4660949707031 L 182.06300354003906 -273.4700012207031 L 182.06300354003906 -274.4320068359375 L 182.06300354003906 -274.7720031738281 M 199.79617309570312 -271.22198486328125 L 199.79617309570312 -271.216064453125 L 199.7965850830078 -270.33599853515625 L 199.7969970703125 -269.4494934082031 L 199.7969970703125 -269.10198974609375 L 199.7971649169922 -269.10198974609375 L 201.4429931640625 -269.10198974609375 L 201.44366455078125 -269.3083190917969 L 201.4438934326172 -270.33599853515625 L 201.4445037841797 -273.0183410644531 L 201.44400024414062 -273.5539855957031 L 201.40199279785156 -274.0069885253906 L 201.29405212402344 -274.4320068359375 L 201.2270050048828 -274.6960144042969 L 201.177001953125 -274.7936706542969 L 200.9157257080078 -275.2929382324219 L 200.9153289794922 -275.2936706542969 L 200.84500122070312 -275.3728332519531 L 200.70399475097656 -275.5321350097656 L 200.5050048828125 -275.7569885253906 L 199.96600341796875 -276.114013671875 L 199.20399475097656 -276.3689880371094 L 198.32000732421875 -276.4309997558594 L 197.63333129882812 -276.3326721191406 L 197.49949645996094 -276.31451416015625 L 197.49525451660156 -276.3128967285156 L 197.3836669921875 -276.2706604003906 L 196.82200622558594 -276.0589904785156 L 196.60800170898438 -275.9066162109375 L 196.24899291992188 -275.6510009765625 L 196.17599487304688 -275.5598449707031 L 195.80548095703125 -275.0902404785156 L 195.80516052246094 -275.08984375 L 195.7624969482422 -274.9964904785156 L 195.55499267578125 -274.54400634765625 L 195.52877807617188 -274.4320068359375 L 195.4040069580078 -273.89898681640625 L 195.36399841308594 -271.3330078125 L 195.3631134033203 -270.33599853515625 L 195.3623809814453 -269.5237731933594 L 195.36199951171875 -269.10198974609375 L 196.60800170898438 -269.10198974609375 L 197.01300048828125 -269.10198974609375 L 197.01510620117188 -270.33599853515625 L 197.02000427246094 -273.1919860839844 L 197.1179962158203 -273.82598876953125 L 197.32000732421875 -274.3070068359375 L 197.43653869628906 -274.4320068359375 L 197.57249450683594 -274.57781982421875 L 197.62319946289062 -274.632080078125 L 197.62466430664062 -274.6336669921875 L 197.69566345214844 -274.6659851074219 L 198.0590057373047 -274.83599853515625 L 198.67999267578125 -274.87799072265625 L 199.10499572753906 -274.76300048828125 L 199.4250030517578 -274.5150146484375 L 199.4718475341797 -274.4320068359375 L 199.6439971923828 -274.12701416015625 L 199.76499938964844 -273.5950012207031 L 199.79083251953125 -271.6233215332031 L 199.79617309570312 -271.22198486328125 M 160.5240020751953 -274.697998046875 L 160.5243377685547 -274.69781494140625 L 160.92733764648438 -274.4754943847656 L 161.0059356689453 -274.4320068359375 L 161.01466369628906 -274.4271545410156 L 161.07716369628906 -274.3905029296875 L 161.08299255371094 -274.3869934082031 L 161.10594177246094 -274.4320068359375 L 161.71099853515625 -275.6189880371094 L 161.6820068359375 -275.6510009765625 L 161.39700317382812 -275.8818359375 L 161.33816528320312 -275.9293212890625 L 160.93150329589844 -276.13848876953125 L 160.8520050048828 -276.1789855957031 L 160.73733520507812 -276.2099914550781 L 160.08399963378906 -276.38665771484375 L 160.08349609375 -276.3867492675781 L 160.04600524902344 -276.3940124511719 L 160.00267028808594 -276.4056701660156 L 159.979248046875 -276.4068908691406 L 159.74400329589844 -276.4190979003906 L 159.24766540527344 -276.44482421875 L 159.11000061035156 -276.4519958496094 L 157.98699951171875 -276.24700927734375 L 157.02699279785156 -275.7659912109375 L 156.38223266601562 -275.1325988769531 L 156.28900146484375 -275.0409851074219 L 155.95184326171875 -274.4431457519531 L 155.94554138183594 -274.4320068359375 L 155.87899780273438 -274.3139953613281 L 155.83934020996094 -274.1751708984375 L 155.83636474609375 -274.16455078125 L 155.8283233642578 -274.1358337402344 L 155.6479949951172 -273.491943359375 L 155.6393280029297 -273.46099853515625 L 155.6300048828125 -273.33551025390625 L 155.5850067138672 -272.7279968261719 L 155.61573791503906 -272.1593017578125 L 155.61700439453125 -272.135986328125 L 155.6479949951172 -272.0047607421875 L 155.7845001220703 -271.42681884765625 L 155.8163299560547 -271.2886657714844 L 155.87399291992188 -271.1678466796875 L 156.1540069580078 -270.5820007324219 L 156.35340881347656 -270.33599853515625 L 156.54983520507812 -270.0936584472656 L 156.6316680908203 -269.9928283691406 L 156.73583984375 -269.9141540527344 L 157.27000427246094 -269.5050048828125 L 157.2907257080078 -269.4951171875 L 157.7270050048828 -269.2869873046875 L 158.34100341796875 -269.10198974609375 L 158.44467163085938 -269.0881652832031 L 158.99447631835938 -269.0149841308594 L 158.99549865722656 -269.01483154296875 L 159.0521697998047 -269.0131530761719 L 159.08416748046875 -269.0121765136719 L 159.66583251953125 -269.0196533203125 L 159.76800537109375 -269.02099609375 L 160.4199981689453 -269.1449890136719 L 160.98699951171875 -269.3630065917969 L 161.40367126464844 -269.6405029296875 L 161.49032592773438 -269.6983337402344 L 161.5453338623047 -269.7458190917969 L 161.55299377441406 -269.75299072265625 L 161.2086639404297 -270.33599853515625 L 160.90548706054688 -270.8493347167969 L 160.82630920410156 -270.9833984375 L 160.82525634765625 -270.98516845703125 L 160.822998046875 -270.989013671875 L 160.73216247558594 -270.9398193359375 L 160.62916564941406 -270.8896789550781 L 160.2050018310547 -270.68798828125 L 159.74400329589844 -270.5818176269531 L 159.67100524902344 -270.56500244140625 L 159.1510009765625 -270.5580139160156 L 158.64500427246094 -270.6619873046875 L 158.2050018310547 -270.8800048828125 L 157.91749572753906 -271.1308288574219 L 157.85816955566406 -271.18267822265625 L 157.62733459472656 -271.51849365234375 L 157.58299255371094 -271.5840148925781 L 157.41099548339844 -272.0539855957031 L 157.33700561523438 -272.5929870605469 L 157.4250030517578 -273.40399169921875 L 157.75599670410156 -274.0849914550781 L 158.12506103515625 -274.4320068359375 L 158.25799560546875 -274.5570068359375 L 158.91600036621094 -274.8380126953125 L 159.4340057373047 -274.9070129394531 L 159.51516723632812 -274.9010009765625 L 159.74400329589844 -274.88372802734375 L 159.9459991455078 -274.8684997558594 L 159.98849487304688 -274.8593444824219 L 160.01266479492188 -274.8536682128906 L 160.44766235351562 -274.7211608886719 L 160.5240020751953 -274.697998046875 M 302.4230041503906 -108.4520034790039 L 302.27301025390625 -107.11699676513672 L 301.8290100097656 -105.8489990234375 L 301.114013671875 -104.71099853515625 L 300.16400146484375 -103.76100158691406 L 299.0260009765625 -103.0459976196289 L 297.75799560546875 -102.60199737548828 L 296.4230041503906 -102.4520034790039 L 294.9119873046875 -102.4520034790039 L 286.7200012207031 -102.4520034790039 L 278.52801513671875 -102.4520034790039 L 262.1440124511719 -102.4520034790039 L 131.07200622558594 -102.4520034790039 L 116.02899932861328 -102.4520034790039 L 114.68800354003906 -102.4520034790039 L 106.49600219726562 -102.4520034790039 L 100.4229965209961 -102.4520034790039 L 99.08799743652344 -102.60199737548828 L 98.30400085449219 -102.87652587890625 L 97.81999969482422 -103.0459976196289 L 96.68199920654297 -103.76100158691406 L 95.73200225830078 -104.71099853515625 L 95.01699829101562 -105.8489990234375 L 94.572998046875 -107.11699676513672 L 94.4229965209961 -108.4520034790039 L 94.4229965209961 -131.07200622558594 L 94.4229965209961 -262.1440124511719 L 94.4229965209961 -294.9119873046875 L 94.4229965209961 -296.4519958496094 L 94.572998046875 -297.7869873046875 L 95.01699829101562 -299.05499267578125 L 95.73200225830078 -300.1929931640625 L 96.68199920654297 -301.14300537109375 L 97.81999969482422 -301.8580017089844 L 99.08799743652344 -302.302001953125 L 100.4229965209961 -302.4519958496094 L 131.07200622558594 -302.4519958496094 L 163.83999633789062 -302.4519958496094 L 196.60800170898438 -302.4519958496094 L 229.37600708007812 -302.4519958496094 L 262.1440124511719 -302.4519958496094 L 296.4230041503906 -302.4519958496094 L 297.75799560546875 -302.302001953125 L 299.0260009765625 -301.8580017089844 L 300.16400146484375 -301.14300537109375 L 301.114013671875 -300.1929931640625 L 301.8290100097656 -299.05499267578125 L 302.27301025390625 -297.7869873046875 L 302.4230041503906 -296.4519958496094 L 302.4230041503906 -294.9119873046875 L 302.4230041503906 -262.1440124511719 L 302.4230041503906 -131.07200622558594 L 302.4230041503906 -108.4520034790039 M 124.37550354003906 -76.32283020019531 L 124.61599731445312 -76.74516296386719 L 125.23033905029297 -77.8239974975586 L 125.78099822998047 -78.79100036621094 L 125.88700103759766 -78.96600341796875 L 125.841552734375 -78.99359893798828 L 125.72765350341797 -79.0627670288086 L 122.87999725341797 -80.79210662841797 L 121.60399627685547 -81.56700134277344 L 121.48999786376953 -81.4260025024414 L 121.11659240722656 -80.85604858398438 L 120.06700134277344 -79.25399780273438 L 119.74500274658203 -78.66000366210938 L 119.84197998046875 -78.60096740722656 L 122.87999725341797 -76.75189208984375 L 123.82433319091797 -76.1771240234375 L 124.18550109863281 -75.95730590820312 L 124.18599700927734 -75.95700073242188 L 124.18628692626953 -75.95756530761719 L 124.21133422851562 -76.00700378417969 L 124.37547302246094 -76.32278442382812 L 124.37550354003906 -76.32283020019531 M 123.45233154296875 -74.27066802978516 L 123.45234680175781 -74.27070617675781 L 123.47083282470703 -74.31616973876953 L 123.58480072021484 -74.60706329345703 L 123.58972930908203 -74.61964416503906 L 123.58999633789062 -74.62033081054688 L 123.59333038330078 -74.65116882324219 L 123.59390258789062 -74.65611267089844 L 123.59400177001953 -74.65699768066406 L 122.87999725341797 -75.09014129638672 L 119.13999938964844 -77.35900115966797 L 119.06199645996094 -77.22100067138672 L 118.24600219726562 -74.89199829101562 L 117.98100280761719 -73.90299987792969 L 118.26887512207031 -73.72799682617188 L 122.41008758544922 -71.21055603027344 L 122.41100311279297 -71.20999908447266 L 122.44599914550781 -71.31600189208984 L 122.87999725341797 -72.59024810791016 L 123.26750946044922 -73.72799682617188 L 123.28016662597656 -73.76516723632812 L 123.45233154296875 -74.27066802978516 M 100.4229965209961 99.16000366210938 L 99.08799743652344 99.01000213623047 L 98.30400085449219 98.7354736328125 L 97.81999969482422 98.56600189208984 L 96.68199920654297 97.85099792480469 L 95.73200225830078 96.9010009765625 L 95.01699829101562 95.76300048828125 L 94.572998046875 94.49500274658203 L 94.4229965209961 93.16000366210938 L 94.4229965209961 65.53600311279297 L 94.4229965209961 1.1102230246251565e-16 L 94.4229965209961 -65.53600311279297 L 94.4229965209961 -94.83999633789062 L 94.572998046875 -96.17500305175781 L 95.01699829101562 -97.44300079345703 L 95.73200225830078 -98.58100128173828 L 96.68199920654297 -99.53099822998047 L 97.81999969482422 -100.24600219726562 L 98.30400085449219 -100.41547393798828 L 99.08799743652344 -100.69000244140625 L 100.4229965209961 -100.83999633789062 L 131.07200622558594 -100.83999633789062 L 163.83999633789062 -100.83999633789062 L 196.60800170898438 -100.83999633789062 L 229.37600708007812 -100.83999633789062 L 262.1440124511719 -100.83999633789062 L 294.9119873046875 -100.83999633789062 L 296.4230041503906 -100.83999633789062 L 297.75799560546875 -100.69000244140625 L 299.0260009765625 -100.24600219726562 L 300.16400146484375 -99.53099822998047 L 301.114013671875 -98.58100128173828 L 301.8290100097656 -97.44300079345703 L 302.27301025390625 -96.17500305175781 L 302.4230041503906 -94.83999633789062 L 302.4230041503906 -65.53600311279297 L 302.4230041503906 1.1102230246251565e-16 L 302.4230041503906 65.53600311279297 L 302.4230041503906 93.16000366210938 L 302.27301025390625 94.49500274658203 L 301.8290100097656 95.76300048828125 L 301.114013671875 96.9010009765625 L 300.16400146484375 97.85099792480469 L 299.0260009765625 98.56600189208984 L 297.75799560546875 99.01000213623047 L 296.4230041503906 99.16000366210938 L 294.9119873046875 99.16000366210938 L 262.1440124511719 99.16000366210938 L 134.1439971923828 99.16000366210938 L 131.07200622558594 99.16000366210938 L 100.4229965209961 99.16000366210938 M 130.2136688232422 -84.08399963378906 L 131.07200622558594 -84.80338287353516 L 132.128662109375 -85.68900299072266 L 132.50100708007812 -86.0009994506836 L 132.66400146484375 -86.12899780273438 L 132.65805053710938 -86.13260650634766 L 131.07200622558594 -87.0955581665039 L 128.76699829101562 -88.49500274658203 L 128.5153350830078 -88.29750061035156 L 128.42066955566406 -88.22183227539062 L 126.60733032226562 -86.74183654785156 L 126.28900146484375 -86.48200225830078 L 126.01100158691406 -86.23999786376953 L 126.380859375 -86.01599884033203 L 129.87713623046875 -83.89852142333984 L 129.94834899902344 -83.85539245605469 L 129.94900512695312 -83.8550033569336 L 130.16065979003906 -84.038330078125 L 130.2136688232422 -84.08399963378906 M 130.7584991455078 -74.41866302490234 L 131.07200622558594 -75.03627014160156 L 131.2310028076172 -75.34950256347656 L 131.31399536132812 -75.51300048828125 L 131.3800048828125 -75.63500213623047 L 131.37689208984375 -75.63688659667969 L 131.2089385986328 -75.73873138427734 L 131.07200622558594 -75.82176208496094 L 127.76996612548828 -77.8239974975586 L 127.10700225830078 -78.22599792480469 L 126.9800033569336 -78.03600311279297 L 126.85981750488281 -77.8239974975586 L 125.572998046875 -75.55400085449219 L 125.41699981689453 -75.21099853515625 L 126.97599792480469 -74.26529693603516 L 127.86173248291016 -73.72799682617188 L 130.01736450195312 -72.42037200927734 L 130.10699462890625 -72.36599731445312 L 130.12242126464844 -72.35758972167969 L 130.12899780273438 -72.35399627685547 L 130.15199279785156 -72.4800033569336 L 130.375 -73.40299987792969 L 130.4258270263672 -73.54266357421875 L 130.49330139160156 -73.72799682617188 L 130.69583129882812 -74.28433227539062 L 130.73583984375 -74.37016296386719 L 130.7584991455078 -74.41866302490234 M 132.99282836914062 -50.42266845703125 L 133.5261688232422 -50.09016799926758 L 133.58900451660156 -50.05099868774414 L 133.5945587158203 -50.05179214477539 L 133.5972900390625 -50.05218505859375 L 133.62863159179688 -50.05665969848633 L 133.67999267578125 -50.06399917602539 L 133.7969970703125 -50.15999984741211 L 139.14599609375 -53.44300079345703 L 132.7402801513672 -57.34400177001953 L 131.07200622558594 -58.35996627807617 L 122.81890106201172 -63.38600158691406 L 119.2884521484375 -65.53600311279297 L 116.80400085449219 -67.04900360107422 L 116.80166625976562 -67.03516387939453 L 116.78585052490234 -66.90280151367188 L 116.78583526611328 -66.90266418457031 L 116.75849914550781 -66.49066925048828 L 116.69514465332031 -65.53600311279297 L 116.6259994506836 -64.49400329589844 L 116.42140197753906 -60.61067581176758 L 116.42105102539062 -60.603965759277344 L 116.4209976196289 -60.60300064086914 L 122.0009994506836 -57.1788330078125 L 124.12699890136719 -55.87383270263672 L 131.07200622558594 -51.60455322265625 L 132.32032775878906 -50.83716583251953 L 132.9855499267578 -50.42715072631836 L 132.99282836914062 -50.42266845703125 M 134.6167449951172 -79.35914611816406 L 131.07200622558594 -81.50975799560547 L 130.39581298828125 -81.91999816894531 L 130.1699981689453 -82.05699920654297 L 130.03334045410156 -81.9211654663086 L 130.03216552734375 -81.91999816894531 L 130.0051727294922 -81.8931655883789 L 128.58934020996094 -80.24649810791016 L 128.3070068359375 -79.91799926757812 L 127.9209976196289 -79.39600372314453 L 130.51377868652344 -77.8239974975586 L 131.07200622558594 -77.48554229736328 L 132.20599365234375 -76.7979965209961 L 133.29600524902344 -77.95600128173828 L 134.81500244140625 -79.08000183105469 L 134.94500732421875 -79.16000366210938 L 134.93296813964844 -79.16729736328125 L 134.6167449951172 -79.35914611816406 M 130.42259216308594 -66.34834289550781 L 131.07200622558594 -65.95445251464844 L 131.6909942626953 -65.5790023803711 L 131.621826171875 -65.69316864013672 L 131.51283264160156 -65.86383056640625 L 131.07200622558594 -66.54862976074219 L 131.03700256347656 -66.60299682617188 L 131.02587890625 -66.62628936767578 L 130.56500244140625 -67.59100341796875 L 130.13900756835938 -69.02300262451172 L 130.07443237304688 -69.63200378417969 L 129.97900390625 -70.53199768066406 L 129.9739990234375 -70.78500366210938 L 129.85569763183594 -70.85678100585938 L 129.77207946777344 -70.90751647949219 L 129.52197265625 -71.05926513671875 L 125.12355041503906 -73.72799682617188 L 124.99500274658203 -73.80599975585938 L 124.82599639892578 -73.9020004272461 L 124.7559585571289 -73.72799682617188 L 124.66699981689453 -73.50700378417969 L 123.95700073242188 -71.37033081054688 L 123.81366729736328 -70.93800354003906 L 123.70532989501953 -70.51466369628906 L 123.68499755859375 -70.43499755859375 L 125.0088882446289 -69.63200378417969 L 130.42259216308594 -66.34834289550781 M 116.75849914550781 -268.1026611328125 L 116.6259994506836 -266.1059875488281 L 116.42105102539062 -262.2159729003906 L 116.4209976196289 -262.2149963378906 L 116.53669738769531 -262.1440124511719 L 122.0009994506836 -258.79083251953125 L 124.12699890136719 -257.48583984375 L 131.07200622558594 -253.216552734375 L 132.32032775878906 -252.4491729736328 L 132.9855499267578 -252.03915405273438 L 132.99282836914062 -252.03466796875 L 133.5261688232422 -251.70216369628906 L 133.58900451660156 -251.66299438476562 L 133.5945587158203 -251.66378784179688 L 133.5972900390625 -251.6641845703125 L 133.62863159179688 -251.6686553955078 L 133.67999267578125 -251.67599487304688 L 133.7969970703125 -251.77200317382812 L 137.348876953125 -253.95199584960938 L 139.14599609375 -255.05499267578125 L 131.07200622558594 -259.9719543457031 L 127.50537109375 -262.1440124511719 L 122.87999725341797 -264.9607849121094 L 121.34969329833984 -265.8927307128906 L 116.80400085449219 -268.6610107421875 L 116.80166625976562 -268.64715576171875 L 116.78585052490234 -268.5148010253906 L 116.78583526611328 -268.5146789550781 L 116.75849914550781 -268.1026611328125 M 123.45233154296875 -275.8826599121094 L 123.45234680175781 -275.8827209472656 L 123.47083282470703 -275.92816162109375 L 123.58480072021484 -276.21905517578125 L 123.58972930908203 -276.2316589355469 L 123.58999633789062 -276.2323303222656 L 123.59333038330078 -276.2631530761719 L 123.59390258789062 -276.26812744140625 L 123.59400177001953 -276.2690124511719 L 122.87999725341797 -276.7021484375 L 119.87024688720703 -278.52801513671875 L 119.13999938964844 -278.97100830078125 L 119.06199645996094 -278.8330078125 L 118.95513916015625 -278.52801513671875 L 118.24600219726562 -276.5039978027344 L 117.98100280761719 -275.5150146484375 L 122.41008758544922 -272.8225402832031 L 122.41100311279297 -272.8219909667969 L 122.44599914550781 -272.9280090332031 L 122.87999725341797 -274.2022399902344 L 122.958251953125 -274.4320068359375 L 123.28016662597656 -275.3771667480469 L 123.45233154296875 -275.8826599121094 M 124.37550354003906 -277.9348449707031 L 124.61599731445312 -278.357177734375 L 124.7132797241211 -278.52801513671875 L 125.78099822998047 -280.40301513671875 L 125.88700103759766 -280.5780029296875 L 125.841552734375 -280.6055908203125 L 125.72765350341797 -280.6747741699219 L 122.87999725341797 -282.40411376953125 L 121.60399627685547 -283.1789855957031 L 121.48999786376953 -283.0379943847656 L 121.11659240722656 -282.4680480957031 L 120.06700134277344 -280.8659973144531 L 119.74500274658203 -280.2720031738281 L 119.84197998046875 -280.2129821777344 L 122.6103744506836 -278.52801513671875 L 122.87999725341797 -278.3638916015625 L 123.82433319091797 -277.78912353515625 L 124.18550109863281 -277.5693054199219 L 124.18599700927734 -277.5690002441406 L 124.18628692626953 -277.5695495605469 L 124.21133422851562 -277.6189880371094 L 124.37547302246094 -277.9347839355469 L 124.37550354003906 -277.9348449707031 M 121.7040023803711 -269.322998046875 L 121.87447357177734 -270.33599853515625 L 122.05000305175781 -271.3789978027344 L 121.94094848632812 -271.44512939453125 L 117.6520004272461 -274.0459899902344 L 117.64600372314453 -274.0429992675781 L 117.53800201416016 -273.5220031738281 L 117.47083282470703 -273.1623229980469 L 117.100830078125 -271.1756591796875 L 117.09200286865234 -271.1239929199219 L 117.0270004272461 -270.6606750488281 L 117.0094985961914 -270.5224914550781 L 116.98912811279297 -270.33599853515625 L 116.97699737548828 -270.2250061035156 L 117.04199981689453 -270.114013671875 L 117.63600158691406 -269.7409973144531 L 121.2750015258789 -267.510009765625 L 121.50299835205078 -267.37701416015625 L 121.7040023803711 -269.322998046875 M 176.5760040283203 -273.4880065917969 L 176.63108825683594 -273.5627136230469 L 176.63111877441406 -273.5627746582031 L 176.81202697753906 -273.80810546875 L 178.66200256347656 -276.3169860839844 L 176.67300415039062 -276.3290100097656 L 176.65899658203125 -276.31201171875 L 174.91799926757812 -273.80499267578125 L 174.30799865722656 -273.8039855957031 L 174.3179931640625 -276.32598876953125 L 172.66700744628906 -276.32598876953125 L 172.662353515625 -273.8013000488281 L 172.65866088867188 -271.7959899902344 L 172.65699768066406 -270.59466552734375 L 172.65699768066406 -270.33599853515625 L 172.65699768066406 -269.1180114746094 L 174.41299438476562 -269.10101318359375 L 175.82699584960938 -269.1449890136719 L 176.68899536132812 -269.40301513671875 L 177.30299377441406 -269.8810119628906 L 177.54403686523438 -270.33599853515625 L 177.66799926757812 -270.57000732421875 L 177.7760009765625 -271.4679870605469 L 177.74099731445312 -271.8388366699219 L 177.73367309570312 -271.91534423828125 L 177.59866333007812 -272.3611755371094 L 177.57200622558594 -272.447998046875 L 177.35533142089844 -272.8021545410156 L 177.30450439453125 -272.88232421875 L 177.28199768066406 -272.91400146484375 L 177.02532958984375 -273.1698303222656 L 176.9770050048828 -273.2179870605469 L 176.5760040283203 -273.4880065917969 M 130.7584991455078 -276.0306701660156 L 131.07200622558594 -276.64825439453125 L 131.2310028076172 -276.96148681640625 L 131.31399536132812 -277.125 L 131.3800048828125 -277.24700927734375 L 131.37689208984375 -277.2488708496094 L 131.2089385986328 -277.3507385253906 L 131.07200622558594 -277.4337463378906 L 129.2674102783203 -278.52801513671875 L 127.10700225830078 -279.8380126953125 L 126.9800033569336 -279.64801025390625 L 126.3450927734375 -278.52801513671875 L 125.572998046875 -277.1659851074219 L 125.41699981689453 -276.822998046875 L 126.97599792480469 -275.8772888183594 L 129.35858154296875 -274.4320068359375 L 130.10699462890625 -273.9779968261719 L 130.12242126464844 -273.9695739746094 L 130.12899780273438 -273.96600341796875 L 130.15199279785156 -274.0920104980469 L 130.23414611816406 -274.4320068359375 L 130.375 -275.0150146484375 L 130.4258270263672 -275.1546630859375 L 130.69583129882812 -275.8963317871094 L 130.73583984375 -275.982177734375 L 130.7584991455078 -276.0306701660156 M 281.0478820800781 294.76995849609375 L 281.07958984375 294.9119873046875 L 281.1700134277344 295.3169860839844 L 281.741455078125 295.7547302246094 L 281.781005859375 295.7850036621094 L 282.20843505859375 295.8165283203125 L 282.58953857421875 295.8669738769531 L 283.0820617675781 295.582763671875 L 283.5299987792969 295.3169860839844 L 283.63824462890625 294.9119873046875 L 283.8240051269531 294.2170104980469 L 283.5299987792969 293.5060119628906 L 282.91900634765625 293.0379943847656 L 282.6878967285156 293.02093505859375 L 282.492919921875 293.00653076171875 L 282.1110534667969 292.95599365234375 L 282.091064453125 292.9768371582031 L 281.5166320800781 293.57635498046875 L 280.9206237792969 294.1999816894531 L 280.9010314941406 294.2204895019531 L 281.0478820800781 294.76995849609375 M 143.3376007080078 117.30474090576172 L 143.64065551757812 117.07176971435547 L 144.00851440429688 116.75495147705078 L 144.118408203125 115.9202880859375 L 144.13092041015625 115.80936431884766 L 144.20700073242188 115.13500213623047 L 144.02659606933594 114.99128723144531 L 143.64585876464844 114.68800354003906 L 143.58938598632812 114.64300537109375 L 142.9215545654297 114.13052368164062 L 142.2979278564453 114.2551498413086 L 141.67555236816406 114.42198181152344 L 141.44577026367188 114.68800354003906 L 141.3582305908203 114.78934478759766 L 141.20135498046875 114.99378204345703 L 141.09300231933594 115.13500213623047 L 141.32476806640625 116.08155059814453 L 141.4138641357422 116.86683654785156 L 141.73757934570312 117.08275604248047 L 141.94288635253906 117.21968841552734 L 142.1783447265625 117.33323669433594 L 142.3789520263672 117.42997741699219 L 142.81101989746094 117.37353515625 L 143.2949981689453 117.3375015258789 L 143.3376007080078 117.30474090576172 M 205.35299682617188 -73.18499755859375 L 205.13925170898438 -73.72799682617188 L 204.75900268554688 -74.69400024414062 L 203.09800720214844 -74.68900299072266 L 203.4967498779297 -73.72799682617188 L 204.8000030517578 -70.58712005615234 L 206.0158233642578 -67.65694427490234 L 206.08799743652344 -67.48300170898438 L 207.56399536132812 -67.48600006103516 L 208.0403289794922 -68.62983703613281 L 210.16221618652344 -73.72799682617188 L 210.5403289794922 -74.6364974975586 L 210.56399536132812 -74.69400024414062 L 208.7989959716797 -74.69400024414062 L 208.4169464111328 -73.72799682617188 L 208.2010040283203 -73.18199920654297 L 205.35299682617188 -73.18499755859375 M 182.06300354003906 -70.31099700927734 L 184.32000732421875 -70.31099700927734 L 184.375 -70.31099700927734 L 184.3800048828125 -71.85399627685547 L 184.32000732421875 -71.8541030883789 L 182.06300354003906 -71.85800170898438 L 182.06300354003906 -73.16000366210938 L 184.32000732421875 -73.16000366210938 L 184.3842315673828 -73.16000366210938 L 184.79400634765625 -73.16000366210938 L 184.79400634765625 -73.72799682617188 L 184.79400634765625 -73.93766021728516 L 184.79400634765625 -74.70700073242188 L 180.41099548339844 -74.70700073242188 L 180.41099548339844 -73.72799682617188 L 180.41099548339844 -73.16000366210938 L 180.41099548339844 -71.86085510253906 L 180.41099548339844 -69.63200378417969 L 180.41099548339844 -67.49700164794922 L 182.06300354003906 -67.49700164794922 L 184.68899536132812 -67.49700164794922 L 184.68899536132812 -69.04399871826172 L 182.06300354003906 -69.04399871826172 L 182.06300354003906 -69.63200378417969 L 182.06300354003906 -70.31099700927734 M 216.21600341796875 -273.4599914550781 L 216.2233428955078 -273.4699401855469 L 216.40785217285156 -273.7195129394531 L 216.44033813476562 -273.7634582519531 L 218.31100463867188 -276.29400634765625 L 216.31300354003906 -276.2980041503906 L 214.56100463867188 -273.7760009765625 L 213.96099853515625 -273.7799987792969 L 213.96099853515625 -276.302001953125 L 212.99200439453125 -276.304931640625 L 212.64419555664062 -276.3059997558594 L 212.31500244140625 -276.3070068359375 L 212.31500244140625 -276.3059997558594 L 212.3075408935547 -270.33599853515625 L 212.30599975585938 -269.09698486328125 L 212.99200439453125 -269.0955810546875 L 215.22500610351562 -269.09100341796875 L 215.45794677734375 -269.1429443359375 L 216.1580047607422 -269.29901123046875 L 216.82400512695312 -269.72198486328125 L 217.2179718017578 -270.33599853515625 L 217.27699279785156 -270.4280090332031 L 217.42599487304688 -271.37799072265625 L 217.28399658203125 -272.2659912109375 L 216.85000610351562 -272.9859924316406 L 216.28799438476562 -273.4200134277344 L 216.21600341796875 -273.4599914550781 M 130.2136688232422 -285.6960144042969 L 131.07200622558594 -286.4153747558594 L 131.43545532226562 -286.7200012207031 L 132.128662109375 -287.3009948730469 L 132.50100708007812 -287.6130065917969 L 132.66400146484375 -287.7409973144531 L 132.65805053710938 -287.7445983886719 L 131.07200622558594 -288.7075500488281 L 128.76699829101562 -290.10699462890625 L 128.5153350830078 -289.90948486328125 L 128.42066955566406 -289.8338317871094 L 126.60733032226562 -288.35382080078125 L 126.28900146484375 -288.093994140625 L 126.01100158691406 -287.85198974609375 L 127.8801040649414 -286.7200012207031 L 129.87713623046875 -285.5105285644531 L 129.94834899902344 -285.4674072265625 L 129.94900512695312 -285.4670104980469 L 130.16065979003906 -285.65032958984375 L 130.2136688232422 -285.6960144042969 M 205.35299682617188 -274.7969970703125 L 204.8000030517578 -276.20184326171875 L 204.75900268554688 -276.3059997558594 L 203.09800720214844 -276.3009948730469 L 203.87350463867188 -274.4320068359375 L 204.8000030517578 -272.1991271972656 L 205.5730743408203 -270.33599853515625 L 206.08509826660156 -269.10198974609375 L 206.08799743652344 -269.0950012207031 L 207.56399536132812 -269.0979919433594 L 207.56565856933594 -269.10198974609375 L 208.0403289794922 -270.2418212890625 L 208.07952880859375 -270.33599853515625 L 210.5403289794922 -276.2485046386719 L 210.56399536132812 -276.3059997558594 L 208.7989959716797 -276.3059997558594 L 208.2010040283203 -274.79400634765625 L 205.35299682617188 -274.7969970703125 M 125.00599670410156 -282.7786560058594 L 125.265380859375 -282.6239929199219 L 126.66883850097656 -281.7871398925781 L 126.71099853515625 -281.7619934082031 L 127.21700286865234 -282.43499755859375 L 127.37691497802734 -282.6239929199219 L 128.68499755859375 -284.1700134277344 L 128.91799926757812 -284.4320068359375 L 125.14218139648438 -286.7200012207031 L 124.9260025024414 -286.85101318359375 L 124.78673553466797 -286.7200012207031 L 124.5719985961914 -286.51800537109375 L 123.20800018310547 -285.1109924316406 L 122.87999725341797 -284.7382507324219 L 122.49700164794922 -284.3030090332031 L 122.84733581542969 -284.0893249511719 L 122.87999725341797 -284.0694274902344 L 124.64945983886719 -282.99127197265625 L 124.65399932861328 -282.9884948730469 L 125.00599670410156 -282.7786560058594 M 114.75900268554688 90.91500091552734 L 114.68800354003906 90.86066436767578 L 114.447998046875 90.677001953125 L 114.08599853515625 90.5270004272461 L 113.697998046875 90.47599792480469 L 113.30999755859375 90.5270004272461 L 112.947998046875 90.677001953125 L 112.63700103759766 90.91500091552734 L 112.39900207519531 91.22599792480469 L 112.2490005493164 91.58799743652344 L 112.197998046875 91.97599792480469 L 112.22218322753906 92.16000366210938 L 112.2490005493164 92.36399841308594 L 112.39900207519531 92.72599792480469 L 112.63700103759766 93.03700256347656 L 112.947998046875 93.2750015258789 L 113.30999755859375 93.42500305175781 L 113.697998046875 93.47599792480469 L 114.08599853515625 93.42500305175781 L 114.447998046875 93.2750015258789 L 114.68800354003906 93.0913314819336 L 114.75900268554688 93.03700256347656 L 114.99700164794922 92.72599792480469 L 115.14700317382812 92.36399841308594 L 115.197998046875 91.97599792480469 L 115.14700317382812 91.58799743652344 L 114.99700164794922 91.22599792480469 L 114.75900268554688 90.91500091552734 M 129.85569763183594 -272.4687805175781 L 129.77207946777344 -272.5195007324219 L 126.62005615234375 -274.4320068359375 L 124.99500274658203 -275.4179992675781 L 124.82599639892578 -275.5140075683594 L 124.66699981689453 -275.1189880371094 L 124.43871307373047 -274.4320068359375 L 123.95700073242188 -272.9823303222656 L 123.81366729736328 -272.54998779296875 L 123.70532989501953 -272.1266784667969 L 123.68499755859375 -272.0469970703125 L 126.50589752197266 -270.33599853515625 L 131.07200622558594 -267.5664367675781 L 131.6909942626953 -267.1910095214844 L 131.621826171875 -267.30517578125 L 131.51283264160156 -267.475830078125 L 131.07200622558594 -268.16064453125 L 131.03700256347656 -268.2149963378906 L 131.02587890625 -268.23828125 L 130.56500244140625 -269.2030029296875 L 130.2279510498047 -270.33599853515625 L 130.13900756835938 -270.635009765625 L 129.97900390625 -272.1440124511719 L 129.9739990234375 -272.3970031738281 L 129.85569763183594 -272.4687805175781 M 114.447998046875 -85.36000061035156 L 114.68800354003906 -85.54443359375 L 114.75900268554688 -85.5989990234375 L 114.99700164794922 -85.90899658203125 L 115.14700317382812 -86.27100372314453 L 115.197998046875 -86.65899658203125 L 115.14700317382812 -87.0479965209961 L 115.07952117919922 -87.21039581298828 L 115.0770263671875 -87.2164077758789 L 114.99700164794922 -87.40899658203125 L 114.75900268554688 -87.72000122070312 L 114.68800354003906 -87.77433776855469 L 114.447998046875 -87.95800018310547 L 114.08599853515625 -88.10800170898438 L 113.697998046875 -88.15899658203125 L 113.30999755859375 -88.10800170898438 L 112.947998046875 -87.95800018310547 L 112.63700103759766 -87.72000122070312 L 112.39900207519531 -87.40899658203125 L 112.2490005493164 -87.0479965209961 L 112.197998046875 -86.65899658203125 L 112.2490005493164 -86.27100372314453 L 112.35466003417969 -86.01599884033203 L 112.39900207519531 -85.90899658203125 L 112.63700103759766 -85.5989990234375 L 112.947998046875 -85.36000061035156 L 113.30999755859375 -85.20999908447266 L 113.697998046875 -85.15899658203125 L 114.08599853515625 -85.20999908447266 L 114.447998046875 -85.36000061035156 M 123.3489990234375 -270.5780029296875 L 123.30573272705078 -270.33599853515625 L 123.20899963378906 -269.7950134277344 L 122.93499755859375 -267.4440002441406 L 122.89099884033203 -266.5169982910156 L 130.0133514404297 -262.1440124511719 L 131.07200622558594 -261.4940185546875 L 139.51199340820312 -256.31201171875 L 140.28799438476562 -255.8459930419922 L 140.43099975585938 -255.84300231933594 L 141.0030059814453 -256.18701171875 L 143.08883666992188 -257.4686584472656 L 143.5921630859375 -257.77850341796875 L 144.0229949951172 -258.0459899902344 L 137.2692108154297 -262.1440124511719 L 132.88699340820312 -264.8030090332031 L 131.07200622558594 -265.90423583984375 L 123.76774597167969 -270.33599853515625 L 123.35900115966797 -270.5840148925781 L 123.3489990234375 -270.5780029296875 M 143.08883666992188 -55.856666564941406 L 143.5921630859375 -56.166500091552734 L 144.0229949951172 -56.433998107910156 L 142.52325439453125 -57.34400177001953 L 132.88699340820312 -63.191001892089844 L 131.07200622558594 -64.29222869873047 L 129.02206420898438 -65.53600311279297 L 123.35900115966797 -68.97200012207031 L 123.3489990234375 -68.96600341796875 L 123.20899963378906 -68.18299865722656 L 122.93499755859375 -65.83200073242188 L 122.92095184326172 -65.53600311279297 L 122.89099884033203 -64.90499877929688 L 131.07200622558594 -59.88201141357422 L 135.2056884765625 -57.34400177001953 L 139.51199340820312 -54.70000076293945 L 140.28799438476562 -54.23400115966797 L 140.43099975585938 -54.23099899291992 L 141.0030059814453 -54.57500076293945 L 143.08883666992188 -55.856666564941406 M 123.20800018310547 -83.4990005493164 L 122.87999725341797 -83.12625122070312 L 122.49700164794922 -82.69100189208984 L 122.84733581542969 -82.47733306884766 L 122.87999725341797 -82.45742797851562 L 123.76201629638672 -81.91999816894531 L 124.64945983886719 -81.37926483154297 L 124.65399932861328 -81.37650299072266 L 125.00599670410156 -81.16666412353516 L 126.66883850097656 -80.17514038085938 L 126.71099853515625 -80.1500015258789 L 127.21700286865234 -80.822998046875 L 128.1451873779297 -81.91999816894531 L 128.68499755859375 -82.55799865722656 L 128.91603088378906 -82.81778717041016 L 128.91799926757812 -82.81999969482422 L 124.9260025024414 -85.23899841308594 L 124.92570495605469 -85.23872375488281 L 124.5719985961914 -84.90599822998047 L 123.20800018310547 -83.4990005493164 M 146.04583740234375 -79.67716979980469 L 147.36599731445312 -78.87699890136719 L 147.00999450683594 -79.51100158691406 L 145.6510009765625 -81.49700164794922 L 145.29736328125 -81.91999816894531 L 143.93299865722656 -83.552001953125 L 141.6540069580078 -85.84100341796875 L 139.26400756835938 -87.85645294189453 L 138.89100646972656 -88.1709976196289 L 138.85231018066406 -88.1991195678711 L 136.2203826904297 -90.11199951171875 L 135.45399475097656 -90.66899871826172 L 133.70899963378906 -91.83399963378906 L 133.55099487304688 -91.84500122070312 L 132.97000122070312 -91.4729995727539 L 131.38999938964844 -90.39633178710938 L 131.07200622558594 -90.17963409423828 L 131.06666564941406 -90.1760025024414 L 130.97654724121094 -90.11199951171875 L 130.17832946777344 -89.545166015625 L 130.00799560546875 -89.42400360107422 L 131.07200622558594 -88.77588653564453 L 133.81704711914062 -87.10379791259766 L 133.8667755126953 -87.0735092163086 L 135.3855743408203 -86.14836883544922 L 137.45716857910156 -84.8864974975586 L 139.02999877929688 -83.9288330078125 L 139.26400756835938 -83.78702545166016 L 142.3448486328125 -81.91999816894531 L 146.04583740234375 -79.67716979980469 M 121.7040023803711 -67.71099853515625 L 122.02728271484375 -69.63200378417969 L 122.05000305175781 -69.76699829101562 L 121.94094848632812 -69.8331298828125 L 117.6520004272461 -72.43399810791016 L 117.64600372314453 -72.43099975585938 L 117.53800201416016 -71.91000366210938 L 117.47083282470703 -71.55033111572266 L 117.11356353759766 -69.63200378417969 L 117.100830078125 -69.56366729736328 L 117.09200286865234 -69.51200103759766 L 117.0270004272461 -69.04866790771484 L 117.0094985961914 -68.9104995727539 L 116.97699737548828 -68.61299896240234 L 117.04199981689453 -68.50199890136719 L 117.63600158691406 -68.12899780273438 L 121.2750015258789 -65.89800262451172 L 121.50299835205078 -65.76499938964844 L 121.7040023803711 -67.71099853515625 M 284.2090148925781 -287.21099853515625 L 284.4469909667969 -287.52099609375 L 284.59698486328125 -287.88299560546875 L 284.64801025390625 -288.27099609375 L 284.59698486328125 -288.6600036621094 L 284.4469909667969 -289.02099609375 L 284.2090148925781 -289.3320007324219 L 283.89801025390625 -289.57000732421875 L 283.5360107421875 -289.7200012207031 L 283.14801025390625 -289.77099609375 L 282.760009765625 -289.7200012207031 L 282.6239929199219 -289.66363525390625 L 282.39801025390625 -289.57000732421875 L 282.0880126953125 -289.3320007324219 L 281.8489990234375 -289.02099609375 L 281.6990051269531 -288.6600036621094 L 281.64801025390625 -288.27099609375 L 281.6990051269531 -287.88299560546875 L 281.8489990234375 -287.52099609375 L 282.0880126953125 -287.21099853515625 L 282.39801025390625 -286.97198486328125 L 282.6239929199219 -286.87835693359375 L 282.760009765625 -286.8219909667969 L 283.14801025390625 -286.77099609375 L 283.5360107421875 -286.8219909667969 L 283.89801025390625 -286.97198486328125 L 284.2090148925781 -287.21099853515625 M 114.447998046875 -286.97198486328125 L 114.68800354003906 -287.15643310546875 L 114.75900268554688 -287.21099853515625 L 114.99700164794922 -287.52099609375 L 115.14700317382812 -287.88299560546875 L 115.197998046875 -288.27099609375 L 115.14700317382812 -288.6600036621094 L 114.99700164794922 -289.02099609375 L 114.75900268554688 -289.3320007324219 L 114.68800354003906 -289.3863220214844 L 114.447998046875 -289.57000732421875 L 114.08599853515625 -289.7200012207031 L 113.697998046875 -289.77099609375 L 113.30999755859375 -289.7200012207031 L 112.947998046875 -289.57000732421875 L 112.63700103759766 -289.3320007324219 L 112.39900207519531 -289.02099609375 L 112.29387664794922 -288.76800537109375 L 112.2490005493164 -288.6600036621094 L 112.197998046875 -288.27099609375 L 112.2490005493164 -287.88299560546875 L 112.39900207519531 -287.52099609375 L 112.63700103759766 -287.21099853515625 L 112.947998046875 -286.97198486328125 L 113.30999755859375 -286.8219909667969 L 113.697998046875 -286.77099609375 L 114.08599853515625 -286.8219909667969 L 114.447998046875 -286.97198486328125 M 147.45599365234375 -261.7887878417969 L 146.8709716796875 -262.1440124511719 L 140.42799377441406 -266.0559997558594 L 140.42141723632812 -262.1440124511719 L 140.42100524902344 -261.89300537109375 L 145.3782958984375 -258.8874816894531 L 145.38900756835938 -258.8810119628906 L 147.45599365234375 -260.15374755859375 L 148.79299926757812 -260.97698974609375 L 147.45599365234375 -261.7887878417969 M 145.38900756835938 -57.26900100708008 L 145.51080322265625 -57.34400177001953 L 147.45599365234375 -58.541748046875 L 148.79299926757812 -59.3650016784668 L 147.45599365234375 -60.176788330078125 L 140.42799377441406 -64.44400024414062 L 140.42100524902344 -60.28099822998047 L 145.26528930664062 -57.34400177001953 L 145.3782958984375 -57.275489807128906 L 145.38900756835938 -57.26900100708008 M 150.43104553222656 -67.0978012084961 L 150.38099670410156 -67.51799774169922 L 150.12100219726562 -69.6729965209961 L 150.07200622558594 -69.98400115966797 L 147.45599365234375 -71.57097625732422 L 143.90032958984375 -73.72799682617188 L 140.43699645996094 -75.8290023803711 L 140.42100524902344 -75.83699798583984 L 140.42100524902344 -73.72799682617188 L 140.42100524902344 -71.81199645996094 L 147.45599365234375 -67.5530776977539 L 150.5500030517578 -65.68000030517578 L 150.531494140625 -65.90049743652344 L 150.4340057373047 -67.072998046875 L 150.43104553222656 -67.0978012084961 M 128.3070068359375 -281.5299987792969 L 127.9209976196289 -281.00799560546875 L 131.07200622558594 -279.0975341796875 L 132.01138305664062 -278.52801513671875 L 132.20599365234375 -278.4100036621094 L 132.31707763671875 -278.52801513671875 L 133.29600524902344 -279.5679931640625 L 134.81500244140625 -280.6919860839844 L 134.94500732421875 -280.7720031738281 L 134.93296813964844 -280.779296875 L 134.6167449951172 -280.9711608886719 L 131.07200622558594 -283.12176513671875 L 130.1699981689453 -283.66900634765625 L 130.03334045410156 -283.5331726074219 L 130.0051727294922 -283.5051574707031 L 129.24752807617188 -282.6239929199219 L 128.58934020996094 -281.8584899902344 L 128.3070068359375 -281.5299987792969 M 112.2490005493164 -109.24800109863281 L 112.39900207519531 -108.88600158691406 L 112.63700103759766 -108.57499694824219 L 112.947998046875 -108.33699798583984 L 113.30999755859375 -108.18699645996094 L 113.697998046875 -108.13600158691406 L 114.08599853515625 -108.18699645996094 L 114.447998046875 -108.33699798583984 L 114.68800354003906 -108.52066802978516 L 114.75900268554688 -108.57499694824219 L 114.99700164794922 -108.88600158691406 L 115.14700317382812 -109.24800109863281 L 115.197998046875 -109.63600158691406 L 115.14700317382812 -110.02400207519531 L 114.99700164794922 -110.38600158691406 L 114.75900268554688 -110.6969985961914 L 114.68800354003906 -110.75133514404297 L 114.447998046875 -110.93499755859375 L 114.08599853515625 -111.08499908447266 L 113.697998046875 -111.13600158691406 L 113.30999755859375 -111.08499908447266 L 112.947998046875 -110.93499755859375 L 112.63700103759766 -110.6969985961914 L 112.55664825439453 -110.59200286865234 L 112.39900207519531 -110.38600158691406 L 112.2490005493164 -110.02400207519531 L 112.197998046875 -109.63600158691406 L 112.2490005493164 -109.24800109863281 M 163.12533569335938 -72.61299896240234 L 163.0630340576172 -72.48612976074219 L 163.06100463867188 -72.48200225830078 L 163.02883911132812 -72.32966613769531 L 162.85800170898438 -71.5479965209961 L 162.8470001220703 -70.84100341796875 L 163.0590057373047 -69.79199981689453 L 163.1431121826172 -69.63200378417969 L 163.1447296142578 -69.6289291381836 L 163.18588256835938 -69.55066680908203 L 163.53900146484375 -68.87899780273438 L 163.83999633789062 -68.54247283935547 L 164.0050048828125 -68.35800170898438 L 164.45916748046875 -68.01883697509766 L 164.55299377441406 -67.9488296508789 L 165.10549926757812 -67.68216705322266 L 165.21299743652344 -67.63099670410156 L 165.9239959716797 -67.44499969482422 L 166.02349853515625 -67.43633270263672 L 166.5501708984375 -67.3906478881836 L 166.5518341064453 -67.3905029296875 L 166.61349487304688 -67.39216613769531 L 166.64816284179688 -67.39299774169922 L 167.31483459472656 -67.43716430664062 L 167.4320068359375 -67.44499969482422 L 168.18600463867188 -67.64099884033203 L 168.29783630371094 -67.6951675415039 L 168.87197875976562 -67.97765350341797 L 168.8719940185547 -67.97766876220703 L 168.96766662597656 -68.05183410644531 L 169.43099975585938 -68.41100311279297 L 169.8939971923828 -68.96700286865234 L 169.92849731445312 -69.02783203125 L 170.11183166503906 -69.35116577148438 L 170.15415954589844 -69.45983123779297 L 170.2201385498047 -69.63200378417969 L 170.35499572753906 -69.98400115966797 L 170.45582580566406 -70.54066467285156 L 170.47666931152344 -70.65550231933594 L 170.47666931152344 -70.65570068359375 L 170.48916625976562 -71.27300262451172 L 170.49099731445312 -71.39299774169922 L 170.40682983398438 -71.9471664428711 L 170.3893280029297 -72.0615005493164 L 170.1626739501953 -72.69400024414062 L 170.1179962158203 -72.81700134277344 L 169.81300354003906 -73.3290023803711 L 169.46719360351562 -73.72799682617188 L 169.42300415039062 -73.77899932861328 L 168.4669952392578 -74.4469985961914 L 167.81100463867188 -74.69100189208984 L 167.68983459472656 -74.71299743652344 L 167.06695556640625 -74.82292175292969 L 167.06649780273438 -74.822998046875 L 166.95616149902344 -74.82516479492188 L 166.4219970703125 -74.83599853515625 L 166.263671875 -74.8201675415039 L 166.21859741210938 -74.81441497802734 L 166.21533203125 -74.81400299072266 L 165.5328369140625 -74.69233703613281 L 165.41299438476562 -74.6709976196289 L 164.63099670410156 -74.34600067138672 L 164.51983642578125 -74.2663345336914 L 163.9498291015625 -73.85133361816406 L 163.84500122070312 -73.72799682617188 L 163.83999633789062 -73.72211456298828 L 163.4374237060547 -73.24849700927734 L 163.43699645996094 -73.24800109863281 L 163.12533569335938 -72.61299896240234 M 282.0880126953125 -108.57499694824219 L 282.39801025390625 -108.33699798583984 L 282.6239929199219 -108.24335479736328 L 282.760009765625 -108.18699645996094 L 283.14801025390625 -108.13600158691406 L 283.5360107421875 -108.18699645996094 L 283.89801025390625 -108.33699798583984 L 284.2090148925781 -108.57499694824219 L 284.4469909667969 -108.88600158691406 L 284.59698486328125 -109.24800109863281 L 284.64801025390625 -109.63600158691406 L 284.59698486328125 -110.02400207519531 L 284.4469909667969 -110.38600158691406 L 284.28936767578125 -110.59200286865234 L 284.2090148925781 -110.6969985961914 L 283.89801025390625 -110.93499755859375 L 283.5360107421875 -111.08499908447266 L 283.14801025390625 -111.13600158691406 L 282.760009765625 -111.08499908447266 L 282.39801025390625 -110.93499755859375 L 282.0880126953125 -110.6969985961914 L 282.0072937011719 -110.59200286865234 L 281.8489990234375 -110.38600158691406 L 281.6990051269531 -110.02400207519531 L 281.64801025390625 -109.63600158691406 L 281.6990051269531 -109.24800109863281 L 281.8489990234375 -108.88600158691406 L 282.0880126953125 -108.57499694824219 M 165.5328369140625 -276.3043212890625 L 165.41299438476562 -276.2829895019531 L 164.63099670410156 -275.9580078125 L 164.51983642578125 -275.8783264160156 L 163.9498291015625 -275.4633483886719 L 163.83999633789062 -275.3341064453125 L 163.4374237060547 -274.8605041503906 L 163.43699645996094 -274.8599853515625 L 163.2269287109375 -274.4320068359375 L 163.12533569335938 -274.2250061035156 L 163.0630340576172 -274.09814453125 L 163.06100463867188 -274.093994140625 L 163.02883911132812 -273.9416809082031 L 162.85800170898438 -273.1600036621094 L 162.8470001220703 -272.4530029296875 L 163.0590057373047 -271.40399169921875 L 163.53900146484375 -270.4909973144531 L 163.67764282226562 -270.33599853515625 L 163.83999633789062 -270.15447998046875 L 164.0050048828125 -269.9700012207031 L 164.45916748046875 -269.6308288574219 L 164.55299377441406 -269.5608215332031 L 165.10549926757812 -269.2941589355469 L 165.21299743652344 -269.2430114746094 L 165.9239959716797 -269.0570068359375 L 166.02349853515625 -269.04833984375 L 166.5501708984375 -269.0026550292969 L 166.5518341064453 -269.00250244140625 L 166.61349487304688 -269.0041809082031 L 166.64816284179688 -269.0050048828125 L 167.31483459472656 -269.0491638183594 L 167.4320068359375 -269.0570068359375 L 168.18600463867188 -269.25299072265625 L 168.29783630371094 -269.3071594238281 L 168.87197875976562 -269.58966064453125 L 168.8719940185547 -269.58966064453125 L 168.96766662597656 -269.663818359375 L 169.43099975585938 -270.02301025390625 L 169.691650390625 -270.33599853515625 L 169.8939971923828 -270.5790100097656 L 169.92849731445312 -270.63983154296875 L 170.11183166503906 -270.9631652832031 L 170.15415954589844 -271.07183837890625 L 170.35499572753906 -271.59600830078125 L 170.45582580566406 -272.1526794433594 L 170.47666931152344 -272.2674865722656 L 170.47666931152344 -272.2677001953125 L 170.48916625976562 -272.885009765625 L 170.49099731445312 -273.0050048828125 L 170.40682983398438 -273.5591735839844 L 170.3893280029297 -273.6734924316406 L 170.1626739501953 -274.3059997558594 L 170.1179962158203 -274.4289855957031 L 170.1162109375 -274.4320068359375 L 169.81300354003906 -274.9410095214844 L 169.42300415039062 -275.3909912109375 L 168.4669952392578 -276.0589904785156 L 167.81100463867188 -276.3030090332031 L 167.68983459472656 -276.32501220703125 L 167.06695556640625 -276.4349060058594 L 167.06649780273438 -276.43499755859375 L 166.95616149902344 -276.4371643066406 L 166.4219970703125 -276.447998046875 L 166.263671875 -276.4321594238281 L 166.21859741210938 -276.4264221191406 L 166.21533203125 -276.4259948730469 L 165.5328369140625 -276.3043212890625 M 131.6909942626953 -83.52200317382812 L 131.21200561523438 -83.08499908447266 L 133.13351440429688 -81.91999816894531 L 138.9969940185547 -78.36499786376953 L 138.99880981445312 -81.91999816894531 L 138.99899291992188 -82.29100036621094 L 133.99200439453125 -85.3239974975586 L 133.92100524902344 -85.28199768066406 L 133.30099487304688 -84.83100128173828 L 131.6909942626953 -83.52200317382812 M 219.85899353027344 -74.68399810791016 L 219.857666015625 -73.72799682617188 L 219.85545349121094 -72.12870025634766 L 219.8489990234375 -67.47699737548828 L 220.5828094482422 -67.46798706054688 L 220.6631622314453 -67.46700286865234 L 221.02783203125 -67.4635009765625 L 221.1840057373047 -67.4620132446289 L 221.9911651611328 -67.45433044433594 L 222.7703399658203 -67.48433685302734 L 222.91700744628906 -67.48999786376953 L 224.18299865722656 -67.81300354003906 L 225.03199768066406 -68.32599639892578 L 225.66200256347656 -69.05000305175781 L 225.91700744628906 -69.55599975585938 L 226.13499450683594 -70.39099884033203 L 226.15199279785156 -71.5 L 225.843994140625 -72.63099670410156 L 225.20599365234375 -73.55699920654297 L 224.97119140625 -73.72799682617188 L 224.28599548339844 -74.22699737548828 L 223.494873046875 -74.52867126464844 L 223.49400329589844 -74.52899932861328 L 222.7656707763672 -74.65316772460938 L 222.61532592773438 -74.6788330078125 L 221.63783264160156 -74.6971664428711 L 221.44700622558594 -74.69999694824219 L 219.85899353027344 -74.68399810791016 M 225.20599365234375 -275.16900634765625 L 224.28599548339844 -275.8389892578125 L 223.494873046875 -276.1406555175781 L 223.49400329589844 -276.1409912109375 L 222.7656707763672 -276.2651672363281 L 222.61532592773438 -276.29083251953125 L 221.63783264160156 -276.3091735839844 L 221.44700622558594 -276.31201171875 L 221.1840057373047 -276.3093566894531 L 219.85899353027344 -276.2959899902344 L 219.85545349121094 -273.7406921386719 L 219.85072326660156 -270.33599853515625 L 219.85043334960938 -270.1221923828125 L 219.8489990234375 -269.0889892578125 L 220.5828094482422 -269.0799865722656 L 220.6631622314453 -269.0790100097656 L 221.02783203125 -269.07550048828125 L 221.9911651611328 -269.06634521484375 L 222.7703399658203 -269.0963439941406 L 222.91700744628906 -269.10198974609375 L 224.18299865722656 -269.42498779296875 L 225.03199768066406 -269.93798828125 L 225.37832641601562 -270.33599853515625 L 225.66200256347656 -270.6619873046875 L 225.91700744628906 -271.1679992675781 L 226.13499450683594 -272.00299072265625 L 226.15199279785156 -273.11199951171875 L 225.843994140625 -274.2430114746094 L 225.20599365234375 -275.16900634765625 M 148.43499755859375 -76.56199645996094 L 147.45599365234375 -77.15617370605469 L 140.4239959716797 -81.42400360107422 L 140.4219970703125 -77.49800109863281 L 146.644775390625 -73.72799682617188 L 147.45599365234375 -73.23653411865234 L 149.7050018310547 -71.8740005493164 L 149.5070037841797 -72.83399963378906 L 149.2696990966797 -73.72799682617188 L 148.74600219726562 -75.70099639892578 L 148.43499755859375 -76.56199645996094 M 282.0880126953125 93.03700256347656 L 282.39801025390625 93.2750015258789 L 282.6239929199219 93.36864471435547 L 282.760009765625 93.42500305175781 L 283.14801025390625 93.47599792480469 L 283.5360107421875 93.42500305175781 L 283.89801025390625 93.2750015258789 L 284.2090148925781 93.03700256347656 L 284.4469909667969 92.72599792480469 L 284.59698486328125 92.36399841308594 L 284.64801025390625 91.97599792480469 L 284.59698486328125 91.58799743652344 L 284.4469909667969 91.22599792480469 L 284.2090148925781 90.91500091552734 L 283.89801025390625 90.677001953125 L 283.5360107421875 90.5270004272461 L 283.14801025390625 90.47599792480469 L 282.760009765625 90.5270004272461 L 282.6239929199219 90.5833511352539 L 282.39801025390625 90.677001953125 L 282.0880126953125 90.91500091552734 L 281.8489990234375 91.22599792480469 L 281.6990051269531 91.58799743652344 L 281.64801025390625 91.97599792480469 L 281.6990051269531 92.36399841308594 L 281.8489990234375 92.72599792480469 L 282.0880126953125 93.03700256347656 M 150.531494140625 -267.51251220703125 L 150.4340057373047 -268.68499755859375 L 150.43104553222656 -268.7098083496094 L 150.38099670410156 -269.1300048828125 L 150.23548889160156 -270.33599853515625 L 150.12100219726562 -271.2850036621094 L 150.07200622558594 -271.59600830078125 L 147.45599365234375 -273.1829833984375 L 140.43699645996094 -277.4410095214844 L 140.42100524902344 -277.4490051269531 L 140.42100524902344 -273.42401123046875 L 145.52183532714844 -270.33599853515625 L 147.45599365234375 -269.1650695800781 L 150.5500030517578 -267.2919921875 L 150.531494140625 -267.51251220703125 M 284.2090148925781 -85.5989990234375 L 284.4469909667969 -85.90899658203125 L 284.4913330078125 -86.01599884033203 L 284.59698486328125 -86.27100372314453 L 284.64801025390625 -86.65899658203125 L 284.59698486328125 -87.0479965209961 L 284.4469909667969 -87.40899658203125 L 284.2090148925781 -87.72000122070312 L 283.89801025390625 -87.95800018310547 L 283.5360107421875 -88.10800170898438 L 283.14801025390625 -88.15899658203125 L 282.760009765625 -88.10800170898438 L 282.39801025390625 -87.95800018310547 L 282.0880126953125 -87.72000122070312 L 281.8489990234375 -87.40899658203125 L 281.6990051269531 -87.0479965209961 L 281.64801025390625 -86.65899658203125 L 281.6990051269531 -86.27100372314453 L 281.8046569824219 -86.01599884033203 L 281.8489990234375 -85.90899658203125 L 282.0880126953125 -85.5989990234375 L 282.39801025390625 -85.36000061035156 L 282.760009765625 -85.20999908447266 L 283.14801025390625 -85.15899658203125 L 283.5360107421875 -85.20999908447266 L 283.89801025390625 -85.36000061035156 L 284.2090148925781 -85.5989990234375 M 131.38999938964844 -292.0083312988281 L 131.07200622558594 -291.7916259765625 L 131.06666564941406 -291.7879943847656 L 130.17832946777344 -291.15716552734375 L 130.00799560546875 -291.0360107421875 L 131.07200622558594 -290.38787841796875 L 133.81704711914062 -288.7157897949219 L 133.8667755126953 -288.6855163574219 L 135.3855743408203 -287.7603759765625 L 137.09353637695312 -286.7200012207031 L 137.45716857910156 -286.4985046386719 L 139.02999877929688 -285.54083251953125 L 139.26400756835938 -285.3990173339844 L 146.04583740234375 -281.2891540527344 L 147.36599731445312 -280.489013671875 L 147.00999450683594 -281.12298583984375 L 145.6510009765625 -283.1090087890625 L 143.93299865722656 -285.16400146484375 L 142.38380432128906 -286.7200012207031 L 141.6540069580078 -287.4530029296875 L 138.89100646972656 -289.7829895019531 L 138.85231018066406 -289.8111267089844 L 135.45399475097656 -292.281005859375 L 133.70899963378906 -293.4460144042969 L 133.55099487304688 -293.4570007324219 L 132.97000122070312 -293.0849914550781 L 131.38999938964844 -292.0083312988281 M 281.37506103515625 114.42198181152344 L 281.1456298828125 114.68800354003906 L 281.0582275390625 114.78934478759766 L 280.7929992675781 115.13500213623047 L 280.6789855957031 116 L 280.8461608886719 116.40340423583984 L 281.0474548339844 116.82026672363281 L 281.05694580078125 116.8399658203125 L 281.79071044921875 117.128173828125 L 282.57000732421875 117.45099639892578 L 283.083984375 117.16278839111328 L 283.6430358886719 116.8399658203125 L 283.85382080078125 116.40340423583984 L 284.02099609375 116 L 283.9070129394531 115.13500213623047 L 283.5639953613281 114.68800354003906 L 283.3760070800781 114.44300079345703 L 282.57000732421875 114.10900115966797 L 281.9974365234375 114.2551498413086 L 281.37506103515625 114.42198181152344 M 112.00667572021484 293.3177795410156 L 111.70148468017578 293.5515441894531 L 111.5728530883789 294.0565490722656 L 111.5728530883789 294.9119873046875 L 111.5728530883789 294.9611511230469 L 111.72000122070312 295.3169860839844 L 112.33100128173828 295.7850036621094 L 113.46900177001953 295.7850036621094 L 114.08000183105469 295.3169860839844 L 114.22685241699219 294.96185302734375 L 114.24423217773438 294.9119873046875 L 114.36799621582031 294.55694580078125 L 114.22113800048828 294.00750732421875 L 114.08000183105469 293.5060119628906 L 113.46900177001953 293.0379943847656 L 112.37194061279297 293.0379943847656 L 112.33100128173828 293.0379943847656 L 112.00667572021484 293.3177795410156 M 112.90057373046875 117.15399932861328 L 113.18478393554688 117.21693420410156 L 113.46900177001953 117.15399932861328 L 113.7741928100586 116.92023468017578 L 114.09851837158203 116.64045715332031 L 114.2271499633789 116.13545227050781 L 114.2456283569336 115.27631378173828 L 114.09848022460938 114.92045593261719 L 113.7748031616211 114.64073181152344 L 113.46900177001953 114.40599822998047 L 112.33100128173828 114.40599822998047 L 111.72000122070312 114.875 L 111.578857421875 115.37650299072266 L 111.4320068359375 115.92594909667969 L 111.57315063476562 116.33085632324219 L 111.7794418334961 116.76342010498047 L 112.0407943725586 116.96360778808594 L 112.08524322509766 116.9976577758789 L 112.33100128173828 117.15399932861328 L 112.90057373046875 117.15399932861328 M 280.8169860839844 -45.27899932861328 L 262.1440124511719 -45.27899932861328 L 196.60800170898438 -45.27899932861328 L 163.83999633789062 -45.27899932861328 L 131.07200622558594 -45.27899932861328 L 116.02899932861328 -45.27899932861328 L 116.02899932861328 1.1102230246251565e-16 L 116.02899932861328 65.53600311279297 L 116.02899932861328 79.16000366210938 L 131.07200622558594 79.16000366210938 L 262.1440124511719 79.16000366210938 L 280.8169860839844 79.16000366210938 L 280.8169860839844 65.53600311279297 L 280.8169860839844 1.1102230246251565e-16 L 280.8169860839844 -45.27899932861328 M 148.43499755859375 -278.17401123046875 L 147.8517303466797 -278.52801513671875 L 147.45599365234375 -278.7681579589844 L 140.4239959716797 -283.0360107421875 L 140.4219970703125 -279.1099853515625 L 141.3826446533203 -278.52801513671875 L 147.45599365234375 -274.8485412597656 L 149.7050018310547 -273.4859924316406 L 149.5070037841797 -274.4460144042969 L 148.74600219726562 -277.31298828125 L 148.43499755859375 -278.17401123046875 M 280.8169860839844 -246.89100646972656 L 262.1440124511719 -246.89100646972656 L 196.60800170898438 -246.89100646972656 L 163.83999633789062 -246.89100646972656 L 147.45599365234375 -246.89100646972656 L 141.3620147705078 -246.89100646972656 L 141.33810424804688 -246.89100646972656 L 141.2445068359375 -246.89100646972656 L 131.07200622558594 -246.89100646972656 L 116.02899932861328 -246.89100646972656 L 116.02899932861328 -131.07200622558594 L 116.02899932861328 -122.4520034790039 L 131.07200622558594 -122.4520034790039 L 262.1440124511719 -122.4520034790039 L 278.52801513671875 -122.4520034790039 L 280.8169860839844 -122.4520034790039 L 280.8169860839844 -131.07200622558594 L 280.8169860839844 -246.89100646972656 M 133.68179321289062 -286.7200012207031 L 133.30099487304688 -286.4429931640625 L 131.6909942626953 -285.1340026855469 L 131.21200561523438 -284.6969909667969 L 135.61248779296875 -282.0290222167969 L 138.9969940185547 -279.97698974609375 L 138.99899291992188 -283.90301513671875 L 134.3485870361328 -286.7200012207031 L 133.99200439453125 -286.9360046386719 L 133.92100524902344 -286.8940124511719 L 133.68179321289062 -286.7200012207031 z" fill="none" stroke="rgb(255,0,0)" stroke-width="0.001mm" />
</svg>