<?xml version="1.0" standalone="no"?>
<!DOCTYPE svg PUBLIC "-//W3C//DTD SVG 1.1//EN"
  "http://www.w3.org/Graphics/SVG/1.1/DTD/svg11.dtd">
<svg width="210.00000762939453mm" height="202mm" viewBox="93.4229965209961 -101.83999633789062 210.00000762939453 202" xmlns="http://www.w3.org/2000/svg" version="1.1">
	<title>svgOutput</title>
	<desc>made with tinkercad</desc>
<path d="M 188.39999389648438 -70.93000030517578 L 188.40000915527344 -70.93008422851562 L 188.41600036621094 -71.21444702148438 L 188.42999267578125 -71.46333312988281 L 188.43634033203125 -71.57350158691406 L 188.6179962158203 -72.12767028808594 L 188.6540069580078 -72.23500061035156 L 189.0330047607422 -72.73899841308594 L 189.5590057373047 -73.08599853515625 L 189.6681671142578 -73.1153335571289 L 190.1230010986328 -73.23567199707031 L 190.2256622314453 -73.26283264160156 L 190.3000030517578 -73.26466369628906 L 190.66000366210938 -73.27300262451172 L 191.19700622558594 -73.15299987792969 L 191.6230010986328 -72.9469985961914 L 191.656005859375 -72.9209976196289 L 191.656005859375 -72.13600158691406 L 190.1230010986328 -72.14600372314453 L 190.1230010986328 -70.59100341796875 L 191.656005859375 -70.59100341796875 L 192.51199340820312 -70.59100341796875 L 193.2030029296875 -70.59100341796875 L 193.2030029296875 -73.72799682617188 L 193.2030029296875 -73.80799865722656 L 193.19366455078125 -73.81666564941406 L 193.14450073242188 -73.86250305175781 L 193.143798828125 -73.86296844482422 L 193.0191650390625 -73.94683074951172 L 192.39500427246094 -74.36599731445312 L 191.64599609375 -74.65499877929688 L 191.50833129882812 -74.6798324584961 L 190.72666931152344 -74.81649780273438 L 190.7009735107422 -74.81875610351562 L 190.6981658935547 -74.81900024414062 L 190.29733276367188 -74.82066345214844 L 190.2270050048828 -74.82099914550781 L 189.08299255371094 -74.63500213623047 L 188.13600158691406 -74.2020034790039 L 187.677001953125 -73.83599853515625 L 187.58477783203125 -73.72799682617188 L 187.2969970703125 -73.39099884033203 L 187.05616760253906 -72.97350311279297 L 187.00650024414062 -72.88733673095703 L 186.8248291015625 -72.38733673095703 L 186.7899932861328 -72.29000091552734 L 186.6750030517578 -71.54499816894531 L 186.65133666992188 -71.39116668701172 L 186.6855010986328 -70.58032989501953 L 186.6929931640625 -70.4229965209961 L 186.73016357421875 -70.2836685180664 L 186.90921020507812 -69.63200378417969 L 186.92666625976562 -69.56844329833984 L 186.9268341064453 -69.56783294677734 L 186.99166870117188 -69.44466400146484 L 187.30499267578125 -68.8479995727539 L 187.79100036621094 -68.28800201416016 L 188.38499450683594 -67.85199737548828 L 188.41600036621094 -67.83696746826172 L 188.45166015625 -67.81966400146484 L 188.8058319091797 -67.64800262451172 L 188.91867065429688 -67.6136703491211 L 189.46200561523438 -67.4520034790039 L 190.21800231933594 -67.37300109863281 L 191.40199279785156 -67.49700164794922 L 192.38400268554688 -67.927001953125 L 192.6510009765625 -68.12799835205078 L 192.3067169189453 -68.7934341430664 L 192.06004333496094 -69.27022552490234 L 192.05706787109375 -69.27598571777344 L 191.97149658203125 -69.44136047363281 L 191.96600341796875 -69.4520034790039 L 191.92100524902344 -69.41100311279297 L 191.5051727294922 -69.16100311279297 L 191.42218017578125 -69.11104583740234 L 191.41932678222656 -69.10933685302734 L 191.30715942382812 -69.08116912841797 L 190.73300170898438 -68.93199920654297 L 189.7790069580078 -69.01599884033203 L 189.1020050048828 -69.36499786376953 L 188.8560028076172 -69.61000061035156 L 188.8446044921875 -69.63200378417969 L 188.83055114746094 -69.6591567993164 L 188.8076629638672 -69.70333099365234 L 188.5326690673828 -70.23500061035156 L 188.5208282470703 -70.2645034790039 L 188.50250244140625 -70.30033111572266 L 188.4552001953125 -70.59100341796875 L 188.41600036621094 -70.8318099975586 L 188.41583251953125 -70.83283233642578 L 188.39999389648438 -70.93000030517578 M 134.6167449951172 -79.35914611816406 L 131.07200622558594 -81.50975799560547 L 130.39581298828125 -81.91999816894531 L 130.1699981689453 -82.05699920654297 L 130.03334045410156 -81.9211654663086 L 130.03216552734375 -81.91999816894531 L 130.0051727294922 -81.8931655883789 L 128.58934020996094 -80.24649810791016 L 128.3070068359375 -79.91799926757812 L 127.9209976196289 -79.39600372314453 L 130.51377868652344 -77.8239974975586 L 131.07200622558594 -77.48554229736328 L 132.20599365234375 -76.7979965209961 L 133.29600524902344 -77.95600128173828 L 134.81500244140625 -79.08000183105469 L 134.94500732421875 -79.16000366210938 L 134.93296813964844 -79.16729736328125 L 134.6167449951172 -79.35914611816406 M 174.30799865722656 -72.19200134277344 L 174.3140869140625 -73.72799682617188 L 174.3179931640625 -74.71399688720703 L 172.66700744628906 -74.71399688720703 L 172.66519165039062 -73.72799682617188 L 172.662353515625 -72.18930053710938 L 172.65866088867188 -70.18399810791016 L 172.65789794921875 -69.63200378417969 L 172.65699768066406 -68.982666015625 L 172.65699768066406 -67.50599670410156 L 174.41299438476562 -67.48899841308594 L 175.82699584960938 -67.53299713134766 L 176.68899536132812 -67.79100036621094 L 177.30299377441406 -68.26899719238281 L 177.66799926757812 -68.95800018310547 L 177.74905395507812 -69.63200378417969 L 177.7760009765625 -69.85600280761719 L 177.74099731445312 -70.2268295288086 L 177.73367309570312 -70.30333709716797 L 177.59866333007812 -70.7491683959961 L 177.57200622558594 -70.83599853515625 L 177.35533142089844 -71.19017028808594 L 177.30450439453125 -71.27033233642578 L 177.28199768066406 -71.302001953125 L 177.02532958984375 -71.55783081054688 L 176.9770050048828 -71.60600280761719 L 176.5760040283203 -71.8759994506836 L 176.63108825683594 -71.95071411132812 L 176.63111877441406 -71.95075988769531 L 176.81202697753906 -72.19610595703125 L 177.94158935546875 -73.72799682617188 L 178.66200256347656 -74.70500183105469 L 176.67300415039062 -74.71700286865234 L 176.65899658203125 -74.69999694824219 L 175.98399353027344 -73.72799682617188 L 174.91799926757812 -72.19300079345703 L 174.30799865722656 -72.19200134277344 M 116.75849914550781 -66.49066925048828 L 116.69514465332031 -65.53600311279297 L 116.6259994506836 -64.49400329589844 L 116.42140197753906 -60.61067581176758 L 116.42105102539062 -60.603965759277344 L 116.4209976196289 -60.60300064086914 L 122.0009994506836 -57.1788330078125 L 124.12699890136719 -55.87383270263672 L 131.07200622558594 -51.60455322265625 L 132.32032775878906 -50.83716583251953 L 132.9855499267578 -50.42715072631836 L 132.99282836914062 -50.42266845703125 L 133.5261688232422 -50.09016799926758 L 133.58900451660156 -50.05099868774414 L 133.5945587158203 -50.05179214477539 L 133.5972900390625 -50.05218505859375 L 133.62863159179688 -50.05665969848633 L 133.67999267578125 -50.06399917602539 L 133.7969970703125 -50.15999984741211 L 139.14599609375 -53.44300079345703 L 132.7402801513672 -57.34400177001953 L 131.07200622558594 -58.35996627807617 L 122.81890106201172 -63.38600158691406 L 119.2884521484375 -65.53600311279297 L 116.80400085449219 -67.04900360107422 L 116.80166625976562 -67.03516387939453 L 116.78585052490234 -66.90280151367188 L 116.78583526611328 -66.90266418457031 L 116.75849914550781 -66.49066925048828 M 182.06300354003906 -73.16000366210938 L 184.32000732421875 -73.16000366210938 L 184.3842315673828 -73.16000366210938 L 184.79400634765625 -73.16000366210938 L 184.79400634765625 -73.72799682617188 L 184.79400634765625 -73.93766021728516 L 184.79400634765625 -74.70700073242188 L 180.41099548339844 -74.70700073242188 L 180.41099548339844 -73.72799682617188 L 180.41099548339844 -73.16000366210938 L 180.41099548339844 -71.86085510253906 L 180.41099548339844 -69.63200378417969 L 180.41099548339844 -67.49700164794922 L 182.06300354003906 -67.49700164794922 L 184.68899536132812 -67.49700164794922 L 184.68899536132812 -69.04399871826172 L 182.06300354003906 -69.04399871826172 L 182.06300354003906 -69.63200378417969 L 182.06300354003906 -70.31099700927734 L 184.32000732421875 -70.31099700927734 L 184.375 -70.31099700927734 L 184.3800048828125 -71.85399627685547 L 184.32000732421875 -71.8541030883789 L 182.06300354003906 -71.85800170898438 L 182.06300354003906 -73.16000366210938 M 157.85816955566406 -69.57066345214844 L 157.81600952148438 -69.63200378417969 L 157.62733459472656 -69.90650177001953 L 157.58299255371094 -69.97200012207031 L 157.41099548339844 -70.44200134277344 L 157.33700561523438 -70.98100280761719 L 157.4250030517578 -71.79199981689453 L 157.75599670410156 -72.4729995727539 L 158.25799560546875 -72.94499969482422 L 158.91600036621094 -73.22599792480469 L 159.4340057373047 -73.29499816894531 L 159.51516723632812 -73.28900146484375 L 159.74400329589844 -73.27173614501953 L 159.9459991455078 -73.25650024414062 L 159.98849487304688 -73.24732971191406 L 160.01266479492188 -73.24166870117188 L 160.44766235351562 -73.10916900634766 L 160.5240020751953 -73.08599853515625 L 160.5243377685547 -73.0858154296875 L 160.92733764648438 -72.8635025024414 L 161.01466369628906 -72.81517028808594 L 161.07716369628906 -72.77850341796875 L 161.08299255371094 -72.7750015258789 L 161.56878662109375 -73.72799682617188 L 161.71099853515625 -74.00700378417969 L 161.6820068359375 -74.03900146484375 L 161.39700317382812 -74.26983642578125 L 161.33816528320312 -74.31733703613281 L 160.93150329589844 -74.52649688720703 L 160.8520050048828 -74.56700134277344 L 160.73733520507812 -74.5979995727539 L 160.08399963378906 -74.77466583251953 L 160.08349609375 -74.77476501464844 L 160.04600524902344 -74.78199768066406 L 160.00267028808594 -74.79366302490234 L 159.979248046875 -74.79488372802734 L 159.24766540527344 -74.83283233642578 L 159.11000061035156 -74.83999633789062 L 157.98699951171875 -74.63500213623047 L 157.02699279785156 -74.15399932861328 L 156.59336853027344 -73.72799682617188 L 156.38223266601562 -73.52059173583984 L 156.28900146484375 -73.42900085449219 L 155.95184326171875 -72.83116149902344 L 155.87899780273438 -72.7020034790039 L 155.83934020996094 -72.56316375732422 L 155.83636474609375 -72.55255889892578 L 155.8283233642578 -72.52383422851562 L 155.6479949951172 -71.87994384765625 L 155.6393280029297 -71.8489990234375 L 155.6300048828125 -71.72350311279297 L 155.5850067138672 -71.11599731445312 L 155.61573791503906 -70.54730224609375 L 155.61700439453125 -70.52400207519531 L 155.6479949951172 -70.39275360107422 L 155.7845001220703 -69.81483459472656 L 155.8163299560547 -69.67666625976562 L 155.837646484375 -69.63200378417969 L 155.87399291992188 -69.55583190917969 L 156.1540069580078 -68.97000122070312 L 156.54983520507812 -68.4816665649414 L 156.6316680908203 -68.3808364868164 L 156.73583984375 -68.30216979980469 L 156.76116943359375 -68.28276062011719 L 157.27000427246094 -67.89299774169922 L 157.2907257080078 -67.88311767578125 L 157.7270050048828 -67.67500305175781 L 158.34100341796875 -67.48999786376953 L 158.44467163085938 -67.47616577148438 L 158.99447631835938 -67.40296936035156 L 158.99549865722656 -67.40283203125 L 159.0521697998047 -67.40116882324219 L 159.08416748046875 -67.4001693725586 L 159.66583251953125 -67.40766906738281 L 159.74400329589844 -67.40868377685547 L 159.76800537109375 -67.40899658203125 L 160.4199981689453 -67.53299713134766 L 160.98699951171875 -67.7509994506836 L 161.40367126464844 -68.02850341796875 L 161.49032592773438 -68.08633422851562 L 161.5453338623047 -68.13383483886719 L 161.55299377441406 -68.14099884033203 L 160.90548706054688 -69.23735046386719 L 160.82630920410156 -69.37139892578125 L 160.82525634765625 -69.37317657470703 L 160.822998046875 -69.37699890136719 L 160.73216247558594 -69.32783508300781 L 160.62916564941406 -69.27766418457031 L 160.2050018310547 -69.07599639892578 L 159.74400329589844 -68.96981811523438 L 159.67100524902344 -68.9530029296875 L 159.1510009765625 -68.94599914550781 L 158.64500427246094 -69.05000305175781 L 158.2050018310547 -69.26799774169922 L 157.91749572753906 -69.51883697509766 L 157.85816955566406 -69.57066345214844 M 130.2136688232422 -84.08399963378906 L 131.07200622558594 -84.80338287353516 L 132.128662109375 -85.68900299072266 L 132.50100708007812 -86.0009994506836 L 132.66400146484375 -86.12899780273438 L 132.65805053710938 -86.13260650634766 L 131.07200622558594 -87.0955581665039 L 128.76699829101562 -88.49500274658203 L 128.5153350830078 -88.29750061035156 L 128.42066955566406 -88.22183227539062 L 126.60733032226562 -86.74183654785156 L 126.28900146484375 -86.48200225830078 L 126.01100158691406 -86.23999786376953 L 126.380859375 -86.01599884033203 L 129.87713623046875 -83.89852142333984 L 129.94834899902344 -83.85539245605469 L 129.94900512695312 -83.8550033569336 L 130.16065979003906 -84.038330078125 L 130.2136688232422 -84.08399963378906 M 197.02000427246094 -71.58000183105469 L 197.1179962158203 -72.21399688720703 L 197.32000732421875 -72.69499969482422 L 197.57249450683594 -72.96583557128906 L 197.62319946289062 -73.02008819580078 L 197.62466430664062 -73.02166748046875 L 197.69566345214844 -73.05400085449219 L 198.0590057373047 -73.2239990234375 L 198.67999267578125 -73.26599884033203 L 199.10499572753906 -73.1510009765625 L 199.4250030517578 -72.90299987792969 L 199.6439971923828 -72.51499938964844 L 199.76499938964844 -71.98300170898438 L 199.79083251953125 -70.0113296508789 L 199.79586791992188 -69.63200378417969 L 199.79617309570312 -69.61000061035156 L 199.79617309570312 -69.60406494140625 L 199.7969970703125 -67.8375015258789 L 199.7969970703125 -67.48999786376953 L 199.7971649169922 -67.48999786376953 L 201.4429931640625 -67.48999786376953 L 201.44366455078125 -67.69633483886719 L 201.44410705566406 -69.63200378417969 L 201.4445037841797 -71.40633392333984 L 201.44400024414062 -71.94200134277344 L 201.40199279785156 -72.3949966430664 L 201.2270050048828 -73.08399963378906 L 201.177001953125 -73.1816635131836 L 200.9157257080078 -73.68092346191406 L 200.9153289794922 -73.6816635131836 L 200.87417602539062 -73.72799682617188 L 200.84500122070312 -73.76083374023438 L 200.5050048828125 -74.1449966430664 L 199.96600341796875 -74.50199890136719 L 199.3922576904297 -74.69400024414062 L 199.27085876464844 -74.73462677001953 L 199.20399475097656 -74.75700378417969 L 198.32000732421875 -74.81900024414062 L 197.76278686523438 -74.73920440673828 L 197.63333129882812 -74.72066497802734 L 197.49949645996094 -74.70249938964844 L 197.49525451660156 -74.70088958740234 L 197.47703552246094 -74.69400024414062 L 197.3836669921875 -74.6586685180664 L 196.82200622558594 -74.4469985961914 L 196.60800170898438 -74.29462432861328 L 196.24899291992188 -74.03900146484375 L 196.17599487304688 -73.94783020019531 L 196.00254821777344 -73.72799682617188 L 195.80548095703125 -73.47823333740234 L 195.80516052246094 -73.47783660888672 L 195.7624969482422 -73.3844985961914 L 195.55499267578125 -72.93199920654297 L 195.4040069580078 -72.28700256347656 L 195.36399841308594 -69.72100067138672 L 195.36392211914062 -69.63200378417969 L 195.36293029785156 -68.52433013916016 L 195.3623809814453 -67.9117660522461 L 195.36199951171875 -67.48999786376953 L 196.60800170898438 -67.48999786376953 L 197.01300048828125 -67.48999786376953 L 197.01666259765625 -69.63200378417969 L 197.02000427246094 -71.58000183105469 M 122.44599914550781 -71.31600189208984 L 122.87999725341797 -72.59024810791016 L 123.26750946044922 -73.72799682617188 L 123.28016662597656 -73.76516723632812 L 123.45233154296875 -74.27066802978516 L 123.45234680175781 -74.27070617675781 L 123.47083282470703 -74.31616973876953 L 123.58480072021484 -74.60706329345703 L 123.58972930908203 -74.61964416503906 L 123.58999633789062 -74.62033081054688 L 123.59333038330078 -74.65116882324219 L 123.59390258789062 -74.65611267089844 L 123.59400177001953 -74.65699768066406 L 122.87999725341797 -75.09014129638672 L 119.13999938964844 -77.35900115966797 L 119.06199645996094 -77.22100067138672 L 118.24600219726562 -74.89199829101562 L 117.98100280761719 -73.90299987792969 L 118.26887512207031 -73.72799682617188 L 122.41008758544922 -71.21055603027344 L 122.41100311279297 -71.20999908447266 L 122.44599914550781 -71.31600189208984 M 124.37550354003906 -76.32283020019531 L 124.61599731445312 -76.74516296386719 L 125.23033905029297 -77.8239974975586 L 125.78099822998047 -78.79100036621094 L 125.88700103759766 -78.96600341796875 L 125.841552734375 -78.99359893798828 L 125.72765350341797 -79.0627670288086 L 122.87999725341797 -80.79210662841797 L 121.60399627685547 -81.56700134277344 L 121.48999786376953 -81.4260025024414 L 121.11659240722656 -80.85604858398438 L 120.06700134277344 -79.25399780273438 L 119.74500274658203 -78.66000366210938 L 119.84197998046875 -78.60096740722656 L 122.87999725341797 -76.75189208984375 L 123.82433319091797 -76.1771240234375 L 124.18550109863281 -75.95730590820312 L 124.18599700927734 -75.95700073242188 L 124.18628692626953 -75.95756530761719 L 124.21133422851562 -76.00700378417969 L 124.37547302246094 -76.32278442382812 L 124.37550354003906 -76.32283020019531 M 205.35299682617188 -73.18499755859375 L 205.13925170898438 -73.72799682617188 L 204.75900268554688 -74.69400024414062 L 203.09800720214844 -74.68900299072266 L 203.4967498779297 -73.72799682617188 L 204.8000030517578 -70.58712005615234 L 206.0158233642578 -67.65694427490234 L 206.08799743652344 -67.48300170898438 L 207.56399536132812 -67.48600006103516 L 208.0403289794922 -68.62983703613281 L 210.16221618652344 -73.72799682617188 L 210.5403289794922 -74.6364974975586 L 210.56399536132812 -74.69400024414062 L 208.7989959716797 -74.69400024414062 L 208.4169464111328 -73.72799682617188 L 208.2010040283203 -73.18199920654297 L 205.35299682617188 -73.18499755859375 M 302.4230041503906 93.16000366210938 L 302.27301025390625 94.49500274658203 L 301.8290100097656 95.76300048828125 L 301.114013671875 96.9010009765625 L 300.16400146484375 97.85099792480469 L 299.0260009765625 98.56600189208984 L 297.75799560546875 99.01000213623047 L 296.4230041503906 99.16000366210938 L 294.9119873046875 99.16000366210938 L 262.1440124511719 99.16000366210938 L 131.07200622558594 99.16000366210938 L 100.4229965209961 99.16000366210938 L 99.08799743652344 99.01000213623047 L 98.30400085449219 98.7354736328125 L 97.81999969482422 98.56600189208984 L 96.68199920654297 97.85099792480469 L 95.73200225830078 96.9010009765625 L 95.01699829101562 95.76300048828125 L 94.572998046875 94.49500274658203 L 94.4229965209961 93.16000366210938 L 94.4229965209961 65.53600311279297 L 94.4229965209961 1.1102230246251565e-16 L 94.4229965209961 -65.53600311279297 L 94.4229965209961 -94.83999633789062 L 94.572998046875 -96.17500305175781 L 95.01699829101562 -97.44300079345703 L 95.73200225830078 -98.58100128173828 L 96.68199920654297 -99.53099822998047 L 97.81999969482422 -100.24600219726562 L 98.30400085449219 -100.41547393798828 L 99.08799743652344 -100.69000244140625 L 100.4229965209961 -100.83999633789062 L 131.07200622558594 -100.83999633789062 L 163.83999633789062 -100.83999633789062 L 196.60800170898438 -100.83999633789062 L 229.37600708007812 -100.83999633789062 L 262.1440124511719 -100.83999633789062 L 294.9119873046875 -100.83999633789062 L 296.4230041503906 -100.83999633789062 L 297.75799560546875 -100.69000244140625 L 299.0260009765625 -100.24600219726562 L 300.16400146484375 -99.53099822998047 L 301.114013671875 -98.58100128173828 L 301.8290100097656 -97.44300079345703 L 302.27301025390625 -96.17500305175781 L 302.4230041503906 -94.83999633789062 L 302.4230041503906 -65.53600311279297 L 302.4230041503906 1.1102230246251565e-16 L 302.4230041503906 65.53600311279297 L 302.4230041503906 93.16000366210938 M 216.21600341796875 -71.8479995727539 L 216.2233428955078 -71.8579330444336 L 216.40785217285156 -72.1075210571289 L 216.44033813476562 -72.15147399902344 L 217.60577392578125 -73.72799682617188 L 218.31100463867188 -74.68199920654297 L 216.31300354003906 -74.68599700927734 L 215.64749145507812 -73.72799682617188 L 214.56100463867188 -72.16400146484375 L 213.96099853515625 -72.16799926757812 L 213.96099853515625 -73.72799682617188 L 213.96099853515625 -74.69000244140625 L 212.99200439453125 -74.69293975830078 L 212.64419555664062 -74.69400024414062 L 212.31500244140625 -74.69499969482422 L 212.31500244140625 -74.69400024414062 L 212.3137969970703 -73.72799682617188 L 212.30599975585938 -67.48500061035156 L 212.99200439453125 -67.48358917236328 L 215.22500610351562 -67.47899627685547 L 215.45794677734375 -67.53092956542969 L 216.1580047607422 -67.68699645996094 L 216.82400512695312 -68.11000061035156 L 217.27699279785156 -68.81600189208984 L 217.42599487304688 -69.76599884033203 L 217.28399658203125 -70.65399932861328 L 216.85000610351562 -71.3740005493164 L 216.28799438476562 -71.80799865722656 L 216.21600341796875 -71.8479995727539 M 130.42259216308594 -66.34834289550781 L 131.07200622558594 -65.95445251464844 L 131.6909942626953 -65.5790023803711 L 131.621826171875 -65.69316864013672 L 131.51283264160156 -65.86383056640625 L 131.07200622558594 -66.54862976074219 L 131.03700256347656 -66.60299682617188 L 131.02587890625 -66.62628936767578 L 130.56500244140625 -67.59100341796875 L 130.13900756835938 -69.02300262451172 L 130.07443237304688 -69.63200378417969 L 129.97900390625 -70.53199768066406 L 129.9739990234375 -70.78500366210938 L 129.85569763183594 -70.85678100585938 L 129.77207946777344 -70.90751647949219 L 129.52197265625 -71.05926513671875 L 125.12355041503906 -73.72799682617188 L 124.99500274658203 -73.80599975585938 L 124.82599639892578 -73.9020004272461 L 124.7559585571289 -73.72799682617188 L 124.66699981689453 -73.50700378417969 L 123.95700073242188 -71.37033081054688 L 123.81366729736328 -70.93800354003906 L 123.70532989501953 -70.51466369628906 L 123.68499755859375 -70.43499755859375 L 125.0088882446289 -69.63200378417969 L 130.42259216308594 -66.34834289550781 M 130.7584991455078 -74.41866302490234 L 131.07200622558594 -75.03627014160156 L 131.2310028076172 -75.34950256347656 L 131.31399536132812 -75.51300048828125 L 131.3800048828125 -75.63500213623047 L 131.37689208984375 -75.63688659667969 L 131.2089385986328 -75.73873138427734 L 131.07200622558594 -75.82176208496094 L 127.76996612548828 -77.8239974975586 L 127.10700225830078 -78.22599792480469 L 126.9800033569336 -78.03600311279297 L 126.85981750488281 -77.8239974975586 L 125.572998046875 -75.55400085449219 L 125.41699981689453 -75.21099853515625 L 126.97599792480469 -74.26529693603516 L 127.86173248291016 -73.72799682617188 L 130.01736450195312 -72.42037200927734 L 130.10699462890625 -72.36599731445312 L 130.12242126464844 -72.35758972167969 L 130.12899780273438 -72.35399627685547 L 130.15199279785156 -72.4800033569336 L 130.375 -73.40299987792969 L 130.4258270263672 -73.54266357421875 L 130.49330139160156 -73.72799682617188 L 130.69583129882812 -74.28433227539062 L 130.73583984375 -74.37016296386719 L 130.7584991455078 -74.41866302490234 M 114.75900268554688 90.91500091552734 L 114.68800354003906 90.86066436767578 L 114.447998046875 90.677001953125 L 114.08599853515625 90.5270004272461 L 113.697998046875 90.47599792480469 L 113.30999755859375 90.5270004272461 L 112.947998046875 90.677001953125 L 112.63700103759766 90.91500091552734 L 112.39900207519531 91.22599792480469 L 112.2490005493164 91.58799743652344 L 112.197998046875 91.97599792480469 L 112.22218322753906 92.16000366210938 L 112.2490005493164 92.36399841308594 L 112.39900207519531 92.72599792480469 L 112.63700103759766 93.03700256347656 L 112.947998046875 93.2750015258789 L 113.30999755859375 93.42500305175781 L 113.697998046875 93.47599792480469 L 114.08599853515625 93.42500305175781 L 114.447998046875 93.2750015258789 L 114.68800354003906 93.0913314819336 L 114.75900268554688 93.03700256347656 L 114.99700164794922 92.72599792480469 L 115.14700317382812 92.36399841308594 L 115.197998046875 91.97599792480469 L 115.14700317382812 91.58799743652344 L 114.99700164794922 91.22599792480469 L 114.75900268554688 90.91500091552734 M 139.26400756835938 -83.78702545166016 L 142.3448486328125 -81.91999816894531 L 146.04583740234375 -79.67716979980469 L 147.36599731445312 -78.87699890136719 L 147.00999450683594 -79.51100158691406 L 145.6510009765625 -81.49700164794922 L 145.29736328125 -81.91999816894531 L 143.93299865722656 -83.552001953125 L 141.6540069580078 -85.84100341796875 L 139.26400756835938 -87.85645294189453 L 138.89100646972656 -88.1709976196289 L 138.85231018066406 -88.1991195678711 L 136.2203826904297 -90.11199951171875 L 135.45399475097656 -90.66899871826172 L 133.70899963378906 -91.83399963378906 L 133.55099487304688 -91.84500122070312 L 132.97000122070312 -91.4729995727539 L 131.38999938964844 -90.39633178710938 L 131.07200622558594 -90.17963409423828 L 131.06666564941406 -90.1760025024414 L 130.97654724121094 -90.11199951171875 L 130.17832946777344 -89.545166015625 L 130.00799560546875 -89.42400360107422 L 131.07200622558594 -88.77588653564453 L 133.81704711914062 -87.10379791259766 L 133.8667755126953 -87.0735092163086 L 135.3855743408203 -86.14836883544922 L 137.45716857910156 -84.8864974975586 L 139.02999877929688 -83.9288330078125 L 139.26400756835938 -83.78702545166016 M 168.96766662597656 -68.05183410644531 L 169.43099975585938 -68.41100311279297 L 169.8939971923828 -68.96700286865234 L 169.92849731445312 -69.02783203125 L 170.11183166503906 -69.35116577148438 L 170.15415954589844 -69.45983123779297 L 170.2201385498047 -69.63200378417969 L 170.35499572753906 -69.98400115966797 L 170.45582580566406 -70.54066467285156 L 170.47666931152344 -70.65550231933594 L 170.47666931152344 -70.65570068359375 L 170.48916625976562 -71.27300262451172 L 170.49099731445312 -71.39299774169922 L 170.40682983398438 -71.9471664428711 L 170.3893280029297 -72.0615005493164 L 170.1626739501953 -72.69400024414062 L 170.1179962158203 -72.81700134277344 L 169.81300354003906 -73.3290023803711 L 169.46719360351562 -73.72799682617188 L 169.42300415039062 -73.77899932861328 L 168.4669952392578 -74.4469985961914 L 167.81100463867188 -74.69100189208984 L 167.68983459472656 -74.71299743652344 L 167.06695556640625 -74.82292175292969 L 167.06649780273438 -74.822998046875 L 166.95616149902344 -74.82516479492188 L 166.4219970703125 -74.83599853515625 L 166.263671875 -74.8201675415039 L 166.21859741210938 -74.81441497802734 L 166.21533203125 -74.81400299072266 L 165.5328369140625 -74.69233703613281 L 165.41299438476562 -74.6709976196289 L 164.63099670410156 -74.34600067138672 L 164.51983642578125 -74.2663345336914 L 163.9498291015625 -73.85133361816406 L 163.84500122070312 -73.72799682617188 L 163.83999633789062 -73.72211456298828 L 163.4374237060547 -73.24849700927734 L 163.43699645996094 -73.24800109863281 L 163.12533569335938 -72.61299896240234 L 163.0630340576172 -72.48612976074219 L 163.06100463867188 -72.48200225830078 L 163.02883911132812 -72.32966613769531 L 162.85800170898438 -71.5479965209961 L 162.8470001220703 -70.84100341796875 L 163.0590057373047 -69.79199981689453 L 163.1431121826172 -69.63200378417969 L 163.1447296142578 -69.6289291381836 L 163.18588256835938 -69.55066680908203 L 163.53900146484375 -68.87899780273438 L 163.83999633789062 -68.54247283935547 L 164.0050048828125 -68.35800170898438 L 164.45916748046875 -68.01883697509766 L 164.55299377441406 -67.9488296508789 L 165.10549926757812 -67.68216705322266 L 165.21299743652344 -67.63099670410156 L 165.9239959716797 -67.44499969482422 L 166.02349853515625 -67.43633270263672 L 166.5501708984375 -67.3906478881836 L 166.5518341064453 -67.3905029296875 L 166.61349487304688 -67.39216613769531 L 166.64816284179688 -67.39299774169922 L 167.31483459472656 -67.43716430664062 L 167.4320068359375 -67.44499969482422 L 168.18600463867188 -67.64099884033203 L 168.29783630371094 -67.6951675415039 L 168.87197875976562 -67.97765350341797 L 168.8719940185547 -67.97766876220703 L 168.96766662597656 -68.05183410644531 M 150.43104553222656 -67.0978012084961 L 150.38099670410156 -67.51799774169922 L 150.12100219726562 -69.6729965209961 L 150.07200622558594 -69.98400115966797 L 147.45599365234375 -71.57097625732422 L 143.90032958984375 -73.72799682617188 L 140.43699645996094 -75.8290023803711 L 140.42100524902344 -75.83699798583984 L 140.42100524902344 -73.72799682617188 L 140.42100524902344 -71.81199645996094 L 147.45599365234375 -67.5530776977539 L 150.5500030517578 -65.68000030517578 L 150.531494140625 -65.90049743652344 L 150.4340057373047 -67.072998046875 L 150.43104553222656 -67.0978012084961 M 149.5070037841797 -72.83399963378906 L 149.2696990966797 -73.72799682617188 L 148.74600219726562 -75.70099639892578 L 148.43499755859375 -76.56199645996094 L 147.45599365234375 -77.15617370605469 L 140.4239959716797 -81.42400360107422 L 140.4219970703125 -77.49800109863281 L 146.644775390625 -73.72799682617188 L 147.45599365234375 -73.23653411865234 L 149.7050018310547 -71.8740005493164 L 149.5070037841797 -72.83399963378906 M 132.88699340820312 -63.191001892089844 L 131.07200622558594 -64.29222869873047 L 129.02206420898438 -65.53600311279297 L 123.35900115966797 -68.97200012207031 L 123.3489990234375 -68.96600341796875 L 123.20899963378906 -68.18299865722656 L 122.93499755859375 -65.83200073242188 L 122.92095184326172 -65.53600311279297 L 122.89099884033203 -64.90499877929688 L 131.07200622558594 -59.88201141357422 L 135.2056884765625 -57.34400177001953 L 139.51199340820312 -54.70000076293945 L 140.28799438476562 -54.23400115966797 L 140.43099975585938 -54.23099899291992 L 141.0030059814453 -54.57500076293945 L 143.08883666992188 -55.856666564941406 L 143.5921630859375 -56.166500091552734 L 144.0229949951172 -56.433998107910156 L 142.52325439453125 -57.34400177001953 L 132.88699340820312 -63.191001892089844 M 131.21200561523438 -83.08499908447266 L 133.13351440429688 -81.91999816894531 L 138.9969940185547 -78.36499786376953 L 138.99880981445312 -81.91999816894531 L 138.99899291992188 -82.29100036621094 L 133.99200439453125 -85.3239974975586 L 133.92100524902344 -85.28199768066406 L 133.30099487304688 -84.83100128173828 L 131.6909942626953 -83.52200317382812 L 131.21200561523438 -83.08499908447266 M 281.6990051269531 -87.0479965209961 L 281.64801025390625 -86.65899658203125 L 281.6990051269531 -86.27100372314453 L 281.8046569824219 -86.01599884033203 L 281.8489990234375 -85.90899658203125 L 282.0880126953125 -85.5989990234375 L 282.39801025390625 -85.36000061035156 L 282.760009765625 -85.20999908447266 L 283.14801025390625 -85.15899658203125 L 283.5360107421875 -85.20999908447266 L 283.89801025390625 -85.36000061035156 L 284.2090148925781 -85.5989990234375 L 284.4469909667969 -85.90899658203125 L 284.4913330078125 -86.01599884033203 L 284.59698486328125 -86.27100372314453 L 284.64801025390625 -86.65899658203125 L 284.59698486328125 -87.0479965209961 L 284.4469909667969 -87.40899658203125 L 284.2090148925781 -87.72000122070312 L 283.89801025390625 -87.95800018310547 L 283.5360107421875 -88.10800170898438 L 283.14801025390625 -88.15899658203125 L 282.760009765625 -88.10800170898438 L 282.39801025390625 -87.95800018310547 L 282.0880126953125 -87.72000122070312 L 281.8489990234375 -87.40899658203125 L 281.6990051269531 -87.0479965209961 M 145.38900756835938 -57.26900100708008 L 145.51080322265625 -57.34400177001953 L 147.45599365234375 -58.541748046875 L 148.79299926757812 -59.3650016784668 L 147.45599365234375 -60.176788330078125 L 140.42799377441406 -64.44400024414062 L 140.42100524902344 -60.28099822998047 L 145.26528930664062 -57.34400177001953 L 145.3782958984375 -57.275489807128906 L 145.38900756835938 -57.26900100708008 M 123.20800018310547 -83.4990005493164 L 122.87999725341797 -83.12625122070312 L 122.49700164794922 -82.69100189208984 L 122.84733581542969 -82.47733306884766 L 122.87999725341797 -82.45742797851562 L 123.76201629638672 -81.91999816894531 L 124.64945983886719 -81.37926483154297 L 124.65399932861328 -81.37650299072266 L 125.00599670410156 -81.16666412353516 L 126.66883850097656 -80.17514038085938 L 126.71099853515625 -80.1500015258789 L 127.21700286865234 -80.822998046875 L 128.1451873779297 -81.91999816894531 L 128.68499755859375 -82.55799865722656 L 128.91603088378906 -82.81778717041016 L 128.91799926757812 -82.81999969482422 L 124.9260025024414 -85.23899841308594 L 124.92570495605469 -85.23872375488281 L 124.5719985961914 -84.90599822998047 L 123.20800018310547 -83.4990005493164 M 221.02783203125 -67.4635009765625 L 221.1840057373047 -67.4620132446289 L 221.9911651611328 -67.45433044433594 L 222.7703399658203 -67.48433685302734 L 222.91700744628906 -67.48999786376953 L 224.18299865722656 -67.81300354003906 L 225.03199768066406 -68.32599639892578 L 225.66200256347656 -69.05000305175781 L 225.91700744628906 -69.55599975585938 L 226.13499450683594 -70.39099884033203 L 226.15199279785156 -71.5 L 225.843994140625 -72.63099670410156 L 225.20599365234375 -73.55699920654297 L 224.97119140625 -73.72799682617188 L 224.28599548339844 -74.22699737548828 L 223.494873046875 -74.52867126464844 L 223.49400329589844 -74.52899932861328 L 222.7656707763672 -74.65316772460938 L 222.61532592773438 -74.6788330078125 L 221.63783264160156 -74.6971664428711 L 221.44700622558594 -74.69999694824219 L 219.85899353027344 -74.68399810791016 L 219.857666015625 -73.72799682617188 L 219.85545349121094 -72.12870025634766 L 219.8489990234375 -67.47699737548828 L 220.5828094482422 -67.46798706054688 L 220.6631622314453 -67.46700286865234 L 221.02783203125 -67.4635009765625 M 115.07952117919922 -87.21039581298828 L 115.0770263671875 -87.2164077758789 L 114.99700164794922 -87.40899658203125 L 114.75900268554688 -87.72000122070312 L 114.68800354003906 -87.77433776855469 L 114.447998046875 -87.95800018310547 L 114.08599853515625 -88.10800170898438 L 113.697998046875 -88.15899658203125 L 113.30999755859375 -88.10800170898438 L 112.947998046875 -87.95800018310547 L 112.63700103759766 -87.72000122070312 L 112.39900207519531 -87.40899658203125 L 112.2490005493164 -87.0479965209961 L 112.197998046875 -86.65899658203125 L 112.2490005493164 -86.27100372314453 L 112.35466003417969 -86.01599884033203 L 112.39900207519531 -85.90899658203125 L 112.63700103759766 -85.5989990234375 L 112.947998046875 -85.36000061035156 L 113.30999755859375 -85.20999908447266 L 113.697998046875 -85.15899658203125 L 114.08599853515625 -85.20999908447266 L 114.447998046875 -85.36000061035156 L 114.68800354003906 -85.54443359375 L 114.75900268554688 -85.5989990234375 L 114.99700164794922 -85.90899658203125 L 115.14700317382812 -86.27100372314453 L 115.197998046875 -86.65899658203125 L 115.14700317382812 -87.0479965209961 L 115.07952117919922 -87.21039581298828 M 282.760009765625 90.5270004272461 L 282.6239929199219 90.5833511352539 L 282.39801025390625 90.677001953125 L 282.0880126953125 90.91500091552734 L 281.8489990234375 91.22599792480469 L 281.6990051269531 91.58799743652344 L 281.64801025390625 91.97599792480469 L 281.6990051269531 92.36399841308594 L 281.8489990234375 92.72599792480469 L 282.0880126953125 93.03700256347656 L 282.39801025390625 93.2750015258789 L 282.6239929199219 93.36864471435547 L 282.760009765625 93.42500305175781 L 283.14801025390625 93.47599792480469 L 283.5360107421875 93.42500305175781 L 283.89801025390625 93.2750015258789 L 284.2090148925781 93.03700256347656 L 284.4469909667969 92.72599792480469 L 284.59698486328125 92.36399841308594 L 284.64801025390625 91.97599792480469 L 284.59698486328125 91.58799743652344 L 284.4469909667969 91.22599792480469 L 284.2090148925781 90.91500091552734 L 283.89801025390625 90.677001953125 L 283.5360107421875 90.5270004272461 L 283.14801025390625 90.47599792480469 L 282.760009765625 90.5270004272461 M 121.7040023803711 -67.71099853515625 L 122.02728271484375 -69.63200378417969 L 122.05000305175781 -69.76699829101562 L 121.94094848632812 -69.8331298828125 L 117.6520004272461 -72.43399810791016 L 117.64600372314453 -72.43099975585938 L 117.53800201416016 -71.91000366210938 L 117.47083282470703 -71.55033111572266 L 117.11356353759766 -69.63200378417969 L 117.100830078125 -69.56366729736328 L 117.09200286865234 -69.51200103759766 L 117.0270004272461 -69.04866790771484 L 117.0094985961914 -68.9104995727539 L 116.97699737548828 -68.61299896240234 L 117.04199981689453 -68.50199890136719 L 117.63600158691406 -68.12899780273438 L 121.2750015258789 -65.89800262451172 L 121.50299835205078 -65.76499938964844 L 121.7040023803711 -67.71099853515625 M 163.83999633789062 -45.27899932861328 L 131.07200622558594 -45.27899932861328 L 116.02899932861328 -45.27899932861328 L 116.02899932861328 1.1102230246251565e-16 L 116.02899932861328 65.53600311279297 L 116.02899932861328 79.16000366210938 L 131.07200622558594 79.16000366210938 L 262.1440124511719 79.16000366210938 L 280.8169860839844 79.16000366210938 L 280.8169860839844 65.53600311279297 L 280.8169860839844 1.1102230246251565e-16 L 280.8169860839844 -45.27899932861328 L 262.1440124511719 -45.27899932861328 L 196.60800170898438 -45.27899932861328 L 163.83999633789062 -45.27899932861328 z" fill="none" stroke="rgb(255,0,0)" stroke-width="0.001mm" />
</svg>